<svg version="1.1" xmlns="http://www.w3.org/2000/svg" xmlns:xlink="http://www.w3.org/1999/xlink" width="1316" height="812"><defs/><g><g transform="translate(-278,2) scale(1,1)"><path fill="none" stroke="#000000" d="M 288 8 L 1584 8 L 1584 800 L 288 800 L 288 8" stroke-miterlimit="10"/></g><g transform="translate(-278,2) scale(1,1)"><path fill="#ffffff" stroke="none" d="M 288 8 L 288 30 L 369.76806640625 30 L 380.76806640625 19 L 380.76806640625 8 L 288 8"/></g><g transform="translate(-278,2) scale(1,1)"><path fill="none" stroke="#000000" d="M 288 8 L 288 30 L 369.76806640625 30 L 380.76806640625 19 L 380.76806640625 8 L 288 8 L 288 8" stroke-miterlimit="10"/></g><g transform="translate(-278,2) scale(1,1)"><g><path fill="none" stroke="none"/><text fill="#000000" stroke="none" font-family="Arial" font-size="13px" font-style="normal" font-weight="normal" text-decoration="none" x="312.72998046875" y="24">Revenue</text></g></g><g transform="translate(-278,2) scale(1,1)"><g><path fill="none" stroke="none"/><text fill="#000000" stroke="none" font-family="Arial" font-size="13px" font-style="normal" font-weight="bold" text-decoration="none" x="292.279541015625" y="24">sd</text></g></g><g transform="translate(-278,2) scale(1,1)"><path fill="#c77575" stroke="none" d="M 349.3831649502841 47.3 C 349.3831649502841 43.82060576 352.2615666724659 41 355.812255859375 41 C 359.3629450462841 41 362.241346768466 43.82060576 362.241346768466 47.3 C 362.241346768466 50.779394239999995 359.3629450462841 53.6 355.812255859375 53.6 C 352.2615666724659 53.6 349.3831649502841 50.779394239999995 349.3831649502841 47.3 Z"/></g><g transform="translate(-278,2) scale(1,1)"><path fill="none" stroke="#000000" d="M 349.3831649502841 47.3 C 349.3831649502841 43.82060576 352.2615666724659 41 355.812255859375 41 C 359.3629450462841 41 362.241346768466 43.82060576 362.241346768466 47.3 C 362.241346768466 50.779394239999995 359.3629450462841 53.6 355.812255859375 53.6 C 352.2615666724659 53.6 349.3831649502841 50.779394239999995 349.3831649502841 47.3 Z" stroke-miterlimit="10"/></g><g transform="translate(-278,2) scale(1,1)"><path fill="none" stroke="#000000" d="M 355.812255859375 53.6 L 355.812255859375 66.4" stroke-miterlimit="10"/></g><g transform="translate(-278,2) scale(1,1)"><path fill="none" stroke="#000000" d="M 349.00498313210227 58.4 L 362.6195285866478 58.4" stroke-miterlimit="10"/></g><g transform="translate(-278,2) scale(1,1)"><path fill="none" stroke="#000000" d="M 355.812255859375 66.4 L 346.35771040482956 79" stroke-miterlimit="10"/></g><g transform="translate(-278,2) scale(1,1)"><path fill="none" stroke="#000000" d="M 355.812255859375 66.4 L 365.2668013139205 79" stroke-miterlimit="10"/></g><g transform="translate(-278,2) scale(1,1)"><g><path fill="none" stroke="none"/><text fill="#000000" stroke="none" font-family="Arial" font-size="13px" font-style="normal" font-weight="bold" text-decoration="none" x="314.647705078125" y="98">Admin: Actor</text></g></g><g transform="translate(-278,2) scale(1,1)"><path fill="none" stroke="#000000" d="M 356.5 105 L 356.5 792" stroke-miterlimit="10" stroke-dasharray="3"/></g><g transform="translate(-278,2) scale(1,1)"><rect fill="#C0C0C0" stroke="none" x="423" y="47" width="104.94091796875" height="39" opacity="0.2"/></g><g transform="translate(-278,2) scale(1,1)"><rect fill="#fff1aa" stroke="none" x="416" y="40" width="104.94091796875" height="39"/></g><g transform="translate(-278,2) scale(1,1)"><path fill="none" stroke="#000000" d="M 416 40 L 520.94091796875 40 L 520.94091796875 79 L 416 79 L 416 40 Z Z" stroke-miterlimit="10"/></g><g transform="translate(-278,2) scale(1,1)"><g><path fill="none" stroke="none"/><text fill="#000000" stroke="none" font-family="Arial" font-size="13px" font-style="normal" font-weight="bold" text-decoration="none" x="430.90185546875" y="58">frmRevenue</text></g></g><g transform="translate(-278,2) scale(1,1)"><path fill="none" stroke="#000000" d="M 469.5 80 L 469.5 792" stroke-miterlimit="10" stroke-dasharray="3"/></g><g transform="translate(-278,2) scale(1,1)"><rect fill="#C0C0C0" stroke="none" x="687" y="47" width="71.736328125" height="39" opacity="0.2"/></g><g transform="translate(-278,2) scale(1,1)"><rect fill="#fff1aa" stroke="none" x="680" y="40" width="71.736328125" height="39"/></g><g transform="translate(-278,2) scale(1,1)"><path fill="none" stroke="#000000" d="M 680 40 L 751.736328125 40 L 751.736328125 79 L 680 79 L 680 40 Z Z" stroke-miterlimit="10"/></g><g transform="translate(-278,2) scale(1,1)"><g><path fill="none" stroke="none"/><text fill="#000000" stroke="none" font-family="Arial" font-size="13px" font-style="normal" font-weight="bold" text-decoration="none" x="698.17724609375" y="58">thunk</text></g></g><g transform="translate(-278,2) scale(1,1)"><path fill="none" stroke="#000000" d="M 716.5 80 L 716.5 792" stroke-miterlimit="10" stroke-dasharray="3"/></g><g transform="translate(-278,2) scale(1,1)"><rect fill="#C0C0C0" stroke="none" x="791" y="47" width="151.9453125" height="39" opacity="0.2"/></g><g transform="translate(-278,2) scale(1,1)"><rect fill="#fff1aa" stroke="none" x="784" y="40" width="151.9453125" height="39"/></g><g transform="translate(-278,2) scale(1,1)"><path fill="none" stroke="#000000" d="M 784 40 L 935.9453125 40 L 935.9453125 79 L 784 79 L 784 40 Z Z" stroke-miterlimit="10"/></g><g transform="translate(-278,2) scale(1,1)"><g><path fill="none" stroke="none"/><text fill="#000000" stroke="none" font-family="Arial" font-size="13px" font-style="normal" font-weight="bold" text-decoration="none" x="793.5" y="58">fakebanckend_helper</text></g></g><g transform="translate(-278,2) scale(1,1)"><path fill="none" stroke="#000000" d="M 860.5 80 L 860.5 792" stroke-miterlimit="10" stroke-dasharray="3"/></g><g transform="translate(-278,2) scale(1,1)"><rect fill="#C0C0C0" stroke="none" x="983" y="47" width="84.025390625" height="39" opacity="0.2"/></g><g transform="translate(-278,2) scale(1,1)"><rect fill="#fff1aa" stroke="none" x="976" y="40" width="84.025390625" height="39"/></g><g transform="translate(-278,2) scale(1,1)"><path fill="none" stroke="#000000" d="M 976 40 L 1060.025390625 40 L 1060.025390625 79 L 976 79 L 976 40 Z Z" stroke-miterlimit="10"/></g><g transform="translate(-278,2) scale(1,1)"><g><path fill="none" stroke="none"/><text fill="#000000" stroke="none" font-family="Arial" font-size="13px" font-style="normal" font-weight="bold" text-decoration="none" x="985.5" y="58">api_helper</text></g></g><g transform="translate(-278,2) scale(1,1)"><path fill="none" stroke="#000000" d="M 1019.5 80 L 1019.5 792" stroke-miterlimit="10" stroke-dasharray="3"/></g><g transform="translate(-278,2) scale(1,1)"><rect fill="#C0C0C0" stroke="none" x="1087" y="47" width="71.736328125" height="39" opacity="0.2"/></g><g transform="translate(-278,2) scale(1,1)"><rect fill="#7acff5" stroke="none" x="1080" y="40" width="71.736328125" height="39"/></g><g transform="translate(-278,2) scale(1,1)"><path fill="none" stroke="#000000" d="M 1080 40 L 1151.736328125 40 L 1151.736328125 79 L 1080 79 L 1080 40 Z Z" stroke-miterlimit="10"/></g><g transform="translate(-278,2) scale(1,1)"><g><path fill="none" stroke="none"/><text fill="#000000" stroke="none" font-family="Arial" font-size="13px" font-style="normal" font-weight="bold" text-decoration="none" x="1099.6181640625" y="57.5">route</text></g></g><g transform="translate(-278,2) scale(1,1)"><path fill="none" stroke="#000000" d="M 1116.5 80 L 1116.5 792" stroke-miterlimit="10" stroke-dasharray="3"/></g><g transform="translate(-278,2) scale(1,1)"><rect fill="#C0C0C0" stroke="none" x="1271" y="47" width="78.95361328125" height="39" opacity="0.2"/></g><g transform="translate(-278,2) scale(1,1)"><rect fill="#7acff5" stroke="none" x="1264" y="40" width="78.95361328125" height="39"/></g><g transform="translate(-278,2) scale(1,1)"><path fill="none" stroke="#000000" d="M 1264 40 L 1342.95361328125 40 L 1342.95361328125 79 L 1264 79 L 1264 40 Z Z" stroke-miterlimit="10"/></g><g transform="translate(-278,2) scale(1,1)"><g><path fill="none" stroke="none"/><text fill="#000000" stroke="none" font-family="Arial" font-size="13px" font-style="normal" font-weight="bold" text-decoration="none" x="1273.5" y="58">controller</text></g></g><g transform="translate(-278,2) scale(1,1)"><path fill="none" stroke="#000000" d="M 1304.5 80 L 1304.5 784" stroke-miterlimit="10" stroke-dasharray="3"/></g><g transform="translate(-278,2) scale(1,1)"><rect fill="#C0C0C0" stroke="none" x="1359" y="47" width="71.736328125" height="39" opacity="0.2"/></g><g transform="translate(-278,2) scale(1,1)"><rect fill="#7acff5" stroke="none" x="1352" y="40" width="71.736328125" height="39"/></g><g transform="translate(-278,2) scale(1,1)"><path fill="none" stroke="#000000" d="M 1352 40 L 1423.736328125 40 L 1423.736328125 79 L 1352 79 L 1352 40 Z Z" stroke-miterlimit="10"/></g><g transform="translate(-278,2) scale(1,1)"><g><path fill="none" stroke="none"/><text fill="#000000" stroke="none" font-family="Arial" font-size="13px" font-style="normal" font-weight="bold" text-decoration="none" x="1368.726806640625" y="58">model</text></g></g><g transform="translate(-278,2) scale(1,1)"><path fill="none" stroke="#000000" d="M 1388.5 80 L 1388.5 792" stroke-miterlimit="10" stroke-dasharray="3"/></g><g transform="translate(-278,2) scale(1,1)"><rect fill="#C0C0C0" stroke="none" x="1447" y="47" width="81.09912109375" height="39" opacity="0.2"/></g><g transform="translate(-278,2) scale(1,1)"><rect fill="#8cc86e" stroke="none" x="1440" y="40" width="81.09912109375" height="39"/></g><g transform="translate(-278,2) scale(1,1)"><path fill="none" stroke="#000000" d="M 1440 40 L 1521.09912109375 40 L 1521.09912109375 79 L 1440 79 L 1440 40 Z Z" stroke-miterlimit="10"/></g><g transform="translate(-278,2) scale(1,1)"><g><path fill="none" stroke="none"/><text fill="#000000" stroke="none" font-family="Arial" font-size="13px" font-style="normal" font-weight="bold" text-decoration="none" x="1449.5" y="58">mongoDB</text></g></g><g transform="translate(-278,2) scale(1,1)"><path fill="none" stroke="#000000" d="M 1481.5 80 L 1481.5 792" stroke-miterlimit="10" stroke-dasharray="3"/></g><g transform="translate(-278,2) scale(1,1)"><rect fill="#C0C0C0" stroke="none" x="551" y="47" width="71.736328125" height="39" opacity="0.2"/></g><g transform="translate(-278,2) scale(1,1)"><rect fill="#fff1aa" stroke="none" x="544" y="40" width="71.736328125" height="39"/></g><g transform="translate(-278,2) scale(1,1)"><path fill="none" stroke="#000000" d="M 544 40 L 615.736328125 40 L 615.736328125 79 L 544 79 L 544 40 Z Z" stroke-miterlimit="10"/></g><g transform="translate(-278,2) scale(1,1)"><g><path fill="none" stroke="none"/><text fill="#000000" stroke="none" font-family="Arial" font-size="13px" font-style="normal" font-weight="bold" text-decoration="none" x="556.023193359375" y="58">reducer</text></g></g><g transform="translate(-278,2) scale(1,1)"><path fill="none" stroke="#000000" d="M 580.5 80 L 580.5 792" stroke-miterlimit="10" stroke-dasharray="3"/></g><g transform="translate(-278,2) scale(1,1)"><path fill="none" stroke="#000000" d="M 368 32 L 1064 32" stroke-miterlimit="10"/></g><g transform="translate(-278,2) scale(1,1)"><path fill="none" stroke="#000000" d="M 1053.837325142376 36.20951775601599 L 1064 32 L 1053.837325142376 27.790482243984012" stroke-miterlimit="10"/></g><g transform="translate(-278,2) scale(1,1)"><path fill="none" stroke="#000000" d="M 378.16267485762415 27.790482243984012 L 368 32 L 378.16267485762415 36.209517756015984" stroke-miterlimit="10"/></g><g transform="translate(-278,2) scale(1,1)"><g><path fill="none" stroke="none"/><text fill="#000000" stroke="none" font-family="Arial" font-size="13px" font-style="normal" font-weight="normal" text-decoration="none" x="661" y="23">Front-end</text></g></g><g transform="translate(-278,2) scale(1,1)"><path fill="none" stroke="#000000" d="M 1080 32 L 1432 32" stroke-miterlimit="10"/></g><g transform="translate(-278,2) scale(1,1)"><path fill="none" stroke="#000000" d="M 1421.837325142376 36.20951775601599 L 1432 32 L 1421.837325142376 27.790482243984012" stroke-miterlimit="10"/></g><g transform="translate(-278,2) scale(1,1)"><path fill="none" stroke="#000000" d="M 1090.162674857624 27.790482243984012 L 1080 32 L 1090.162674857624 36.209517756015984" stroke-miterlimit="10"/></g><g transform="translate(-278,2) scale(1,1)"><g><path fill="none" stroke="none"/><text fill="#000000" stroke="none" font-family="Arial" font-size="13px" font-style="normal" font-weight="normal" text-decoration="none" x="1237" y="23">back-end</text></g></g><g transform="translate(-278,2) scale(1,1)"><path fill="none" stroke="#000000" d="M 1440 32 L 1528 32" stroke-miterlimit="10"/></g><g transform="translate(-278,2) scale(1,1)"><path fill="none" stroke="#000000" d="M 1517.837325142376 36.20951775601599 L 1528 32 L 1517.837325142376 27.790482243984012" stroke-miterlimit="10"/></g><g transform="translate(-278,2) scale(1,1)"><path fill="none" stroke="#000000" d="M 1450.162674857624 27.790482243984012 L 1440 32 L 1450.162674857624 36.209517756015984" stroke-miterlimit="10"/></g><g transform="translate(-278,2) scale(1,1)"><g><path fill="none" stroke="none"/><text fill="#000000" stroke="none" font-family="Arial" font-size="13px" font-style="normal" font-weight="normal" text-decoration="none" x="1453" y="23">database</text></g></g><g transform="translate(-278,2) scale(1,1)"><rect fill="#C0C0C0" stroke="none" x="1167" y="47" width="90.525390625" height="39" opacity="0.2"/></g><g transform="translate(-278,2) scale(1,1)"><rect fill="#7acff5" stroke="none" x="1160" y="40" width="90.525390625" height="39"/></g><g transform="translate(-278,2) scale(1,1)"><path fill="none" stroke="#000000" d="M 1160 40 L 1250.525390625 40 L 1250.525390625 79 L 1160 79 L 1160 40 Z Z" stroke-miterlimit="10"/></g><g transform="translate(-278,2) scale(1,1)"><g><path fill="none" stroke="none"/><text fill="#000000" stroke="none" font-family="Arial" font-size="13px" font-style="normal" font-weight="bold" text-decoration="none" x="1169.5" y="58">middleware</text></g></g><g transform="translate(-278,2) scale(1,1)"><path fill="none" stroke="#000000" d="M 1206.5 80 L 1206.5 792" stroke-miterlimit="10" stroke-dasharray="3"/></g><g transform="translate(-278,2) scale(1,1)"><path fill="none" stroke="#000000" d="M 356 128 L 462 128" stroke-miterlimit="10"/></g><g transform="translate(-278,2) scale(1,1)"><path fill="#000000" stroke="none" d="M 451.83732514237585 132.209517756016 L 462 128 L 451.83732514237585 123.79048224398402"/></g><g transform="translate(-278,2) scale(1,1)"><path fill="none" stroke="#000000" d="M 451.83732514237585 132.209517756016 L 462 128 L 451.83732514237585 123.79048224398402 L 451.83732514237585 132.209517756016" stroke-miterlimit="10"/></g><g transform="translate(-278,2) scale(1,1)"><g><path fill="none" stroke="none"/><text fill="#000000" stroke="none" font-family="Arial" font-size="13px" font-style="normal" font-weight="normal" text-decoration="none" x="302.9033203125" y="122">1 : click Management</text></g></g><g transform="translate(-278,2) scale(1,1)"><rect fill="#fff1aa" stroke="none" x="462" y="128" width="13" height="28"/></g><g transform="translate(-278,2) scale(1,1)"><path fill="none" stroke="#000000" d="M 462 128 L 475 128 L 475 156 L 462 156 L 462 128 Z Z" stroke-miterlimit="10"/></g><g transform="translate(-278,2) scale(1,1)"><path fill="none" stroke="#000000" d="M 469 176 L 362 176" stroke-miterlimit="10"/></g><g transform="translate(-278,2) scale(1,1)"><path fill="#000000" stroke="none" d="M 372.16267485762415 171.790482243984 L 362 176 L 372.16267485762415 180.209517756016"/></g><g transform="translate(-278,2) scale(1,1)"><path fill="none" stroke="#000000" d="M 372.16267485762415 171.790482243984 L 362 176 L 372.16267485762415 180.209517756016 L 372.16267485762415 171.790482243984" stroke-miterlimit="10"/></g><g transform="translate(-278,2) scale(1,1)"><g><path fill="none" stroke="none"/><text fill="#000000" stroke="none" font-family="Arial" font-size="13px" font-style="normal" font-weight="normal" text-decoration="none" x="389.3154296875" y="191">2 : show</text></g></g><g transform="translate(-278,2) scale(1,1)"><rect fill="#fff1aa" stroke="none" x="349" y="176" width="13" height="28"/></g><g transform="translate(-278,2) scale(1,1)"><path fill="none" stroke="#000000" d="M 349 176 L 362 176 L 362 204 L 349 204 L 349 176 Z Z" stroke-miterlimit="10"/></g><g transform="translate(-278,2) scale(1,1)"><path fill="none" stroke="#000000" d="M 469 208 L 709 208" stroke-miterlimit="10"/></g><g transform="translate(-278,2) scale(1,1)"><path fill="#000000" stroke="none" d="M 698.8373251423759 212.209517756016 L 709 208 L 698.8373251423758 203.790482243984"/></g><g transform="translate(-278,2) scale(1,1)"><path fill="none" stroke="#000000" d="M 698.8373251423759 212.209517756016 L 709 208 L 698.8373251423758 203.790482243984 L 698.8373251423759 212.209517756016" stroke-miterlimit="10"/></g><g transform="translate(-278,2) scale(1,1)"><g><path fill="none" stroke="none"/><text fill="#000000" stroke="none" font-family="Arial" font-size="13px" font-style="normal" font-weight="normal" text-decoration="none" x="516.114990234375" y="203">3 : dispatch(onGetModal)</text></g></g><g transform="translate(-278,2) scale(1,1)"><rect fill="#fff1aa" stroke="none" x="709" y="208" width="13" height="28"/></g><g transform="translate(-278,2) scale(1,1)"><path fill="none" stroke="#000000" d="M 709 208 L 722 208 L 722 236 L 709 236 L 709 208 Z Z" stroke-miterlimit="10"/></g><g transform="translate(-278,2) scale(1,1)"><path fill="none" stroke="#000000" d="M 716 256 L 853 256" stroke-miterlimit="10"/></g><g transform="translate(-278,2) scale(1,1)"><path fill="#000000" stroke="none" d="M 842.8373251423759 260.209517756016 L 853 256 L 842.8373251423758 251.790482243984"/></g><g transform="translate(-278,2) scale(1,1)"><path fill="none" stroke="#000000" d="M 842.8373251423759 260.209517756016 L 853 256 L 842.8373251423758 251.790482243984 L 842.8373251423759 260.209517756016" stroke-miterlimit="10"/></g><g transform="translate(-278,2) scale(1,1)"><g><path fill="none" stroke="none"/><text fill="#000000" stroke="none" font-family="Arial" font-size="13px" font-style="normal" font-weight="normal" text-decoration="none" x="739.114990234375" y="251">4 : getModalApi</text></g></g><g transform="translate(-278,2) scale(1,1)"><rect fill="#fff1aa" stroke="none" x="853" y="256" width="13" height="28"/></g><g transform="translate(-278,2) scale(1,1)"><path fill="none" stroke="#000000" d="M 853 256 L 866 256 L 866 284 L 853 284 L 853 256 Z Z" stroke-miterlimit="10"/></g><g transform="translate(-278,2) scale(1,1)"><path fill="none" stroke="#000000" d="M 860 304 L 1012 304" stroke-miterlimit="10"/></g><g transform="translate(-278,2) scale(1,1)"><path fill="#000000" stroke="none" d="M 1001.8373251423759 308.209517756016 L 1012 304 L 1001.8373251423758 299.790482243984"/></g><g transform="translate(-278,2) scale(1,1)"><path fill="none" stroke="#000000" d="M 1001.8373251423759 308.209517756016 L 1012 304 L 1001.8373251423758 299.790482243984 L 1001.8373251423759 308.209517756016" stroke-miterlimit="10"/></g><g transform="translate(-278,2) scale(1,1)"><g><path fill="none" stroke="none"/><text fill="#000000" stroke="none" font-family="Arial" font-size="13px" font-style="normal" font-weight="normal" text-decoration="none" x="896.114990234375" y="299">5 : api.get(url)</text></g></g><g transform="translate(-278,2) scale(1,1)"><rect fill="#fff1aa" stroke="none" x="1012" y="304" width="13" height="28"/></g><g transform="translate(-278,2) scale(1,1)"><path fill="none" stroke="#000000" d="M 1012 304 L 1025 304 L 1025 332 L 1012 332 L 1012 304 Z Z" stroke-miterlimit="10"/></g><g transform="translate(-278,2) scale(1,1)"><path fill="none" stroke="#000000" d="M 1019 352 L 1109 352" stroke-miterlimit="10"/></g><g transform="translate(-278,2) scale(1,1)"><path fill="#000000" stroke="none" d="M 1098.837325142376 356.209517756016 L 1109 352 L 1098.837325142376 347.790482243984"/></g><g transform="translate(-278,2) scale(1,1)"><path fill="none" stroke="#000000" d="M 1098.837325142376 356.209517756016 L 1109 352 L 1098.837325142376 347.790482243984 L 1098.837325142376 356.209517756016" stroke-miterlimit="10"/></g><g transform="translate(-278,2) scale(1,1)"><g><path fill="none" stroke="none"/><text fill="#000000" stroke="none" font-family="Arial" font-size="13px" font-style="normal" font-weight="normal" text-decoration="none" x="1034.114990234375" y="347">6 : axios.get(url)</text></g></g><g transform="translate(-278,2) scale(1,1)"><rect fill="#7acff5" stroke="none" x="1109" y="352" width="13" height="28"/></g><g transform="translate(-278,2) scale(1,1)"><path fill="none" stroke="#000000" d="M 1109 352 L 1122 352 L 1122 380 L 1109 380 L 1109 352 Z Z" stroke-miterlimit="10"/></g><g transform="translate(-278,2) scale(1,1)"><path fill="none" stroke="#000000" d="M 1116 408 L 1297 408" stroke-miterlimit="10"/></g><g transform="translate(-278,2) scale(1,1)"><path fill="#000000" stroke="none" d="M 1286.837325142376 412.209517756016 L 1297 408 L 1286.837325142376 403.790482243984"/></g><g transform="translate(-278,2) scale(1,1)"><path fill="none" stroke="#000000" d="M 1286.837325142376 412.209517756016 L 1297 408 L 1286.837325142376 403.790482243984 L 1286.837325142376 412.209517756016" stroke-miterlimit="10"/></g><g transform="translate(-278,2) scale(1,1)"><g><path fill="none" stroke="none"/><text fill="#000000" stroke="none" font-family="Arial" font-size="13px" font-style="normal" font-weight="normal" text-decoration="none" x="1133.594970703125" y="391">7 : get(getAllModals)</text></g></g><g transform="translate(-278,2) scale(1,1)"><rect fill="#7acff5" stroke="none" x="1297" y="408" width="13" height="28"/></g><g transform="translate(-278,2) scale(1,1)"><path fill="none" stroke="#000000" d="M 1297 408 L 1310 408 L 1310 436 L 1297 436 L 1297 408 Z Z" stroke-miterlimit="10"/></g><g transform="translate(-278,2) scale(1,1)"><path fill="none" stroke="#000000" d="M 1304 464 L 1381 464" stroke-miterlimit="10"/></g><g transform="translate(-278,2) scale(1,1)"><path fill="#000000" stroke="none" d="M 1370.837325142376 468.209517756016 L 1381 464 L 1370.837325142376 459.790482243984"/></g><g transform="translate(-278,2) scale(1,1)"><path fill="none" stroke="#000000" d="M 1370.837325142376 468.209517756016 L 1381 464 L 1370.837325142376 459.790482243984 L 1370.837325142376 468.209517756016" stroke-miterlimit="10"/></g><g transform="translate(-278,2) scale(1,1)"><g><path fill="none" stroke="none"/><text fill="#000000" stroke="none" font-family="Arial" font-size="13px" font-style="normal" font-weight="normal" text-decoration="none" x="1298.114990234375" y="447">8 : initialize modal</text></g></g><g transform="translate(-278,2) scale(1,1)"><rect fill="#7acff5" stroke="none" x="1381" y="464" width="13" height="28"/></g><g transform="translate(-278,2) scale(1,1)"><path fill="none" stroke="#000000" d="M 1381 464 L 1394 464 L 1394 492 L 1381 492 L 1381 464 Z Z" stroke-miterlimit="10"/></g><g transform="translate(-278,2) scale(1,1)"><path fill="none" stroke="#000000" d="M 1388 512 L 1474 512" stroke-miterlimit="10"/></g><g transform="translate(-278,2) scale(1,1)"><path fill="#000000" stroke="none" d="M 1463.837325142376 516.209517756016 L 1474 512 L 1463.837325142376 507.790482243984"/></g><g transform="translate(-278,2) scale(1,1)"><path fill="none" stroke="#000000" d="M 1463.837325142376 516.209517756016 L 1474 512 L 1463.837325142376 507.790482243984 L 1463.837325142376 516.209517756016" stroke-miterlimit="10"/></g><g transform="translate(-278,2) scale(1,1)"><g><path fill="none" stroke="none"/><text fill="#000000" stroke="none" font-family="Arial" font-size="13px" font-style="normal" font-weight="normal" text-decoration="none" x="1403.114990234375" y="507">9 : modal.find</text></g></g><g transform="translate(-278,2) scale(1,1)"><rect fill="#38ff38" stroke="none" x="1474" y="512" width="13" height="28"/></g><g transform="translate(-278,2) scale(1,1)"><path fill="none" stroke="#000000" d="M 1474 512 L 1487 512 L 1487 540 L 1474 540 L 1474 512 Z Z" stroke-miterlimit="10"/></g><g transform="translate(-278,2) scale(1,1)"><path fill="none" stroke="#000000" d="M 1304 576 L 722 576" stroke-miterlimit="10"/></g><g transform="translate(-278,2) scale(1,1)"><path fill="#000000" stroke="none" d="M 732.1626748576241 571.790482243984 L 722 576 L 732.1626748576241 580.209517756016"/></g><g transform="translate(-278,2) scale(1,1)"><path fill="none" stroke="#000000" d="M 732.1626748576241 571.790482243984 L 722 576 L 732.1626748576241 580.209517756016 L 732.1626748576241 571.790482243984" stroke-miterlimit="10"/></g><g transform="translate(-278,2) scale(1,1)"><g><path fill="none" stroke="none"/><text fill="#000000" stroke="none" font-family="Arial" font-size="13px" font-style="normal" font-weight="normal" text-decoration="none" x="929.5" y="591">10 : return json(sucess,data)</text></g></g><g transform="translate(-278,2) scale(1,1)"><rect fill="#38ff38" stroke="none" x="709" y="576" width="13" height="28"/></g><g transform="translate(-278,2) scale(1,1)"><path fill="none" stroke="#000000" d="M 709 576 L 722 576 L 722 604 L 709 604 L 709 576 Z Z" stroke-miterlimit="10"/></g><g transform="translate(-278,2) scale(1,1)"><path fill="none" stroke="#000000" d="M 716 616 L 586 616" stroke-miterlimit="10"/></g><g transform="translate(-278,2) scale(1,1)"><path fill="#000000" stroke="none" d="M 596.1626748576241 611.790482243984 L 586 616 L 596.1626748576241 620.209517756016"/></g><g transform="translate(-278,2) scale(1,1)"><path fill="none" stroke="#000000" d="M 596.1626748576241 611.790482243984 L 586 616 L 596.1626748576241 620.209517756016 L 596.1626748576241 611.790482243984" stroke-miterlimit="10"/></g><g transform="translate(-278,2) scale(1,1)"><g><path fill="none" stroke="none"/><text fill="#000000" stroke="none" font-family="Arial" font-size="13px" font-style="normal" font-weight="normal" text-decoration="none" x="625.321044921875" y="631">11 : data</text></g></g><g transform="translate(-278,2) scale(1,1)"><rect fill="#38ff38" stroke="none" x="573" y="616" width="13" height="28"/></g><g transform="translate(-278,2) scale(1,1)"><path fill="none" stroke="#000000" d="M 573 616 L 586 616 L 586 644 L 573 644 L 573 616 Z Z" stroke-miterlimit="10"/></g><g transform="translate(-278,2) scale(1,1)"><path fill="none" stroke="#000000" d="M 1304 688 L 722 688" stroke-miterlimit="10"/></g><g transform="translate(-278,2) scale(1,1)"><path fill="#000000" stroke="none" d="M 732.1626748576241 683.790482243984 L 722 688 L 732.1626748576241 692.209517756016"/></g><g transform="translate(-278,2) scale(1,1)"><path fill="none" stroke="#000000" d="M 732.1626748576241 683.790482243984 L 722 688 L 732.1626748576241 692.209517756016 L 732.1626748576241 683.790482243984" stroke-miterlimit="10"/></g><g transform="translate(-278,2) scale(1,1)"><g><path fill="none" stroke="none"/><text fill="#000000" stroke="none" font-family="Arial" font-size="13px" font-style="normal" font-weight="normal" text-decoration="none" x="931.5" y="703">12 : return message("error")</text></g></g><g transform="translate(-278,2) scale(1,1)"><rect fill="#38ff38" stroke="none" x="709" y="688" width="13" height="28"/></g><g transform="translate(-278,2) scale(1,1)"><path fill="none" stroke="#000000" d="M 709 688 L 722 688 L 722 716 L 709 716 L 709 688 Z Z" stroke-miterlimit="10"/></g><g transform="translate(-278,2) scale(1,1)"><path fill="none" stroke="#000000" d="M 716 728 L 586 728" stroke-miterlimit="10"/></g><g transform="translate(-278,2) scale(1,1)"><path fill="#000000" stroke="none" d="M 596.1626748576241 723.790482243984 L 586 728 L 596.1626748576241 732.209517756016"/></g><g transform="translate(-278,2) scale(1,1)"><path fill="none" stroke="#000000" d="M 596.1626748576241 723.790482243984 L 586 728 L 596.1626748576241 732.209517756016 L 596.1626748576241 723.790482243984" stroke-miterlimit="10"/></g><g transform="translate(-278,2) scale(1,1)"><g><path fill="none" stroke="none"/><text fill="#000000" stroke="none" font-family="Arial" font-size="13px" font-style="normal" font-weight="normal" text-decoration="none" x="623.765869140625" y="743">13 : error</text></g></g><g transform="translate(-278,2) scale(1,1)"><rect fill="#38ff38" stroke="none" x="573" y="728" width="13" height="28"/></g><g transform="translate(-278,2) scale(1,1)"><path fill="none" stroke="#000000" d="M 573 728 L 586 728 L 586 756 L 573 756 L 573 728 Z Z" stroke-miterlimit="10"/></g><g transform="translate(-278,2) scale(1,1)"><path fill="none" stroke="#000000" d="M 344 224 L 1536 224 L 1536 782 L 344 782 L 344 224" stroke-miterlimit="10"/></g><g transform="translate(-278,2) scale(1,1)"><path fill="#ffffff" stroke="none" d="M 344 224 L 344 246 L 453.95166015625 246 L 464.95166015625 235 L 464.95166015625 224 L 344 224"/></g><g transform="translate(-278,2) scale(1,1)"><path fill="none" stroke="#000000" d="M 344 224 L 344 246 L 453.95166015625 246 L 464.95166015625 235 L 464.95166015625 224 L 344 224 L 344 224" stroke-miterlimit="10"/></g><g transform="translate(-278,2) scale(1,1)"><g><path fill="none" stroke="none"/><text fill="#000000" stroke="none" font-family="Arial" font-size="13px" font-style="normal" font-weight="normal" text-decoration="none" x="373.07177734375" y="240">Management</text></g></g><g transform="translate(-278,2) scale(1,1)"><g><path fill="none" stroke="none"/><text fill="#000000" stroke="none" font-family="Arial" font-size="13px" font-style="normal" font-weight="bold" text-decoration="none" x="347.930419921875" y="239.5">opt</text></g></g><g transform="translate(-278,2) scale(1,1)"><g><path fill="none" stroke="none"/><text fill="#000000" stroke="none" font-family="Arial" font-size="13px" font-style="normal" font-weight="normal" text-decoration="none" x="363.5" y="273">[Read]</text></g></g><g transform="translate(-278,2) scale(1,1)"><path fill="none" stroke="#000000" d="M 344 560 L 1504 560 L 1504 760 L 344 760 L 344 560" stroke-miterlimit="10"/></g><g transform="translate(-278,2) scale(1,1)"><path fill="#ffffff" stroke="none" d="M 344 560 L 344 582 L 436.578125 582 L 447.578125 571 L 447.578125 560 L 344 560"/></g><g transform="translate(-278,2) scale(1,1)"><path fill="none" stroke="#000000" d="M 344 560 L 344 582 L 436.578125 582 L 447.578125 571 L 447.578125 560 L 344 560 L 344 560" stroke-miterlimit="10"/></g><g transform="translate(-278,2) scale(1,1)"><g><path fill="none" stroke="none"/><text fill="#000000" stroke="none" font-family="Arial" font-size="13px" font-style="normal" font-weight="normal" text-decoration="none" x="368.72998046875" y="576">checkError</text></g></g><g transform="translate(-278,2) scale(1,1)"><g><path fill="none" stroke="none"/><text fill="#000000" stroke="none" font-family="Arial" font-size="13px" font-style="normal" font-weight="bold" text-decoration="none" x="348.279541015625" y="576">alt</text></g></g><g transform="translate(-278,2) scale(1,1)"><g><path fill="none" stroke="none"/><text fill="#000000" stroke="none" font-family="Arial" font-size="13px" font-style="normal" font-weight="normal" text-decoration="none" x="363.5" y="609">[try]</text></g></g><g transform="translate(-278,2) scale(1,1)"><path fill="none" stroke="#000000" d="M 344 665 L 1504 665" stroke-miterlimit="10" stroke-dasharray="10,3"/></g><g transform="translate(-278,2) scale(1,1)"><g><path fill="none" stroke="none"/><text fill="#000000" stroke="none" font-family="Arial" font-size="13px" font-style="normal" font-weight="normal" text-decoration="none" x="363.5" y="691">[catch]</text></g></g></g></svg>