<svg version="1.1" xmlns="http://www.w3.org/2000/svg" xmlns:xlink="http://www.w3.org/1999/xlink" width="1164" height="606"><defs/><g><g transform="translate(-270,10) scale(1,1)"><path fill="none" stroke="#000000" d="M 288 0 L 1424 0 L 1424 584 L 288 584 L 288 0" stroke-miterlimit="10"/></g><g transform="translate(-270,10) scale(1,1)"><path fill="#ffffff" stroke="none" d="M 288 0 L 288 22 L 357.49169921875 22 L 368.49169921875 11 L 368.49169921875 0 L 288 0"/></g><g transform="translate(-270,10) scale(1,1)"><path fill="none" stroke="#000000" d="M 288 0 L 288 22 L 357.49169921875 22 L 368.49169921875 11 L 368.49169921875 0 L 288 0 L 288 0" stroke-miterlimit="10"/></g><g transform="translate(-270,10) scale(1,1)"><g><path fill="none" stroke="none"/><text fill="#000000" stroke="none" font-family="Arial" font-size="13px" font-style="normal" font-weight="normal" text-decoration="none" x="312.72998046875" y="16">Logout</text></g></g><g transform="translate(-270,10) scale(1,1)"><g><path fill="none" stroke="none"/><text fill="#000000" stroke="none" font-family="Arial" font-size="13px" font-style="normal" font-weight="bold" text-decoration="none" x="292.279541015625" y="16">sd</text></g></g><g transform="translate(-270,10) scale(1,1)"><path fill="#c77575" stroke="none" d="M 325.3831649502841 47.3 C 325.3831649502841 43.82060576 328.2615666724659 41 331.812255859375 41 C 335.3629450462841 41 338.241346768466 43.82060576 338.241346768466 47.3 C 338.241346768466 50.779394239999995 335.3629450462841 53.6 331.812255859375 53.6 C 328.2615666724659 53.6 325.3831649502841 50.779394239999995 325.3831649502841 47.3 Z"/></g><g transform="translate(-270,10) scale(1,1)"><path fill="none" stroke="#000000" d="M 325.3831649502841 47.3 C 325.3831649502841 43.82060576 328.2615666724659 41 331.812255859375 41 C 335.3629450462841 41 338.241346768466 43.82060576 338.241346768466 47.3 C 338.241346768466 50.779394239999995 335.3629450462841 53.6 331.812255859375 53.6 C 328.2615666724659 53.6 325.3831649502841 50.779394239999995 325.3831649502841 47.3 Z" stroke-miterlimit="10"/></g><g transform="translate(-270,10) scale(1,1)"><path fill="none" stroke="#000000" d="M 331.812255859375 53.6 L 331.812255859375 66.4" stroke-miterlimit="10"/></g><g transform="translate(-270,10) scale(1,1)"><path fill="none" stroke="#000000" d="M 325.00498313210227 58.4 L 338.6195285866478 58.4" stroke-miterlimit="10"/></g><g transform="translate(-270,10) scale(1,1)"><path fill="none" stroke="#000000" d="M 331.812255859375 66.4 L 322.35771040482956 79" stroke-miterlimit="10"/></g><g transform="translate(-270,10) scale(1,1)"><path fill="none" stroke="#000000" d="M 331.812255859375 66.4 L 341.2668013139205 79" stroke-miterlimit="10"/></g><g transform="translate(-270,10) scale(1,1)"><g><path fill="none" stroke="none"/><text fill="#000000" stroke="none" font-family="Arial" font-size="13px" font-style="normal" font-weight="bold" text-decoration="none" x="284.5" y="98">Lifeline1: Actor</text></g></g><g transform="translate(-270,10) scale(1,1)"><path fill="none" stroke="#000000" d="M 332.5 105 L 332.5 245" stroke-miterlimit="10" stroke-dasharray="3"/></g><g transform="translate(-270,10) scale(1,1)"><rect fill="#C0C0C0" stroke="none" x="383" y="47" width="123.71728515625" height="39" opacity="0.2"/></g><g transform="translate(-270,10) scale(1,1)"><rect fill="#fff1aa" stroke="none" x="376" y="40" width="123.71728515625" height="39"/></g><g transform="translate(-270,10) scale(1,1)"><path fill="none" stroke="#000000" d="M 376 40 L 499.71728515625 40 L 499.71728515625 79 L 376 79 L 376 40 Z Z" stroke-miterlimit="10"/></g><g transform="translate(-270,10) scale(1,1)"><g><path fill="none" stroke="none"/><text fill="#000000" stroke="none" font-family="Arial" font-size="13px" font-style="normal" font-weight="bold" text-decoration="none" x="385.5" y="58">ProfileDropdown</text></g></g><g transform="translate(-270,10) scale(1,1)"><path fill="none" stroke="#000000" d="M 438.5 80 L 438.5 571" stroke-miterlimit="10" stroke-dasharray="3"/></g><g transform="translate(-270,10) scale(1,1)"><rect fill="#C0C0C0" stroke="none" x="687" y="47" width="71.736328125" height="39" opacity="0.2"/></g><g transform="translate(-270,10) scale(1,1)"><rect fill="#fff1aa" stroke="none" x="680" y="40" width="71.736328125" height="39"/></g><g transform="translate(-270,10) scale(1,1)"><path fill="none" stroke="#000000" d="M 680 40 L 751.736328125 40 L 751.736328125 79 L 680 79 L 680 40 Z Z" stroke-miterlimit="10"/></g><g transform="translate(-270,10) scale(1,1)"><g><path fill="none" stroke="none"/><text fill="#000000" stroke="none" font-family="Arial" font-size="13px" font-style="normal" font-weight="bold" text-decoration="none" x="698.17724609375" y="58">thunk</text></g></g><g transform="translate(-270,10) scale(1,1)"><path fill="none" stroke="#000000" d="M 716.5 80 L 716.5 586" stroke-miterlimit="10" stroke-dasharray="3"/></g><g transform="translate(-270,10) scale(1,1)"><rect fill="#C0C0C0" stroke="none" x="791" y="47" width="151.9453125" height="39" opacity="0.2"/></g><g transform="translate(-270,10) scale(1,1)"><rect fill="#fff1aa" stroke="none" x="784" y="40" width="151.9453125" height="39"/></g><g transform="translate(-270,10) scale(1,1)"><path fill="none" stroke="#000000" d="M 784 40 L 935.9453125 40 L 935.9453125 79 L 784 79 L 784 40 Z Z" stroke-miterlimit="10"/></g><g transform="translate(-270,10) scale(1,1)"><g><path fill="none" stroke="none"/><text fill="#000000" stroke="none" font-family="Arial" font-size="13px" font-style="normal" font-weight="bold" text-decoration="none" x="793.5" y="58">fakebanckend_helper</text></g></g><g transform="translate(-270,10) scale(1,1)"><path fill="none" stroke="#000000" d="M 860.5 80 L 860.5 386" stroke-miterlimit="10" stroke-dasharray="3"/></g><g transform="translate(-270,10) scale(1,1)"><rect fill="#C0C0C0" stroke="none" x="983" y="47" width="84.025390625" height="39" opacity="0.2"/></g><g transform="translate(-270,10) scale(1,1)"><rect fill="#fff1aa" stroke="none" x="976" y="40" width="84.025390625" height="39"/></g><g transform="translate(-270,10) scale(1,1)"><path fill="none" stroke="#000000" d="M 976 40 L 1060.025390625 40 L 1060.025390625 79 L 976 79 L 976 40 Z Z" stroke-miterlimit="10"/></g><g transform="translate(-270,10) scale(1,1)"><g><path fill="none" stroke="none"/><text fill="#000000" stroke="none" font-family="Arial" font-size="13px" font-style="normal" font-weight="bold" text-decoration="none" x="985.5" y="58">api_helper</text></g></g><g transform="translate(-270,10) scale(1,1)"><path fill="none" stroke="#000000" d="M 1019.5 80 L 1019.5 428" stroke-miterlimit="10" stroke-dasharray="3"/></g><g transform="translate(-270,10) scale(1,1)"><rect fill="#C0C0C0" stroke="none" x="1111" y="47" width="71.736328125" height="39" opacity="0.2"/></g><g transform="translate(-270,10) scale(1,1)"><rect fill="#7acff5" stroke="none" x="1104" y="40" width="71.736328125" height="39"/></g><g transform="translate(-270,10) scale(1,1)"><path fill="none" stroke="#000000" d="M 1104 40 L 1175.736328125 40 L 1175.736328125 79 L 1104 79 L 1104 40 Z Z" stroke-miterlimit="10"/></g><g transform="translate(-270,10) scale(1,1)"><g><path fill="none" stroke="none"/><text fill="#000000" stroke="none" font-family="Arial" font-size="13px" font-style="normal" font-weight="bold" text-decoration="none" x="1123.6181640625" y="57.5">route</text></g></g><g transform="translate(-270,10) scale(1,1)"><path fill="none" stroke="#000000" d="M 1140.5 80 L 1140.5 458" stroke-miterlimit="10" stroke-dasharray="3"/></g><g transform="translate(-270,10) scale(1,1)"><rect fill="#C0C0C0" stroke="none" x="1231" y="47" width="78.95361328125" height="39" opacity="0.2"/></g><g transform="translate(-270,10) scale(1,1)"><rect fill="#7acff5" stroke="none" x="1224" y="40" width="78.95361328125" height="39"/></g><g transform="translate(-270,10) scale(1,1)"><path fill="none" stroke="#000000" d="M 1224 40 L 1302.95361328125 40 L 1302.95361328125 79 L 1224 79 L 1224 40 Z Z" stroke-miterlimit="10"/></g><g transform="translate(-270,10) scale(1,1)"><g><path fill="none" stroke="none"/><text fill="#000000" stroke="none" font-family="Arial" font-size="13px" font-style="normal" font-weight="bold" text-decoration="none" x="1233.5" y="58">controller</text></g></g><g transform="translate(-270,10) scale(1,1)"><path fill="none" stroke="#000000" d="M 1264.5 80 L 1264.5 560" stroke-miterlimit="10" stroke-dasharray="3"/></g><g transform="translate(-270,10) scale(1,1)"><rect fill="#C0C0C0" stroke="none" x="599" y="47" width="71.736328125" height="39" opacity="0.2"/></g><g transform="translate(-270,10) scale(1,1)"><rect fill="#fff1aa" stroke="none" x="592" y="40" width="71.736328125" height="39"/></g><g transform="translate(-270,10) scale(1,1)"><path fill="none" stroke="#000000" d="M 592 40 L 663.736328125 40 L 663.736328125 79 L 592 79 L 592 40 Z Z" stroke-miterlimit="10"/></g><g transform="translate(-270,10) scale(1,1)"><g><path fill="none" stroke="none"/><text fill="#000000" stroke="none" font-family="Arial" font-size="13px" font-style="normal" font-weight="bold" text-decoration="none" x="604.023193359375" y="58">reducer</text></g></g><g transform="translate(-270,10) scale(1,1)"><path fill="none" stroke="#000000" d="M 628.5 80 L 628.5 568" stroke-miterlimit="10" stroke-dasharray="3"/></g><g transform="translate(-270,10) scale(1,1)"><path fill="none" stroke="#000000" d="M 368 32 L 1064 32" stroke-miterlimit="10"/></g><g transform="translate(-270,10) scale(1,1)"><path fill="none" stroke="#000000" d="M 1053.837325142376 36.20951775601599 L 1064 32 L 1053.837325142376 27.790482243984012" stroke-miterlimit="10"/></g><g transform="translate(-270,10) scale(1,1)"><path fill="none" stroke="#000000" d="M 378.16267485762415 27.790482243984012 L 368 32 L 378.16267485762415 36.209517756015984" stroke-miterlimit="10"/></g><g transform="translate(-270,10) scale(1,1)"><g><path fill="none" stroke="none"/><text fill="#000000" stroke="none" font-family="Arial" font-size="13px" font-style="normal" font-weight="normal" text-decoration="none" x="661" y="23">Front-end</text></g></g><g transform="translate(-270,10) scale(1,1)"><path fill="none" stroke="#000000" d="M 1080 32 L 1408 32" stroke-miterlimit="10"/></g><g transform="translate(-270,10) scale(1,1)"><path fill="none" stroke="#000000" d="M 1397.837325142376 36.20951775601599 L 1408 32 L 1397.837325142376 27.790482243984012" stroke-miterlimit="10"/></g><g transform="translate(-270,10) scale(1,1)"><path fill="none" stroke="#000000" d="M 1090.162674857624 27.790482243984012 L 1080 32 L 1090.162674857624 36.209517756015984" stroke-miterlimit="10"/></g><g transform="translate(-270,10) scale(1,1)"><g><path fill="none" stroke="none"/><text fill="#000000" stroke="none" font-family="Arial" font-size="13px" font-style="normal" font-weight="normal" text-decoration="none" x="1237" y="23">back-end</text></g></g><g transform="translate(-270,10) scale(1,1)"><rect fill="#C0C0C0" stroke="none" x="519" y="47" width="71.736328125" height="39" opacity="0.2"/></g><g transform="translate(-270,10) scale(1,1)"><rect fill="#ff952b" stroke="none" x="512" y="40" width="71.736328125" height="39"/></g><g transform="translate(-270,10) scale(1,1)"><path fill="none" stroke="#000000" d="M 512 40 L 583.736328125 40 L 583.736328125 79 L 512 79 L 512 40 Z Z" stroke-miterlimit="10"/></g><g transform="translate(-270,10) scale(1,1)"><g><path fill="none" stroke="none"/><text fill="#000000" stroke="none" font-family="Arial" font-size="13px" font-style="normal" font-weight="bold" text-decoration="none" x="523.661376953125" y="58">session</text></g></g><g transform="translate(-270,10) scale(1,1)"><path fill="none" stroke="#000000" d="M 548.5 80 L 548.5 586" stroke-miterlimit="10" stroke-dasharray="3"/></g><g transform="translate(-270,10) scale(1,1)"><rect fill="#C0C0C0" stroke="none" x="1327" y="47" width="71.736328125" height="39" opacity="0.2"/></g><g transform="translate(-270,10) scale(1,1)"><rect fill="#ff952b" stroke="none" x="1320" y="40" width="71.736328125" height="39"/></g><g transform="translate(-270,10) scale(1,1)"><path fill="none" stroke="#000000" d="M 1320 40 L 1391.736328125 40 L 1391.736328125 79 L 1320 79 L 1320 40 Z Z" stroke-miterlimit="10"/></g><g transform="translate(-270,10) scale(1,1)"><g><path fill="none" stroke="none"/><text fill="#000000" stroke="none" font-family="Arial" font-size="13px" font-style="normal" font-weight="bold" text-decoration="none" x="1335.2763671875" y="58">cookie</text></g></g><g transform="translate(-270,10) scale(1,1)"><path fill="none" stroke="#000000" d="M 1356.5 80 L 1356.5 538" stroke-miterlimit="10" stroke-dasharray="3"/></g><g transform="translate(-270,10) scale(1,1)"><path fill="none" stroke="#000000" d="M 332 128 L 431 128" stroke-miterlimit="10"/></g><g transform="translate(-270,10) scale(1,1)"><path fill="#000000" stroke="none" d="M 420.83732514237585 132.209517756016 L 431 128 L 420.83732514237585 123.79048224398402"/></g><g transform="translate(-270,10) scale(1,1)"><path fill="none" stroke="#000000" d="M 420.83732514237585 132.209517756016 L 431 128 L 420.83732514237585 123.79048224398402 L 420.83732514237585 132.209517756016" stroke-miterlimit="10"/></g><g transform="translate(-270,10) scale(1,1)"><g><path fill="none" stroke="none"/><text fill="#000000" stroke="none" font-family="Arial" font-size="13px" font-style="normal" font-weight="normal" text-decoration="none" x="339.5" y="123">1 : click logout</text></g></g><g transform="translate(-270,10) scale(1,1)"><rect fill="#fff1aa" stroke="none" x="431" y="128" width="13" height="28"/></g><g transform="translate(-270,10) scale(1,1)"><path fill="none" stroke="#000000" d="M 431 128 L 444 128 L 444 156 L 431 156 L 431 128 Z Z" stroke-miterlimit="10"/></g><g transform="translate(-270,10) scale(1,1)"><path fill="none" stroke="#000000" d="M 332 176 L 431 176" stroke-miterlimit="10"/></g><g transform="translate(-270,10) scale(1,1)"><path fill="#000000" stroke="none" d="M 420.83732514237585 180.209517756016 L 431 176 L 420.83732514237585 171.790482243984"/></g><g transform="translate(-270,10) scale(1,1)"><path fill="none" stroke="#000000" d="M 420.83732514237585 180.209517756016 L 431 176 L 420.83732514237585 171.790482243984 L 420.83732514237585 180.209517756016" stroke-miterlimit="10"/></g><g transform="translate(-270,10) scale(1,1)"><g><path fill="none" stroke="none"/><text fill="#000000" stroke="none" font-family="Arial" font-size="13px" font-style="normal" font-weight="normal" text-decoration="none" x="303.5" y="170">2 : handleLogoutClick</text></g></g><g transform="translate(-270,10) scale(1,1)"><rect fill="#fff1aa" stroke="none" x="431" y="176" width="13" height="28"/></g><g transform="translate(-270,10) scale(1,1)"><path fill="none" stroke="#000000" d="M 431 176 L 444 176 L 444 204 L 431 204 L 431 176 Z Z" stroke-miterlimit="10"/></g><g transform="translate(-270,10) scale(1,1)"><path fill="none" stroke="#000000" d="M 438 208 L 709 208" stroke-miterlimit="10"/></g><g transform="translate(-270,10) scale(1,1)"><path fill="#000000" stroke="none" d="M 698.8373251423759 212.209517756016 L 709 208 L 698.8373251423758 203.790482243984"/></g><g transform="translate(-270,10) scale(1,1)"><path fill="none" stroke="#000000" d="M 698.8373251423759 212.209517756016 L 709 208 L 698.8373251423758 203.790482243984 L 698.8373251423759 212.209517756016" stroke-miterlimit="10"/></g><g transform="translate(-270,10) scale(1,1)"><g><path fill="none" stroke="none"/><text fill="#000000" stroke="none" font-family="Arial" font-size="13px" font-style="normal" font-weight="normal" text-decoration="none" x="510.99462890625" y="203">3 : dispatch(logoutUser)</text></g></g><g transform="translate(-270,10) scale(1,1)"><rect fill="#fff1aa" stroke="none" x="709" y="208" width="13" height="28"/></g><g transform="translate(-270,10) scale(1,1)"><path fill="none" stroke="#000000" d="M 709 208 L 722 208 L 722 236 L 709 236 L 709 208 Z Z" stroke-miterlimit="10"/></g><g transform="translate(-270,10) scale(1,1)"><path fill="none" stroke="#000000" d="M 716 240 L 746 240 L 746 260 L 722 260" stroke-miterlimit="10"/></g><g transform="translate(-270,10) scale(1,1)"><path fill="#000000" stroke="none" d="M 732.1626748576241 255.790482243984 L 722 260 L 732.1626748576241 264.209517756016"/></g><g transform="translate(-270,10) scale(1,1)"><path fill="none" stroke="#000000" d="M 732.1626748576241 255.790482243984 L 722 260 L 732.1626748576241 264.209517756016 L 732.1626748576241 255.790482243984" stroke-miterlimit="10"/></g><g transform="translate(-270,10) scale(1,1)"><g><path fill="none" stroke="none"/><text fill="#000000" stroke="none" font-family="Arial" font-size="13px" font-style="normal" font-weight="normal" text-decoration="none" x="751.5" y="253">4 : sessionStorage.removeItem</text></g></g><g transform="translate(-270,10) scale(1,1)"><rect fill="#fff1aa" stroke="none" x="709" y="260" width="13" height="28"/></g><g transform="translate(-270,10) scale(1,1)"><path fill="none" stroke="#000000" d="M 709 260 L 722 260 L 722 288 L 709 288 L 709 260 Z Z" stroke-miterlimit="10"/></g><g transform="translate(-270,10) scale(1,1)"><path fill="none" stroke="#000000" d="M 709 272 L 634 272" stroke-miterlimit="10"/></g><g transform="translate(-270,10) scale(1,1)"><path fill="#000000" stroke="none" d="M 644.1626748576241 267.790482243984 L 634 272 L 644.1626748576241 276.209517756016"/></g><g transform="translate(-270,10) scale(1,1)"><path fill="none" stroke="#000000" d="M 644.1626748576241 267.790482243984 L 634 272 L 644.1626748576241 276.209517756016 L 644.1626748576241 267.790482243984" stroke-miterlimit="10"/></g><g transform="translate(-270,10) scale(1,1)"><g><path fill="none" stroke="none"/><text fill="#000000" stroke="none" font-family="Arial" font-size="13px" font-style="normal" font-weight="normal" text-decoration="none" x="503.5" y="265">5 : logoutUserSuccess(state,action)</text></g></g><g transform="translate(-270,10) scale(1,1)"><rect fill="#ffffff" stroke="none" x="621" y="272" width="13" height="28"/></g><g transform="translate(-270,10) scale(1,1)"><path fill="none" stroke="#000000" d="M 621 272 L 634 272 L 634 300 L 621 300 L 621 272 Z Z" stroke-miterlimit="10"/></g><g transform="translate(-270,10) scale(1,1)"><path fill="none" stroke="#000000" d="M 716 296 L 853 296" stroke-miterlimit="10"/></g><g transform="translate(-270,10) scale(1,1)"><path fill="#000000" stroke="none" d="M 842.8373251423759 300.209517756016 L 853 296 L 842.8373251423758 291.790482243984"/></g><g transform="translate(-270,10) scale(1,1)"><path fill="none" stroke="#000000" d="M 842.8373251423759 300.209517756016 L 853 296 L 842.8373251423758 291.790482243984 L 842.8373251423759 300.209517756016" stroke-miterlimit="10"/></g><g transform="translate(-270,10) scale(1,1)"><g><path fill="none" stroke="none"/><text fill="#000000" stroke="none" font-family="Arial" font-size="13px" font-style="normal" font-weight="normal" text-decoration="none" x="736.5" y="291">6 : getJwtLogout</text></g></g><g transform="translate(-270,10) scale(1,1)"><rect fill="#fff1aa" stroke="none" x="853" y="296" width="13" height="28"/></g><g transform="translate(-270,10) scale(1,1)"><path fill="none" stroke="#000000" d="M 853 296 L 866 296 L 866 324 L 853 324 L 853 296 Z Z" stroke-miterlimit="10"/></g><g transform="translate(-270,10) scale(1,1)"><path fill="none" stroke="#000000" d="M 860 344 L 1012 344" stroke-miterlimit="10"/></g><g transform="translate(-270,10) scale(1,1)"><path fill="#000000" stroke="none" d="M 1001.8373251423759 348.209517756016 L 1012 344 L 1001.8373251423758 339.790482243984"/></g><g transform="translate(-270,10) scale(1,1)"><path fill="none" stroke="#000000" d="M 1001.8373251423759 348.209517756016 L 1012 344 L 1001.8373251423758 339.790482243984 L 1001.8373251423759 348.209517756016" stroke-miterlimit="10"/></g><g transform="translate(-270,10) scale(1,1)"><g><path fill="none" stroke="none"/><text fill="#000000" stroke="none" font-family="Arial" font-size="13px" font-style="normal" font-weight="normal" text-decoration="none" x="896.7490234375" y="339">7 : api.get(url.GET_FAKE_LOGOUT)</text></g></g><g transform="translate(-270,10) scale(1,1)"><rect fill="#fff1aa" stroke="none" x="1012" y="344" width="13" height="28"/></g><g transform="translate(-270,10) scale(1,1)"><path fill="none" stroke="#000000" d="M 1012 344 L 1025 344 L 1025 372 L 1012 372 L 1012 344 Z Z" stroke-miterlimit="10"/></g><g transform="translate(-270,10) scale(1,1)"><path fill="none" stroke="#000000" d="M 1019 386 L 1133 386" stroke-miterlimit="10"/></g><g transform="translate(-270,10) scale(1,1)"><path fill="#000000" stroke="none" d="M 1122.837325142376 390.209517756016 L 1133 386 L 1122.837325142376 381.790482243984"/></g><g transform="translate(-270,10) scale(1,1)"><path fill="none" stroke="#000000" d="M 1122.837325142376 390.209517756016 L 1133 386 L 1122.837325142376 381.790482243984 L 1122.837325142376 390.209517756016" stroke-miterlimit="10"/></g><g transform="translate(-270,10) scale(1,1)"><g><path fill="none" stroke="none"/><text fill="#000000" stroke="none" font-family="Arial" font-size="13px" font-style="normal" font-weight="normal" text-decoration="none" x="1030.5" y="379">8 : axios.get(requestUrl, config)</text></g></g><g transform="translate(-270,10) scale(1,1)"><rect fill="#7acff5" stroke="none" x="1133" y="386" width="13" height="28"/></g><g transform="translate(-270,10) scale(1,1)"><path fill="none" stroke="#000000" d="M 1133 386 L 1146 386 L 1146 414 L 1133 414 L 1133 386 Z Z" stroke-miterlimit="10"/></g><g transform="translate(-270,10) scale(1,1)"><path fill="none" stroke="#000000" d="M 1140 416 L 1257 416" stroke-miterlimit="10"/></g><g transform="translate(-270,10) scale(1,1)"><path fill="#000000" stroke="none" d="M 1246.837325142376 420.209517756016 L 1257 416 L 1246.837325142376 411.790482243984"/></g><g transform="translate(-270,10) scale(1,1)"><path fill="none" stroke="#000000" d="M 1246.837325142376 420.209517756016 L 1257 416 L 1246.837325142376 411.790482243984 L 1246.837325142376 420.209517756016" stroke-miterlimit="10"/></g><g transform="translate(-270,10) scale(1,1)"><g><path fill="none" stroke="none"/><text fill="#000000" stroke="none" font-family="Arial" font-size="13px" font-style="normal" font-weight="normal" text-decoration="none" x="1168.25634765625" y="411">9 : require</text></g></g><g transform="translate(-270,10) scale(1,1)"><rect fill="#7acff5" stroke="none" x="1257" y="416" width="13" height="28"/></g><g transform="translate(-270,10) scale(1,1)"><path fill="none" stroke="#000000" d="M 1257 416 L 1270 416 L 1270 444 L 1257 444 L 1257 416 Z Z" stroke-miterlimit="10"/></g><g transform="translate(-270,10) scale(1,1)"><path fill="none" stroke="#000000" d="M 1264 464 L 1349 464" stroke-miterlimit="10"/></g><g transform="translate(-270,10) scale(1,1)"><path fill="#000000" stroke="none" d="M 1338.837325142376 468.209517756016 L 1349 464 L 1338.837325142376 459.790482243984"/></g><g transform="translate(-270,10) scale(1,1)"><path fill="none" stroke="#000000" d="M 1338.837325142376 468.209517756016 L 1349 464 L 1338.837325142376 459.790482243984 L 1338.837325142376 468.209517756016" stroke-miterlimit="10"/></g><g transform="translate(-270,10) scale(1,1)"><g><path fill="none" stroke="none"/><text fill="#000000" stroke="none" font-family="Arial" font-size="13px" font-style="normal" font-weight="normal" text-decoration="none" x="1259.5" y="459">10 : clearCookie</text></g></g><g transform="translate(-270,10) scale(1,1)"><rect fill="#7acff5" stroke="none" x="1349" y="464" width="13" height="28"/></g><g transform="translate(-270,10) scale(1,1)"><path fill="none" stroke="#000000" d="M 1349 464 L 1362 464 L 1362 492 L 1349 492 L 1349 464 Z Z" stroke-miterlimit="10"/></g><g transform="translate(-270,10) scale(1,1)"><path fill="none" stroke="#000000" d="M 1356 496 L 1270 496" stroke-miterlimit="10"/></g><g transform="translate(-270,10) scale(1,1)"><path fill="#000000" stroke="none" d="M 1280.162674857624 491.790482243984 L 1270 496 L 1280.162674857624 500.209517756016"/></g><g transform="translate(-270,10) scale(1,1)"><path fill="none" stroke="#000000" d="M 1280.162674857624 491.790482243984 L 1270 496 L 1280.162674857624 500.209517756016 L 1280.162674857624 491.790482243984" stroke-miterlimit="10"/></g><g transform="translate(-270,10) scale(1,1)"><g><path fill="none" stroke="none"/><text fill="#000000" stroke="none" font-family="Arial" font-size="13px" font-style="normal" font-weight="normal" text-decoration="none" x="1268.982421875" y="511">11 : status(OK)</text></g></g><g transform="translate(-270,10) scale(1,1)"><rect fill="#7acff5" stroke="none" x="1257" y="496" width="13" height="28"/></g><g transform="translate(-270,10) scale(1,1)"><path fill="none" stroke="#000000" d="M 1257 496 L 1270 496 L 1270 524 L 1257 524 L 1257 496 Z Z" stroke-miterlimit="10"/></g><g transform="translate(-270,10) scale(1,1)"><path fill="none" stroke="#000000" d="M 438 529 L 709 529" stroke-miterlimit="10"/></g><g transform="translate(-270,10) scale(1,1)"><path fill="#000000" stroke="none" d="M 698.8373251423759 533.209517756016 L 709 529 L 698.8373251423758 524.790482243984"/></g><g transform="translate(-270,10) scale(1,1)"><path fill="none" stroke="#000000" d="M 698.8373251423759 533.209517756016 L 709 529 L 698.8373251423758 524.790482243984 L 698.8373251423759 533.209517756016" stroke-miterlimit="10"/></g><g transform="translate(-270,10) scale(1,1)"><g><path fill="none" stroke="none"/><text fill="#000000" stroke="none" font-family="Arial" font-size="13px" font-style="normal" font-weight="normal" text-decoration="none" x="497.5" y="524">12 : dispatch(endSession)</text></g></g><g transform="translate(-270,10) scale(1,1)"><rect fill="#fff1aa" stroke="none" x="709" y="529" width="13" height="28"/></g><g transform="translate(-270,10) scale(1,1)"><path fill="none" stroke="#000000" d="M 709 529 L 722 529 L 722 557 L 709 557 L 709 529 Z Z" stroke-miterlimit="10"/></g><g transform="translate(-270,10) scale(1,1)"><path fill="none" stroke="#000000" d="M 709 544 L 554 544" stroke-miterlimit="10"/></g><g transform="translate(-270,10) scale(1,1)"><path fill="#000000" stroke="none" d="M 564.1626748576241 539.790482243984 L 554 544 L 564.1626748576241 548.209517756016"/></g><g transform="translate(-270,10) scale(1,1)"><path fill="none" stroke="#000000" d="M 564.1626748576241 539.790482243984 L 554 544 L 564.1626748576241 548.209517756016 L 564.1626748576241 539.790482243984" stroke-miterlimit="10"/></g><g transform="translate(-270,10) scale(1,1)"><g><path fill="none" stroke="none"/><text fill="#000000" stroke="none" font-family="Arial" font-size="13px" font-style="normal" font-weight="normal" text-decoration="none" x="558.5" y="559">13 : sessionEnded(state)</text></g></g><g transform="translate(-270,10) scale(1,1)"><rect fill="#ffffff" stroke="none" x="541" y="544" width="13" height="28"/></g><g transform="translate(-270,10) scale(1,1)"><path fill="none" stroke="#000000" d="M 541 544 L 554 544 L 554 572 L 541 572 L 541 544 Z Z" stroke-miterlimit="10"/></g></g></svg>