<svg version="1.1" xmlns="http://www.w3.org/2000/svg" xmlns:xlink="http://www.w3.org/1999/xlink" width="1316" height="1788"><defs/><g><g transform="translate(-278,2) scale(1,1)"><path fill="none" stroke="#000000" d="M 288 8 L 1584 8 L 1584 1776 L 288 1776 L 288 8" stroke-miterlimit="10"/></g><g transform="translate(-278,2) scale(1,1)"><path fill="#ffffff" stroke="none" d="M 288 8 L 288 30 L 382.0380859375 30 L 393.0380859375 19 L 393.0380859375 8 L 288 8"/></g><g transform="translate(-278,2) scale(1,1)"><path fill="none" stroke="#000000" d="M 288 8 L 288 30 L 382.0380859375 30 L 393.0380859375 19 L 393.0380859375 8 L 288 8 L 288 8" stroke-miterlimit="10"/></g><g transform="translate(-278,2) scale(1,1)"><g><path fill="none" stroke="none"/><text fill="#000000" stroke="none" font-family="Arial" font-size="13px" font-style="normal" font-weight="normal" text-decoration="none" x="312.72998046875" y="24">Notification</text></g></g><g transform="translate(-278,2) scale(1,1)"><g><path fill="none" stroke="none"/><text fill="#000000" stroke="none" font-family="Arial" font-size="13px" font-style="normal" font-weight="bold" text-decoration="none" x="292.279541015625" y="24">sd</text></g></g><g transform="translate(-278,2) scale(1,1)"><path fill="#c77575" stroke="none" d="M 349.3831649502841 47.3 C 349.3831649502841 43.82060576 352.2615666724659 41 355.812255859375 41 C 359.3629450462841 41 362.241346768466 43.82060576 362.241346768466 47.3 C 362.241346768466 50.779394239999995 359.3629450462841 53.6 355.812255859375 53.6 C 352.2615666724659 53.6 349.3831649502841 50.779394239999995 349.3831649502841 47.3 Z"/></g><g transform="translate(-278,2) scale(1,1)"><path fill="none" stroke="#000000" d="M 349.3831649502841 47.3 C 349.3831649502841 43.82060576 352.2615666724659 41 355.812255859375 41 C 359.3629450462841 41 362.241346768466 43.82060576 362.241346768466 47.3 C 362.241346768466 50.779394239999995 359.3629450462841 53.6 355.812255859375 53.6 C 352.2615666724659 53.6 349.3831649502841 50.779394239999995 349.3831649502841 47.3 Z" stroke-miterlimit="10"/></g><g transform="translate(-278,2) scale(1,1)"><path fill="none" stroke="#000000" d="M 355.812255859375 53.6 L 355.812255859375 66.4" stroke-miterlimit="10"/></g><g transform="translate(-278,2) scale(1,1)"><path fill="none" stroke="#000000" d="M 349.00498313210227 58.4 L 362.6195285866478 58.4" stroke-miterlimit="10"/></g><g transform="translate(-278,2) scale(1,1)"><path fill="none" stroke="#000000" d="M 355.812255859375 66.4 L 346.35771040482956 79" stroke-miterlimit="10"/></g><g transform="translate(-278,2) scale(1,1)"><path fill="none" stroke="#000000" d="M 355.812255859375 66.4 L 365.2668013139205 79" stroke-miterlimit="10"/></g><g transform="translate(-278,2) scale(1,1)"><g><path fill="none" stroke="none"/><text fill="#000000" stroke="none" font-family="Arial" font-size="13px" font-style="normal" font-weight="bold" text-decoration="none" x="314.647705078125" y="98">Admin: Actor</text></g></g><g transform="translate(-278,2) scale(1,1)"><path fill="none" stroke="#000000" d="M 356.5 105 L 356.5 1768" stroke-miterlimit="10" stroke-dasharray="3"/></g><g transform="translate(-278,2) scale(1,1)"><rect fill="#C0C0C0" stroke="none" x="423" y="47" width="111.44091796875" height="39" opacity="0.2"/></g><g transform="translate(-278,2) scale(1,1)"><rect fill="#fff1aa" stroke="none" x="416" y="40" width="111.44091796875" height="39"/></g><g transform="translate(-278,2) scale(1,1)"><path fill="none" stroke="#000000" d="M 416 40 L 527.44091796875 40 L 527.44091796875 79 L 416 79 L 416 40 Z Z" stroke-miterlimit="10"/></g><g transform="translate(-278,2) scale(1,1)"><g><path fill="none" stroke="none"/><text fill="#000000" stroke="none" font-family="Arial" font-size="13px" font-style="normal" font-weight="bold" text-decoration="none" x="425.5" y="58">frmNotification</text></g></g><g transform="translate(-278,2) scale(1,1)"><path fill="none" stroke="#000000" d="M 472.5 80 L 472.5 1768" stroke-miterlimit="10" stroke-dasharray="3"/></g><g transform="translate(-278,2) scale(1,1)"><rect fill="#C0C0C0" stroke="none" x="687" y="47" width="71.736328125" height="39" opacity="0.2"/></g><g transform="translate(-278,2) scale(1,1)"><rect fill="#fff1aa" stroke="none" x="680" y="40" width="71.736328125" height="39"/></g><g transform="translate(-278,2) scale(1,1)"><path fill="none" stroke="#000000" d="M 680 40 L 751.736328125 40 L 751.736328125 79 L 680 79 L 680 40 Z Z" stroke-miterlimit="10"/></g><g transform="translate(-278,2) scale(1,1)"><g><path fill="none" stroke="none"/><text fill="#000000" stroke="none" font-family="Arial" font-size="13px" font-style="normal" font-weight="bold" text-decoration="none" x="698.17724609375" y="58">thunk</text></g></g><g transform="translate(-278,2) scale(1,1)"><path fill="none" stroke="#000000" d="M 716.5 80 L 716.5 1760" stroke-miterlimit="10" stroke-dasharray="3"/></g><g transform="translate(-278,2) scale(1,1)"><rect fill="#C0C0C0" stroke="none" x="791" y="47" width="151.9453125" height="39" opacity="0.2"/></g><g transform="translate(-278,2) scale(1,1)"><rect fill="#fff1aa" stroke="none" x="784" y="40" width="151.9453125" height="39"/></g><g transform="translate(-278,2) scale(1,1)"><path fill="none" stroke="#000000" d="M 784 40 L 935.9453125 40 L 935.9453125 79 L 784 79 L 784 40 Z Z" stroke-miterlimit="10"/></g><g transform="translate(-278,2) scale(1,1)"><g><path fill="none" stroke="none"/><text fill="#000000" stroke="none" font-family="Arial" font-size="13px" font-style="normal" font-weight="bold" text-decoration="none" x="793.5" y="58">fakebanckend_helper</text></g></g><g transform="translate(-278,2) scale(1,1)"><path fill="none" stroke="#000000" d="M 860.5 80 L 860.5 1760" stroke-miterlimit="10" stroke-dasharray="3"/></g><g transform="translate(-278,2) scale(1,1)"><rect fill="#C0C0C0" stroke="none" x="983" y="47" width="84.025390625" height="39" opacity="0.2"/></g><g transform="translate(-278,2) scale(1,1)"><rect fill="#fff1aa" stroke="none" x="976" y="40" width="84.025390625" height="39"/></g><g transform="translate(-278,2) scale(1,1)"><path fill="none" stroke="#000000" d="M 976 40 L 1060.025390625 40 L 1060.025390625 79 L 976 79 L 976 40 Z Z" stroke-miterlimit="10"/></g><g transform="translate(-278,2) scale(1,1)"><g><path fill="none" stroke="none"/><text fill="#000000" stroke="none" font-family="Arial" font-size="13px" font-style="normal" font-weight="bold" text-decoration="none" x="985.5" y="58">api_helper</text></g></g><g transform="translate(-278,2) scale(1,1)"><path fill="none" stroke="#000000" d="M 1019.5 80 L 1019.5 1760" stroke-miterlimit="10" stroke-dasharray="3"/></g><g transform="translate(-278,2) scale(1,1)"><rect fill="#C0C0C0" stroke="none" x="1087" y="47" width="71.736328125" height="39" opacity="0.2"/></g><g transform="translate(-278,2) scale(1,1)"><rect fill="#7acff5" stroke="none" x="1080" y="40" width="71.736328125" height="39"/></g><g transform="translate(-278,2) scale(1,1)"><path fill="none" stroke="#000000" d="M 1080 40 L 1151.736328125 40 L 1151.736328125 79 L 1080 79 L 1080 40 Z Z" stroke-miterlimit="10"/></g><g transform="translate(-278,2) scale(1,1)"><g><path fill="none" stroke="none"/><text fill="#000000" stroke="none" font-family="Arial" font-size="13px" font-style="normal" font-weight="bold" text-decoration="none" x="1099.6181640625" y="57.5">route</text></g></g><g transform="translate(-278,2) scale(1,1)"><path fill="none" stroke="#000000" d="M 1116.5 80 L 1116.5 1768" stroke-miterlimit="10" stroke-dasharray="3"/></g><g transform="translate(-278,2) scale(1,1)"><rect fill="#C0C0C0" stroke="none" x="1271" y="47" width="78.95361328125" height="39" opacity="0.2"/></g><g transform="translate(-278,2) scale(1,1)"><rect fill="#7acff5" stroke="none" x="1264" y="40" width="78.95361328125" height="39"/></g><g transform="translate(-278,2) scale(1,1)"><path fill="none" stroke="#000000" d="M 1264 40 L 1342.95361328125 40 L 1342.95361328125 79 L 1264 79 L 1264 40 Z Z" stroke-miterlimit="10"/></g><g transform="translate(-278,2) scale(1,1)"><g><path fill="none" stroke="none"/><text fill="#000000" stroke="none" font-family="Arial" font-size="13px" font-style="normal" font-weight="bold" text-decoration="none" x="1273.5" y="58">controller</text></g></g><g transform="translate(-278,2) scale(1,1)"><path fill="none" stroke="#000000" d="M 1304.5 80 L 1304.5 1760" stroke-miterlimit="10" stroke-dasharray="3"/></g><g transform="translate(-278,2) scale(1,1)"><rect fill="#C0C0C0" stroke="none" x="1351" y="47" width="71.736328125" height="39" opacity="0.2"/></g><g transform="translate(-278,2) scale(1,1)"><rect fill="#7acff5" stroke="none" x="1344" y="40" width="71.736328125" height="39"/></g><g transform="translate(-278,2) scale(1,1)"><path fill="none" stroke="#000000" d="M 1344 40 L 1415.736328125 40 L 1415.736328125 79 L 1344 79 L 1344 40 Z Z" stroke-miterlimit="10"/></g><g transform="translate(-278,2) scale(1,1)"><g><path fill="none" stroke="none"/><text fill="#000000" stroke="none" font-family="Arial" font-size="13px" font-style="normal" font-weight="bold" text-decoration="none" x="1360.726806640625" y="58">model</text></g></g><g transform="translate(-278,2) scale(1,1)"><path fill="none" stroke="#000000" d="M 1380.5 80 L 1380.5 1760" stroke-miterlimit="10" stroke-dasharray="3"/></g><g transform="translate(-278,2) scale(1,1)"><rect fill="#C0C0C0" stroke="none" x="1447" y="47" width="81.09912109375" height="39" opacity="0.2"/></g><g transform="translate(-278,2) scale(1,1)"><rect fill="#8cc86e" stroke="none" x="1440" y="40" width="81.09912109375" height="39"/></g><g transform="translate(-278,2) scale(1,1)"><path fill="none" stroke="#000000" d="M 1440 40 L 1521.09912109375 40 L 1521.09912109375 79 L 1440 79 L 1440 40 Z Z" stroke-miterlimit="10"/></g><g transform="translate(-278,2) scale(1,1)"><g><path fill="none" stroke="none"/><text fill="#000000" stroke="none" font-family="Arial" font-size="13px" font-style="normal" font-weight="bold" text-decoration="none" x="1449.5" y="58">mongoDB</text></g></g><g transform="translate(-278,2) scale(1,1)"><path fill="none" stroke="#000000" d="M 1481.5 80 L 1481.5 1760" stroke-miterlimit="10" stroke-dasharray="3"/></g><g transform="translate(-278,2) scale(1,1)"><rect fill="#C0C0C0" stroke="none" x="551" y="47" width="71.736328125" height="39" opacity="0.2"/></g><g transform="translate(-278,2) scale(1,1)"><rect fill="#fff1aa" stroke="none" x="544" y="40" width="71.736328125" height="39"/></g><g transform="translate(-278,2) scale(1,1)"><path fill="none" stroke="#000000" d="M 544 40 L 615.736328125 40 L 615.736328125 79 L 544 79 L 544 40 Z Z" stroke-miterlimit="10"/></g><g transform="translate(-278,2) scale(1,1)"><g><path fill="none" stroke="none"/><text fill="#000000" stroke="none" font-family="Arial" font-size="13px" font-style="normal" font-weight="bold" text-decoration="none" x="556.023193359375" y="58">reducer</text></g></g><g transform="translate(-278,2) scale(1,1)"><path fill="none" stroke="#000000" d="M 580.5 80 L 580.5 1760" stroke-miterlimit="10" stroke-dasharray="3"/></g><g transform="translate(-278,2) scale(1,1)"><path fill="none" stroke="#000000" d="M 368 32 L 1064 32" stroke-miterlimit="10"/></g><g transform="translate(-278,2) scale(1,1)"><path fill="none" stroke="#000000" d="M 1053.837325142376 36.20951775601599 L 1064 32 L 1053.837325142376 27.790482243984012" stroke-miterlimit="10"/></g><g transform="translate(-278,2) scale(1,1)"><path fill="none" stroke="#000000" d="M 378.16267485762415 27.790482243984012 L 368 32 L 378.16267485762415 36.209517756015984" stroke-miterlimit="10"/></g><g transform="translate(-278,2) scale(1,1)"><g><path fill="none" stroke="none"/><text fill="#000000" stroke="none" font-family="Arial" font-size="13px" font-style="normal" font-weight="normal" text-decoration="none" x="661" y="23">Front-end</text></g></g><g transform="translate(-278,2) scale(1,1)"><path fill="none" stroke="#000000" d="M 1080 32 L 1432 32" stroke-miterlimit="10"/></g><g transform="translate(-278,2) scale(1,1)"><path fill="none" stroke="#000000" d="M 1421.837325142376 36.20951775601599 L 1432 32 L 1421.837325142376 27.790482243984012" stroke-miterlimit="10"/></g><g transform="translate(-278,2) scale(1,1)"><path fill="none" stroke="#000000" d="M 1090.162674857624 27.790482243984012 L 1080 32 L 1090.162674857624 36.209517756015984" stroke-miterlimit="10"/></g><g transform="translate(-278,2) scale(1,1)"><g><path fill="none" stroke="none"/><text fill="#000000" stroke="none" font-family="Arial" font-size="13px" font-style="normal" font-weight="normal" text-decoration="none" x="1237" y="23">back-end</text></g></g><g transform="translate(-278,2) scale(1,1)"><path fill="none" stroke="#000000" d="M 1440 32 L 1528 32" stroke-miterlimit="10"/></g><g transform="translate(-278,2) scale(1,1)"><path fill="none" stroke="#000000" d="M 1517.837325142376 36.20951775601599 L 1528 32 L 1517.837325142376 27.790482243984012" stroke-miterlimit="10"/></g><g transform="translate(-278,2) scale(1,1)"><path fill="none" stroke="#000000" d="M 1450.162674857624 27.790482243984012 L 1440 32 L 1450.162674857624 36.209517756015984" stroke-miterlimit="10"/></g><g transform="translate(-278,2) scale(1,1)"><g><path fill="none" stroke="none"/><text fill="#000000" stroke="none" font-family="Arial" font-size="13px" font-style="normal" font-weight="normal" text-decoration="none" x="1453" y="23">database</text></g></g><g transform="translate(-278,2) scale(1,1)"><rect fill="#C0C0C0" stroke="none" x="1167" y="47" width="90.525390625" height="39" opacity="0.2"/></g><g transform="translate(-278,2) scale(1,1)"><rect fill="#7acff5" stroke="none" x="1160" y="40" width="90.525390625" height="39"/></g><g transform="translate(-278,2) scale(1,1)"><path fill="none" stroke="#000000" d="M 1160 40 L 1250.525390625 40 L 1250.525390625 79 L 1160 79 L 1160 40 Z Z" stroke-miterlimit="10"/></g><g transform="translate(-278,2) scale(1,1)"><g><path fill="none" stroke="none"/><text fill="#000000" stroke="none" font-family="Arial" font-size="13px" font-style="normal" font-weight="bold" text-decoration="none" x="1169.5" y="58">middleware</text></g></g><g transform="translate(-278,2) scale(1,1)"><path fill="none" stroke="#000000" d="M 1206.5 80 L 1206.5 1760" stroke-miterlimit="10" stroke-dasharray="3"/></g><g transform="translate(-278,2) scale(1,1)"><rect fill="#ffffff" stroke="none" x="1056" y="1392" width="169.5888671875" height="22"/></g><g transform="translate(-278,2) scale(1,1)"><path fill="none" stroke="#000000" d="M 1056 1392 L 1225.5888671875 1392 L 1225.5888671875 1414 L 1056 1414 L 1056 1392 Z Z" stroke-miterlimit="10"/></g><g transform="translate(-278,2) scale(1,1)"><path fill="none" stroke="#000000" d="M 1088.39453125 1392 L 1088.39453125 1414" stroke-miterlimit="10"/></g><g transform="translate(-278,2) scale(1,1)"><g><path fill="none" stroke="none"/><text fill="#000000" stroke="none" font-family="Arial" font-size="13px" font-style="normal" font-weight="normal" text-decoration="none" x="1092.89453125" y="1408">AuthenticateAuthorize</text></g></g><g transform="translate(-278,2) scale(1,1)"><g><path fill="none" stroke="none"/><text fill="#000000" stroke="none" font-family="Arial" font-size="13px" font-style="normal" font-weight="bold" text-decoration="none" x="1061" y="1408">link</text></g></g><g transform="translate(-278,2) scale(1,1)"><path fill="none" stroke="#000000" d="M 356 128 L 465 128" stroke-miterlimit="10"/></g><g transform="translate(-278,2) scale(1,1)"><path fill="#000000" stroke="none" d="M 454.83732514237585 132.209517756016 L 465 128 L 454.83732514237585 123.79048224398402"/></g><g transform="translate(-278,2) scale(1,1)"><path fill="none" stroke="#000000" d="M 454.83732514237585 132.209517756016 L 465 128 L 454.83732514237585 123.79048224398402 L 454.83732514237585 132.209517756016" stroke-miterlimit="10"/></g><g transform="translate(-278,2) scale(1,1)"><g><path fill="none" stroke="none"/><text fill="#000000" stroke="none" font-family="Arial" font-size="13px" font-style="normal" font-weight="normal" text-decoration="none" x="303.9033203125" y="122">1 : click Management</text></g></g><g transform="translate(-278,2) scale(1,1)"><rect fill="#fff1aa" stroke="none" x="465" y="128" width="13" height="28"/></g><g transform="translate(-278,2) scale(1,1)"><path fill="none" stroke="#000000" d="M 465 128 L 478 128 L 478 156 L 465 156 L 465 128 Z Z" stroke-miterlimit="10"/></g><g transform="translate(-278,2) scale(1,1)"><path fill="none" stroke="#000000" d="M 472 176 L 362 176" stroke-miterlimit="10"/></g><g transform="translate(-278,2) scale(1,1)"><path fill="#000000" stroke="none" d="M 372.16267485762415 171.790482243984 L 362 176 L 372.16267485762415 180.209517756016"/></g><g transform="translate(-278,2) scale(1,1)"><path fill="none" stroke="#000000" d="M 372.16267485762415 171.790482243984 L 362 176 L 372.16267485762415 180.209517756016 L 372.16267485762415 171.790482243984" stroke-miterlimit="10"/></g><g transform="translate(-278,2) scale(1,1)"><g><path fill="none" stroke="none"/><text fill="#000000" stroke="none" font-family="Arial" font-size="13px" font-style="normal" font-weight="normal" text-decoration="none" x="391.3154296875" y="191">2 : show</text></g></g><g transform="translate(-278,2) scale(1,1)"><rect fill="#fff1aa" stroke="none" x="349" y="176" width="13" height="28"/></g><g transform="translate(-278,2) scale(1,1)"><path fill="none" stroke="#000000" d="M 349 176 L 362 176 L 362 204 L 349 204 L 349 176 Z Z" stroke-miterlimit="10"/></g><g transform="translate(-278,2) scale(1,1)"><path fill="none" stroke="#000000" d="M 472 288 L 709 288" stroke-miterlimit="10"/></g><g transform="translate(-278,2) scale(1,1)"><path fill="#000000" stroke="none" d="M 698.8373251423759 292.209517756016 L 709 288 L 698.8373251423758 283.790482243984"/></g><g transform="translate(-278,2) scale(1,1)"><path fill="none" stroke="#000000" d="M 698.8373251423759 292.209517756016 L 709 288 L 698.8373251423758 283.790482243984 L 698.8373251423759 292.209517756016" stroke-miterlimit="10"/></g><g transform="translate(-278,2) scale(1,1)"><g><path fill="none" stroke="none"/><text fill="#000000" stroke="none" font-family="Arial" font-size="13px" font-style="normal" font-weight="normal" text-decoration="none" x="517.114990234375" y="283">3 : dispatch(onGetModal)</text></g></g><g transform="translate(-278,2) scale(1,1)"><rect fill="#fff1aa" stroke="none" x="709" y="288" width="13" height="28"/></g><g transform="translate(-278,2) scale(1,1)"><path fill="none" stroke="#000000" d="M 709 288 L 722 288 L 722 316 L 709 316 L 709 288 Z Z" stroke-miterlimit="10"/></g><g transform="translate(-278,2) scale(1,1)"><path fill="none" stroke="#000000" d="M 716 336 L 853 336" stroke-miterlimit="10"/></g><g transform="translate(-278,2) scale(1,1)"><path fill="#000000" stroke="none" d="M 842.8373251423759 340.209517756016 L 853 336 L 842.8373251423758 331.790482243984"/></g><g transform="translate(-278,2) scale(1,1)"><path fill="none" stroke="#000000" d="M 842.8373251423759 340.209517756016 L 853 336 L 842.8373251423758 331.790482243984 L 842.8373251423759 340.209517756016" stroke-miterlimit="10"/></g><g transform="translate(-278,2) scale(1,1)"><g><path fill="none" stroke="none"/><text fill="#000000" stroke="none" font-family="Arial" font-size="13px" font-style="normal" font-weight="normal" text-decoration="none" x="739.114990234375" y="331">4 : getModalApi</text></g></g><g transform="translate(-278,2) scale(1,1)"><rect fill="#fff1aa" stroke="none" x="853" y="336" width="13" height="28"/></g><g transform="translate(-278,2) scale(1,1)"><path fill="none" stroke="#000000" d="M 853 336 L 866 336 L 866 364 L 853 364 L 853 336 Z Z" stroke-miterlimit="10"/></g><g transform="translate(-278,2) scale(1,1)"><path fill="none" stroke="#000000" d="M 860 384 L 1012 384" stroke-miterlimit="10"/></g><g transform="translate(-278,2) scale(1,1)"><path fill="#000000" stroke="none" d="M 1001.8373251423759 388.209517756016 L 1012 384 L 1001.8373251423758 379.790482243984"/></g><g transform="translate(-278,2) scale(1,1)"><path fill="none" stroke="#000000" d="M 1001.8373251423759 388.209517756016 L 1012 384 L 1001.8373251423758 379.790482243984 L 1001.8373251423759 388.209517756016" stroke-miterlimit="10"/></g><g transform="translate(-278,2) scale(1,1)"><g><path fill="none" stroke="none"/><text fill="#000000" stroke="none" font-family="Arial" font-size="13px" font-style="normal" font-weight="normal" text-decoration="none" x="896.114990234375" y="379">5 : api.get(url)</text></g></g><g transform="translate(-278,2) scale(1,1)"><rect fill="#fff1aa" stroke="none" x="1012" y="384" width="13" height="28"/></g><g transform="translate(-278,2) scale(1,1)"><path fill="none" stroke="#000000" d="M 1012 384 L 1025 384 L 1025 412 L 1012 412 L 1012 384 Z Z" stroke-miterlimit="10"/></g><g transform="translate(-278,2) scale(1,1)"><path fill="none" stroke="#000000" d="M 1019 432 L 1109 432" stroke-miterlimit="10"/></g><g transform="translate(-278,2) scale(1,1)"><path fill="#000000" stroke="none" d="M 1098.837325142376 436.209517756016 L 1109 432 L 1098.837325142376 427.790482243984"/></g><g transform="translate(-278,2) scale(1,1)"><path fill="none" stroke="#000000" d="M 1098.837325142376 436.209517756016 L 1109 432 L 1098.837325142376 427.790482243984 L 1098.837325142376 436.209517756016" stroke-miterlimit="10"/></g><g transform="translate(-278,2) scale(1,1)"><g><path fill="none" stroke="none"/><text fill="#000000" stroke="none" font-family="Arial" font-size="13px" font-style="normal" font-weight="normal" text-decoration="none" x="1034.114990234375" y="427">6 : axios.get(url)</text></g></g><g transform="translate(-278,2) scale(1,1)"><rect fill="#7acff5" stroke="none" x="1109" y="432" width="13" height="28"/></g><g transform="translate(-278,2) scale(1,1)"><path fill="none" stroke="#000000" d="M 1109 432 L 1122 432 L 1122 460 L 1109 460 L 1109 432 Z Z" stroke-miterlimit="10"/></g><g transform="translate(-278,2) scale(1,1)"><path fill="none" stroke="#000000" d="M 1116 488 L 1297 488" stroke-miterlimit="10"/></g><g transform="translate(-278,2) scale(1,1)"><path fill="#000000" stroke="none" d="M 1286.837325142376 492.209517756016 L 1297 488 L 1286.837325142376 483.790482243984"/></g><g transform="translate(-278,2) scale(1,1)"><path fill="none" stroke="#000000" d="M 1286.837325142376 492.209517756016 L 1297 488 L 1286.837325142376 483.790482243984 L 1286.837325142376 492.209517756016" stroke-miterlimit="10"/></g><g transform="translate(-278,2) scale(1,1)"><g><path fill="none" stroke="none"/><text fill="#000000" stroke="none" font-family="Arial" font-size="13px" font-style="normal" font-weight="normal" text-decoration="none" x="1146.594970703125" y="483">7 : get(getAllModals)</text></g></g><g transform="translate(-278,2) scale(1,1)"><rect fill="#7acff5" stroke="none" x="1297" y="488" width="13" height="28"/></g><g transform="translate(-278,2) scale(1,1)"><path fill="none" stroke="#000000" d="M 1297 488 L 1310 488 L 1310 516 L 1297 516 L 1297 488 Z Z" stroke-miterlimit="10"/></g><g transform="translate(-278,2) scale(1,1)"><path fill="none" stroke="#000000" d="M 1304 536 L 1373 536" stroke-miterlimit="10"/></g><g transform="translate(-278,2) scale(1,1)"><path fill="#000000" stroke="none" d="M 1362.837325142376 540.209517756016 L 1373 536 L 1362.837325142376 531.790482243984"/></g><g transform="translate(-278,2) scale(1,1)"><path fill="none" stroke="#000000" d="M 1362.837325142376 540.209517756016 L 1373 536 L 1362.837325142376 531.790482243984 L 1362.837325142376 540.209517756016" stroke-miterlimit="10"/></g><g transform="translate(-278,2) scale(1,1)"><g><path fill="none" stroke="none"/><text fill="#000000" stroke="none" font-family="Arial" font-size="13px" font-style="normal" font-weight="normal" text-decoration="none" x="1294.114990234375" y="519">8 : initialize modal</text></g></g><g transform="translate(-278,2) scale(1,1)"><rect fill="#7acff5" stroke="none" x="1373" y="536" width="13" height="28"/></g><g transform="translate(-278,2) scale(1,1)"><path fill="none" stroke="#000000" d="M 1373 536 L 1386 536 L 1386 564 L 1373 564 L 1373 536 Z Z" stroke-miterlimit="10"/></g><g transform="translate(-278,2) scale(1,1)"><path fill="none" stroke="#000000" d="M 1380 584 L 1474 584" stroke-miterlimit="10"/></g><g transform="translate(-278,2) scale(1,1)"><path fill="#000000" stroke="none" d="M 1463.837325142376 588.209517756016 L 1474 584 L 1463.837325142376 579.790482243984"/></g><g transform="translate(-278,2) scale(1,1)"><path fill="none" stroke="#000000" d="M 1463.837325142376 588.209517756016 L 1474 584 L 1463.837325142376 579.790482243984 L 1463.837325142376 588.209517756016" stroke-miterlimit="10"/></g><g transform="translate(-278,2) scale(1,1)"><g><path fill="none" stroke="none"/><text fill="#000000" stroke="none" font-family="Arial" font-size="13px" font-style="normal" font-weight="normal" text-decoration="none" x="1399.114990234375" y="579">9 : modal.find</text></g></g><g transform="translate(-278,2) scale(1,1)"><rect fill="#38ff38" stroke="none" x="1474" y="584" width="13" height="28"/></g><g transform="translate(-278,2) scale(1,1)"><path fill="none" stroke="#000000" d="M 1474 584 L 1487 584 L 1487 612 L 1474 612 L 1474 584 Z Z" stroke-miterlimit="10"/></g><g transform="translate(-278,2) scale(1,1)"><path fill="none" stroke="#000000" d="M 1304 656 L 722 656" stroke-miterlimit="10"/></g><g transform="translate(-278,2) scale(1,1)"><path fill="#000000" stroke="none" d="M 732.1626748576241 651.790482243984 L 722 656 L 732.1626748576241 660.209517756016"/></g><g transform="translate(-278,2) scale(1,1)"><path fill="none" stroke="#000000" d="M 732.1626748576241 651.790482243984 L 722 656 L 732.1626748576241 660.209517756016 L 732.1626748576241 651.790482243984" stroke-miterlimit="10"/></g><g transform="translate(-278,2) scale(1,1)"><g><path fill="none" stroke="none"/><text fill="#000000" stroke="none" font-family="Arial" font-size="13px" font-style="normal" font-weight="normal" text-decoration="none" x="929.5" y="671">10 : return json(sucess,data)</text></g></g><g transform="translate(-278,2) scale(1,1)"><rect fill="#38ff38" stroke="none" x="709" y="656" width="13" height="28"/></g><g transform="translate(-278,2) scale(1,1)"><path fill="none" stroke="#000000" d="M 709 656 L 722 656 L 722 684 L 709 684 L 709 656 Z Z" stroke-miterlimit="10"/></g><g transform="translate(-278,2) scale(1,1)"><path fill="none" stroke="#000000" d="M 716 704 L 586 704" stroke-miterlimit="10"/></g><g transform="translate(-278,2) scale(1,1)"><path fill="#000000" stroke="none" d="M 596.1626748576241 699.790482243984 L 586 704 L 596.1626748576241 708.209517756016"/></g><g transform="translate(-278,2) scale(1,1)"><path fill="none" stroke="#000000" d="M 596.1626748576241 699.790482243984 L 586 704 L 596.1626748576241 708.209517756016 L 596.1626748576241 699.790482243984" stroke-miterlimit="10"/></g><g transform="translate(-278,2) scale(1,1)"><g><path fill="none" stroke="none"/><text fill="#000000" stroke="none" font-family="Arial" font-size="13px" font-style="normal" font-weight="normal" text-decoration="none" x="625.321044921875" y="719">11 : data</text></g></g><g transform="translate(-278,2) scale(1,1)"><rect fill="#38ff38" stroke="none" x="573" y="704" width="13" height="28"/></g><g transform="translate(-278,2) scale(1,1)"><path fill="none" stroke="#000000" d="M 573 704 L 586 704 L 586 732 L 573 732 L 573 704 Z Z" stroke-miterlimit="10"/></g><g transform="translate(-278,2) scale(1,1)"><path fill="none" stroke="#000000" d="M 1304 768 L 722 768" stroke-miterlimit="10"/></g><g transform="translate(-278,2) scale(1,1)"><path fill="#000000" stroke="none" d="M 732.1626748576241 763.790482243984 L 722 768 L 732.1626748576241 772.209517756016"/></g><g transform="translate(-278,2) scale(1,1)"><path fill="none" stroke="#000000" d="M 732.1626748576241 763.790482243984 L 722 768 L 732.1626748576241 772.209517756016 L 732.1626748576241 763.790482243984" stroke-miterlimit="10"/></g><g transform="translate(-278,2) scale(1,1)"><g><path fill="none" stroke="none"/><text fill="#000000" stroke="none" font-family="Arial" font-size="13px" font-style="normal" font-weight="normal" text-decoration="none" x="931.5" y="783">12 : return message("error")</text></g></g><g transform="translate(-278,2) scale(1,1)"><rect fill="#38ff38" stroke="none" x="709" y="768" width="13" height="28"/></g><g transform="translate(-278,2) scale(1,1)"><path fill="none" stroke="#000000" d="M 709 768 L 722 768 L 722 796 L 709 796 L 709 768 Z Z" stroke-miterlimit="10"/></g><g transform="translate(-278,2) scale(1,1)"><path fill="none" stroke="#000000" d="M 716 808 L 586 808" stroke-miterlimit="10"/></g><g transform="translate(-278,2) scale(1,1)"><path fill="#000000" stroke="none" d="M 596.1626748576241 803.790482243984 L 586 808 L 596.1626748576241 812.209517756016"/></g><g transform="translate(-278,2) scale(1,1)"><path fill="none" stroke="#000000" d="M 596.1626748576241 803.790482243984 L 586 808 L 596.1626748576241 812.209517756016 L 596.1626748576241 803.790482243984" stroke-miterlimit="10"/></g><g transform="translate(-278,2) scale(1,1)"><g><path fill="none" stroke="none"/><text fill="#000000" stroke="none" font-family="Arial" font-size="13px" font-style="normal" font-weight="normal" text-decoration="none" x="623.765869140625" y="823">13 : error</text></g></g><g transform="translate(-278,2) scale(1,1)"><rect fill="#38ff38" stroke="none" x="573" y="808" width="13" height="28"/></g><g transform="translate(-278,2) scale(1,1)"><path fill="none" stroke="#000000" d="M 573 808 L 586 808 L 586 836 L 573 836 L 573 808 Z Z" stroke-miterlimit="10"/></g><g transform="translate(-278,2) scale(1,1)"><path fill="none" stroke="#000000" d="M 356 920 L 465 920" stroke-miterlimit="10"/></g><g transform="translate(-278,2) scale(1,1)"><path fill="#000000" stroke="none" d="M 454.83732514237585 924.209517756016 L 465 920 L 454.83732514237585 915.790482243984"/></g><g transform="translate(-278,2) scale(1,1)"><path fill="none" stroke="#000000" d="M 454.83732514237585 924.209517756016 L 465 920 L 454.83732514237585 915.790482243984 L 454.83732514237585 924.209517756016" stroke-miterlimit="10"/></g><g transform="translate(-278,2) scale(1,1)"><g><path fill="none" stroke="none"/><text fill="#000000" stroke="none" font-family="Arial" font-size="13px" font-style="normal" font-weight="normal" text-decoration="none" x="361.5" y="915">14 : click Update</text></g></g><g transform="translate(-278,2) scale(1,1)"><rect fill="#fff1aa" stroke="none" x="465" y="920" width="13" height="28"/></g><g transform="translate(-278,2) scale(1,1)"><path fill="none" stroke="#000000" d="M 465 920 L 478 920 L 478 948 L 465 948 L 465 920 Z Z" stroke-miterlimit="10"/></g><g transform="translate(-278,2) scale(1,1)"><path fill="none" stroke="#000000" d="M 356 976 L 465 976" stroke-miterlimit="10"/></g><g transform="translate(-278,2) scale(1,1)"><path fill="#000000" stroke="none" d="M 454.83732514237585 980.209517756016 L 465 976 L 454.83732514237585 971.790482243984"/></g><g transform="translate(-278,2) scale(1,1)"><path fill="none" stroke="#000000" d="M 454.83732514237585 980.209517756016 L 465 976 L 454.83732514237585 971.790482243984 L 454.83732514237585 980.209517756016" stroke-miterlimit="10"/></g><g transform="translate(-278,2) scale(1,1)"><g><path fill="none" stroke="none"/><text fill="#000000" stroke="none" font-family="Arial" font-size="13px" font-style="normal" font-weight="normal" text-decoration="none" x="365.5" y="971">15 : modify info</text></g></g><g transform="translate(-278,2) scale(1,1)"><rect fill="#fff1aa" stroke="none" x="465" y="976" width="13" height="28"/></g><g transform="translate(-278,2) scale(1,1)"><path fill="none" stroke="#000000" d="M 465 976 L 478 976 L 478 1004 L 465 1004 L 465 976 Z Z" stroke-miterlimit="10"/></g><g transform="translate(-278,2) scale(1,1)"><path fill="none" stroke="#000000" d="M 356 1024 L 465 1024" stroke-miterlimit="10"/></g><g transform="translate(-278,2) scale(1,1)"><path fill="#000000" stroke="none" d="M 454.83732514237585 1028.2095177560159 L 465 1024 L 454.83732514237585 1019.790482243984"/></g><g transform="translate(-278,2) scale(1,1)"><path fill="none" stroke="#000000" d="M 454.83732514237585 1028.2095177560159 L 465 1024 L 454.83732514237585 1019.790482243984 L 454.83732514237585 1028.2095177560159" stroke-miterlimit="10"/></g><g transform="translate(-278,2) scale(1,1)"><g><path fill="none" stroke="none"/><text fill="#000000" stroke="none" font-family="Arial" font-size="13px" font-style="normal" font-weight="normal" text-decoration="none" x="378.344970703125" y="1019">16 : submit</text></g></g><g transform="translate(-278,2) scale(1,1)"><rect fill="#fff1aa" stroke="none" x="465" y="1024" width="13" height="28"/></g><g transform="translate(-278,2) scale(1,1)"><path fill="none" stroke="#000000" d="M 465 1024 L 478 1024 L 478 1052 L 465 1052 L 465 1024 Z Z" stroke-miterlimit="10"/></g><g transform="translate(-278,2) scale(1,1)"><path fill="none" stroke="#000000" d="M 472 1072 L 709 1072" stroke-miterlimit="10"/></g><g transform="translate(-278,2) scale(1,1)"><path fill="#000000" stroke="none" d="M 698.8373251423759 1076.2095177560159 L 709 1072 L 698.8373251423758 1067.7904822439841"/></g><g transform="translate(-278,2) scale(1,1)"><path fill="none" stroke="#000000" d="M 698.8373251423759 1076.2095177560159 L 709 1072 L 698.8373251423758 1067.7904822439841 L 698.8373251423759 1076.2095177560159" stroke-miterlimit="10"/></g><g transform="translate(-278,2) scale(1,1)"><g><path fill="none" stroke="none"/><text fill="#000000" stroke="none" font-family="Arial" font-size="13px" font-style="normal" font-weight="normal" text-decoration="none" x="502.5" y="1067">17 : dispatch(onUpdateModal)</text></g></g><g transform="translate(-278,2) scale(1,1)"><rect fill="#fff1aa" stroke="none" x="709" y="1072" width="13" height="28"/></g><g transform="translate(-278,2) scale(1,1)"><path fill="none" stroke="#000000" d="M 709 1072 L 722 1072 L 722 1100 L 709 1100 L 709 1072 Z Z" stroke-miterlimit="10"/></g><g transform="translate(-278,2) scale(1,1)"><path fill="none" stroke="#000000" d="M 716 1128 L 853 1128" stroke-miterlimit="10"/></g><g transform="translate(-278,2) scale(1,1)"><path fill="#000000" stroke="none" d="M 842.8373251423759 1132.2095177560159 L 853 1128 L 842.8373251423758 1123.7904822439841"/></g><g transform="translate(-278,2) scale(1,1)"><path fill="none" stroke="#000000" d="M 842.8373251423759 1132.2095177560159 L 853 1128 L 842.8373251423758 1123.7904822439841 L 842.8373251423759 1132.2095177560159" stroke-miterlimit="10"/></g><g transform="translate(-278,2) scale(1,1)"><g><path fill="none" stroke="none"/><text fill="#000000" stroke="none" font-family="Arial" font-size="13px" font-style="normal" font-weight="normal" text-decoration="none" x="735.1708984375" y="1115">18 : updateModalApi</text></g></g><g transform="translate(-278,2) scale(1,1)"><rect fill="#fff1aa" stroke="none" x="853" y="1128" width="13" height="28"/></g><g transform="translate(-278,2) scale(1,1)"><path fill="none" stroke="#000000" d="M 853 1128 L 866 1128 L 866 1156 L 853 1156 L 853 1128 Z Z" stroke-miterlimit="10"/></g><g transform="translate(-278,2) scale(1,1)"><path fill="none" stroke="#000000" d="M 860 1184 L 1012 1184" stroke-miterlimit="10"/></g><g transform="translate(-278,2) scale(1,1)"><path fill="#000000" stroke="none" d="M 1001.8373251423759 1188.2095177560159 L 1012 1184 L 1001.8373251423758 1179.7904822439841"/></g><g transform="translate(-278,2) scale(1,1)"><path fill="none" stroke="#000000" d="M 1001.8373251423759 1188.2095177560159 L 1012 1184 L 1001.8373251423758 1179.7904822439841 L 1001.8373251423759 1188.2095177560159" stroke-miterlimit="10"/></g><g transform="translate(-278,2) scale(1,1)"><g><path fill="none" stroke="none"/><text fill="#000000" stroke="none" font-family="Arial" font-size="13px" font-style="normal" font-weight="normal" text-decoration="none" x="871.5" y="1170">19 : api.patch(urlId,modal)</text></g></g><g transform="translate(-278,2) scale(1,1)"><rect fill="#fff1aa" stroke="none" x="1012" y="1184" width="13" height="28"/></g><g transform="translate(-278,2) scale(1,1)"><path fill="none" stroke="#000000" d="M 1012 1184 L 1025 1184 L 1025 1212 L 1012 1212 L 1012 1184 Z Z" stroke-miterlimit="10"/></g><g transform="translate(-278,2) scale(1,1)"><path fill="none" stroke="#000000" d="M 1019 1232 L 1109 1232" stroke-miterlimit="10"/></g><g transform="translate(-278,2) scale(1,1)"><path fill="#000000" stroke="none" d="M 1098.837325142376 1236.2095177560159 L 1109 1232 L 1098.837325142376 1227.7904822439841"/></g><g transform="translate(-278,2) scale(1,1)"><path fill="none" stroke="#000000" d="M 1098.837325142376 1236.2095177560159 L 1109 1232 L 1098.837325142376 1227.7904822439841 L 1098.837325142376 1236.2095177560159" stroke-miterlimit="10"/></g><g transform="translate(-278,2) scale(1,1)"><g><path fill="none" stroke="none"/><text fill="#000000" stroke="none" font-family="Arial" font-size="13px" font-style="normal" font-weight="normal" text-decoration="none" x="1007.5" y="1227">20 : aixos.patch(url,data)</text></g></g><g transform="translate(-278,2) scale(1,1)"><rect fill="#7acff5" stroke="none" x="1109" y="1232" width="13" height="28"/></g><g transform="translate(-278,2) scale(1,1)"><path fill="none" stroke="#000000" d="M 1109 1232 L 1122 1232 L 1122 1260 L 1109 1260 L 1109 1232 Z Z" stroke-miterlimit="10"/></g><g transform="translate(-278,2) scale(1,1)"><path fill="none" stroke="#000000" d="M 1116 1288 L 1199 1288" stroke-miterlimit="10"/></g><g transform="translate(-278,2) scale(1,1)"><path fill="#000000" stroke="none" d="M 1188.837325142376 1292.2095177560159 L 1199 1288 L 1188.837325142376 1283.7904822439841"/></g><g transform="translate(-278,2) scale(1,1)"><path fill="none" stroke="#000000" d="M 1188.837325142376 1292.2095177560159 L 1199 1288 L 1188.837325142376 1283.7904822439841 L 1188.837325142376 1292.2095177560159" stroke-miterlimit="10"/></g><g transform="translate(-278,2) scale(1,1)"><g><path fill="none" stroke="none"/><text fill="#000000" stroke="none" font-family="Arial" font-size="13px" font-style="normal" font-weight="normal" text-decoration="none" x="1114.5" y="1283">21 : checkRole</text></g></g><g transform="translate(-278,2) scale(1,1)"><rect fill="#7acff5" stroke="none" x="1199" y="1288" width="13" height="28"/></g><g transform="translate(-278,2) scale(1,1)"><path fill="none" stroke="#000000" d="M 1199 1288 L 1212 1288 L 1212 1316 L 1199 1316 L 1199 1288 Z Z" stroke-miterlimit="10"/></g><g transform="translate(-278,2) scale(1,1)"><path fill="none" stroke="#000000" d="M 1206 1336 L 1297 1336" stroke-miterlimit="10"/></g><g transform="translate(-278,2) scale(1,1)"><path fill="#000000" stroke="none" d="M 1286.837325142376 1340.2095177560159 L 1297 1336 L 1286.837325142376 1331.7904822439841"/></g><g transform="translate(-278,2) scale(1,1)"><path fill="none" stroke="#000000" d="M 1286.837325142376 1340.2095177560159 L 1297 1336 L 1286.837325142376 1331.7904822439841 L 1286.837325142376 1340.2095177560159" stroke-miterlimit="10"/></g><g transform="translate(-278,2) scale(1,1)"><g><path fill="none" stroke="none"/><text fill="#000000" stroke="none" font-family="Arial" font-size="13px" font-style="normal" font-weight="normal" text-decoration="none" x="1150.5" y="1355">22 : patch(updateModal)</text></g></g><g transform="translate(-278,2) scale(1,1)"><rect fill="#7acff5" stroke="none" x="1297" y="1336" width="13" height="28"/></g><g transform="translate(-278,2) scale(1,1)"><path fill="none" stroke="#000000" d="M 1297 1336 L 1310 1336 L 1310 1364 L 1297 1364 L 1297 1336 Z Z" stroke-miterlimit="10"/></g><g transform="translate(-278,2) scale(1,1)"><path fill="none" stroke="#000000" d="M 1304 1384 L 1373 1384" stroke-miterlimit="10"/></g><g transform="translate(-278,2) scale(1,1)"><path fill="#000000" stroke="none" d="M 1362.837325142376 1388.2095177560159 L 1373 1384 L 1362.837325142376 1379.7904822439841"/></g><g transform="translate(-278,2) scale(1,1)"><path fill="none" stroke="#000000" d="M 1362.837325142376 1388.2095177560159 L 1373 1384 L 1362.837325142376 1379.7904822439841 L 1362.837325142376 1388.2095177560159" stroke-miterlimit="10"/></g><g transform="translate(-278,2) scale(1,1)"><g><path fill="none" stroke="none"/><text fill="#000000" stroke="none" font-family="Arial" font-size="13px" font-style="normal" font-weight="normal" text-decoration="none" x="1251.5" y="1403">23 : checkValidation</text></g></g><g transform="translate(-278,2) scale(1,1)"><rect fill="#7acff5" stroke="none" x="1373" y="1384" width="13" height="28"/></g><g transform="translate(-278,2) scale(1,1)"><path fill="none" stroke="#000000" d="M 1373 1384 L 1386 1384 L 1386 1412 L 1373 1412 L 1373 1384 Z Z" stroke-miterlimit="10"/></g><g transform="translate(-278,2) scale(1,1)"><path fill="none" stroke="#000000" d="M 1380 1440 L 1474 1440" stroke-miterlimit="10"/></g><g transform="translate(-278,2) scale(1,1)"><path fill="#000000" stroke="none" d="M 1463.837325142376 1444.2095177560159 L 1474 1440 L 1463.837325142376 1435.7904822439841"/></g><g transform="translate(-278,2) scale(1,1)"><path fill="none" stroke="#000000" d="M 1463.837325142376 1444.2095177560159 L 1474 1440 L 1463.837325142376 1435.7904822439841 L 1463.837325142376 1444.2095177560159" stroke-miterlimit="10"/></g><g transform="translate(-278,2) scale(1,1)"><g><path fill="none" stroke="none"/><text fill="#000000" stroke="none" font-family="Arial" font-size="13px" font-style="normal" font-weight="normal" text-decoration="none" x="1371.5" y="1459">24 : modal.save</text></g></g><g transform="translate(-278,2) scale(1,1)"><rect fill="#38ff38" stroke="none" x="1474" y="1440" width="13" height="28"/></g><g transform="translate(-278,2) scale(1,1)"><path fill="none" stroke="#000000" d="M 1474 1440 L 1487 1440 L 1487 1468 L 1474 1468 L 1474 1440 Z Z" stroke-miterlimit="10"/></g><g transform="translate(-278,2) scale(1,1)"><path fill="none" stroke="#000000" d="M 1304 1464 L 722 1464" stroke-miterlimit="10"/></g><g transform="translate(-278,2) scale(1,1)"><path fill="#000000" stroke="none" d="M 732.1626748576241 1459.7904822439841 L 722 1464 L 732.1626748576241 1468.2095177560159"/></g><g transform="translate(-278,2) scale(1,1)"><path fill="none" stroke="#000000" d="M 732.1626748576241 1459.7904822439841 L 722 1464 L 732.1626748576241 1468.2095177560159 L 732.1626748576241 1459.7904822439841" stroke-miterlimit="10"/></g><g transform="translate(-278,2) scale(1,1)"><g><path fill="none" stroke="none"/><text fill="#000000" stroke="none" font-family="Arial" font-size="13px" font-style="normal" font-weight="normal" text-decoration="none" x="926.5" y="1479">25 : return json(success,data)</text></g></g><g transform="translate(-278,2) scale(1,1)"><rect fill="#38ff38" stroke="none" x="709" y="1464" width="13" height="28"/></g><g transform="translate(-278,2) scale(1,1)"><path fill="none" stroke="#000000" d="M 709 1464 L 722 1464 L 722 1492 L 709 1492 L 709 1464 Z Z" stroke-miterlimit="10"/></g><g transform="translate(-278,2) scale(1,1)"><path fill="none" stroke="#000000" d="M 716 1496 L 586 1496" stroke-miterlimit="10"/></g><g transform="translate(-278,2) scale(1,1)"><path fill="#000000" stroke="none" d="M 596.1626748576241 1491.7904822439841 L 586 1496 L 596.1626748576241 1500.2095177560159"/></g><g transform="translate(-278,2) scale(1,1)"><path fill="none" stroke="#000000" d="M 596.1626748576241 1491.7904822439841 L 586 1496 L 596.1626748576241 1500.2095177560159 L 596.1626748576241 1491.7904822439841" stroke-miterlimit="10"/></g><g transform="translate(-278,2) scale(1,1)"><g><path fill="none" stroke="none"/><text fill="#000000" stroke="none" font-family="Arial" font-size="13px" font-style="normal" font-weight="normal" text-decoration="none" x="616.838623046875" y="1482">26 : data</text></g></g><g transform="translate(-278,2) scale(1,1)"><rect fill="#38ff38" stroke="none" x="573" y="1496" width="13" height="53"/></g><g transform="translate(-278,2) scale(1,1)"><path fill="none" stroke="#000000" d="M 573 1496 L 586 1496 L 586 1549 L 573 1549 L 573 1496 Z Z" stroke-miterlimit="10"/></g><g transform="translate(-278,2) scale(1,1)"><path fill="none" stroke="#000000" d="M 580 1552 L 478 1552" stroke-miterlimit="10"/></g><g transform="translate(-278,2) scale(1,1)"><path fill="#000000" stroke="none" d="M 488.16267485762415 1547.7904822439841 L 478 1552 L 488.16267485762415 1556.2095177560159"/></g><g transform="translate(-278,2) scale(1,1)"><path fill="none" stroke="#000000" d="M 488.16267485762415 1547.7904822439841 L 478 1552 L 488.16267485762415 1556.2095177560159 L 488.16267485762415 1547.7904822439841" stroke-miterlimit="10"/></g><g transform="translate(-278,2) scale(1,1)"><g><path fill="none" stroke="none"/><text fill="#000000" stroke="none" font-family="Arial" font-size="13px" font-style="normal" font-weight="normal" text-decoration="none" x="447.864990234375" y="1522">27 : show alert</text></g></g><g transform="translate(-278,2) scale(1,1)"><rect fill="#38ff38" stroke="none" x="465" y="1552" width="13" height="39"/></g><g transform="translate(-278,2) scale(1,1)"><path fill="none" stroke="#000000" d="M 465 1552 L 478 1552 L 478 1591 L 465 1591 L 465 1552 Z Z" stroke-miterlimit="10"/></g><g transform="translate(-278,2) scale(1,1)"><path fill="none" stroke="#000000" d="M 1304 1616 L 722 1616" stroke-miterlimit="10"/></g><g transform="translate(-278,2) scale(1,1)"><path fill="#000000" stroke="none" d="M 732.1626748576241 1611.7904822439841 L 722 1616 L 732.1626748576241 1620.2095177560159"/></g><g transform="translate(-278,2) scale(1,1)"><path fill="none" stroke="#000000" d="M 732.1626748576241 1611.7904822439841 L 722 1616 L 732.1626748576241 1620.2095177560159 L 732.1626748576241 1611.7904822439841" stroke-miterlimit="10"/></g><g transform="translate(-278,2) scale(1,1)"><g><path fill="none" stroke="none"/><text fill="#000000" stroke="none" font-family="Arial" font-size="13px" font-style="normal" font-weight="normal" text-decoration="none" x="931.5" y="1631">28 : return message("error")</text></g></g><g transform="translate(-278,2) scale(1,1)"><rect fill="#df3c3c" stroke="none" x="709" y="1616" width="13" height="28"/></g><g transform="translate(-278,2) scale(1,1)"><path fill="none" stroke="#000000" d="M 709 1616 L 722 1616 L 722 1644 L 709 1644 L 709 1616 Z Z" stroke-miterlimit="10"/></g><g transform="translate(-278,2) scale(1,1)"><path fill="none" stroke="#000000" d="M 716 1656 L 586 1656" stroke-miterlimit="10"/></g><g transform="translate(-278,2) scale(1,1)"><path fill="#000000" stroke="none" d="M 596.1626748576241 1651.7904822439841 L 586 1656 L 596.1626748576241 1660.2095177560159"/></g><g transform="translate(-278,2) scale(1,1)"><path fill="none" stroke="#000000" d="M 596.1626748576241 1651.7904822439841 L 586 1656 L 596.1626748576241 1660.2095177560159 L 596.1626748576241 1651.7904822439841" stroke-miterlimit="10"/></g><g transform="translate(-278,2) scale(1,1)"><g><path fill="none" stroke="none"/><text fill="#000000" stroke="none" font-family="Arial" font-size="13px" font-style="normal" font-weight="normal" text-decoration="none" x="605.5" y="1671">29 : throw error</text></g></g><g transform="translate(-278,2) scale(1,1)"><rect fill="#df3c3c" stroke="none" x="573" y="1656" width="13" height="28"/></g><g transform="translate(-278,2) scale(1,1)"><path fill="none" stroke="#000000" d="M 573 1656 L 586 1656 L 586 1684 L 573 1684 L 573 1656 Z Z" stroke-miterlimit="10"/></g><g transform="translate(-278,2) scale(1,1)"><path fill="none" stroke="#000000" d="M 580 1688 L 478 1688" stroke-miterlimit="10"/></g><g transform="translate(-278,2) scale(1,1)"><path fill="#000000" stroke="none" d="M 488.16267485762415 1683.7904822439841 L 478 1688 L 488.16267485762415 1692.2095177560159"/></g><g transform="translate(-278,2) scale(1,1)"><path fill="none" stroke="#000000" d="M 488.16267485762415 1683.7904822439841 L 478 1688 L 488.16267485762415 1692.2095177560159 L 488.16267485762415 1683.7904822439841" stroke-miterlimit="10"/></g><g transform="translate(-278,2) scale(1,1)"><g><path fill="none" stroke="none"/><text fill="#000000" stroke="none" font-family="Arial" font-size="13px" font-style="normal" font-weight="normal" text-decoration="none" x="485.864990234375" y="1703">30 : show alert</text></g></g><g transform="translate(-278,2) scale(1,1)"><rect fill="#df3c3c" stroke="none" x="465" y="1688" width="13" height="28"/></g><g transform="translate(-278,2) scale(1,1)"><path fill="none" stroke="#000000" d="M 465 1688 L 478 1688 L 478 1716 L 465 1716 L 465 1688 Z Z" stroke-miterlimit="10"/></g><g transform="translate(-278,2) scale(1,1)"><path fill="none" stroke="#000000" d="M 344 224 L 1536 224 L 1536 1752 L 344 1752 L 344 224" stroke-miterlimit="10"/></g><g transform="translate(-278,2) scale(1,1)"><path fill="#ffffff" stroke="none" d="M 344 224 L 344 246 L 453.95166015625 246 L 464.95166015625 235 L 464.95166015625 224 L 344 224"/></g><g transform="translate(-278,2) scale(1,1)"><path fill="none" stroke="#000000" d="M 344 224 L 344 246 L 453.95166015625 246 L 464.95166015625 235 L 464.95166015625 224 L 344 224 L 344 224" stroke-miterlimit="10"/></g><g transform="translate(-278,2) scale(1,1)"><g><path fill="none" stroke="none"/><text fill="#000000" stroke="none" font-family="Arial" font-size="13px" font-style="normal" font-weight="normal" text-decoration="none" x="373.07177734375" y="240">Management</text></g></g><g transform="translate(-278,2) scale(1,1)"><g><path fill="none" stroke="none"/><text fill="#000000" stroke="none" font-family="Arial" font-size="13px" font-style="normal" font-weight="bold" text-decoration="none" x="347.930419921875" y="239.5">opt</text></g></g><g transform="translate(-278,2) scale(1,1)"><g><path fill="none" stroke="none"/><text fill="#000000" stroke="none" font-family="Arial" font-size="13px" font-style="normal" font-weight="normal" text-decoration="none" x="363.5" y="273">[Read]</text></g></g><g transform="translate(-278,2) scale(1,1)"><path fill="none" stroke="#000000" d="M 344 857 L 1536 857" stroke-miterlimit="10" stroke-dasharray="10,3"/></g><g transform="translate(-278,2) scale(1,1)"><g><path fill="none" stroke="none"/><text fill="#000000" stroke="none" font-family="Arial" font-size="13px" font-style="normal" font-weight="normal" text-decoration="none" x="363.5" y="883">[Update]</text></g></g><g transform="translate(-278,2) scale(1,1)"><path fill="none" stroke="#000000" d="M 344 632 L 1504 632 L 1504 832 L 344 832 L 344 632" stroke-miterlimit="10"/></g><g transform="translate(-278,2) scale(1,1)"><path fill="#ffffff" stroke="none" d="M 344 632 L 344 654 L 436.578125 654 L 447.578125 643 L 447.578125 632 L 344 632"/></g><g transform="translate(-278,2) scale(1,1)"><path fill="none" stroke="#000000" d="M 344 632 L 344 654 L 436.578125 654 L 447.578125 643 L 447.578125 632 L 344 632 L 344 632" stroke-miterlimit="10"/></g><g transform="translate(-278,2) scale(1,1)"><g><path fill="none" stroke="none"/><text fill="#000000" stroke="none" font-family="Arial" font-size="13px" font-style="normal" font-weight="normal" text-decoration="none" x="368.72998046875" y="648">checkError</text></g></g><g transform="translate(-278,2) scale(1,1)"><g><path fill="none" stroke="none"/><text fill="#000000" stroke="none" font-family="Arial" font-size="13px" font-style="normal" font-weight="bold" text-decoration="none" x="348.279541015625" y="648">alt</text></g></g><g transform="translate(-278,2) scale(1,1)"><g><path fill="none" stroke="none"/><text fill="#000000" stroke="none" font-family="Arial" font-size="13px" font-style="normal" font-weight="normal" text-decoration="none" x="363.5" y="681">[try]</text></g></g><g transform="translate(-278,2) scale(1,1)"><path fill="none" stroke="#000000" d="M 344 737 L 1504 737" stroke-miterlimit="10" stroke-dasharray="10,3"/></g><g transform="translate(-278,2) scale(1,1)"><g><path fill="none" stroke="none"/><text fill="#000000" stroke="none" font-family="Arial" font-size="13px" font-style="normal" font-weight="normal" text-decoration="none" x="363.5" y="763">[catch]</text></g></g><g transform="translate(-278,2) scale(1,1)"><path fill="none" stroke="#000000" d="M 352 1432 L 1528 1432 L 1528 1728 L 352 1728 L 352 1432" stroke-miterlimit="10"/></g><g transform="translate(-278,2) scale(1,1)"><path fill="#ffffff" stroke="none" d="M 352 1432 L 352 1454 L 471.822265625 1454 L 482.822265625 1443 L 482.822265625 1432 L 352 1432"/></g><g transform="translate(-278,2) scale(1,1)"><path fill="none" stroke="#000000" d="M 352 1432 L 352 1454 L 471.822265625 1454 L 482.822265625 1443 L 482.822265625 1432 L 352 1432 L 352 1432" stroke-miterlimit="10"/></g><g transform="translate(-278,2) scale(1,1)"><g><path fill="none" stroke="none"/><text fill="#000000" stroke="none" font-family="Arial" font-size="13px" font-style="normal" font-weight="normal" text-decoration="none" x="376.72998046875" y="1448">checkValidation</text></g></g><g transform="translate(-278,2) scale(1,1)"><g><path fill="none" stroke="none"/><text fill="#000000" stroke="none" font-family="Arial" font-size="13px" font-style="normal" font-weight="bold" text-decoration="none" x="356.279541015625" y="1448">alt</text></g></g><g transform="translate(-278,2) scale(1,1)"><g><path fill="none" stroke="none"/><text fill="#000000" stroke="none" font-family="Arial" font-size="13px" font-style="normal" font-weight="normal" text-decoration="none" x="371.5" y="1481">[try]</text></g></g><g transform="translate(-278,2) scale(1,1)"><path fill="none" stroke="#000000" d="M 352 1601 L 1528 1601" stroke-miterlimit="10" stroke-dasharray="10,3"/></g><g transform="translate(-278,2) scale(1,1)"><g><path fill="none" stroke="none"/><text fill="#000000" stroke="none" font-family="Arial" font-size="13px" font-style="normal" font-weight="normal" text-decoration="none" x="371.5" y="1627">[catch]</text></g></g></g></svg>