<svg version="1.1" xmlns="http://www.w3.org/2000/svg" xmlns:xlink="http://www.w3.org/1999/xlink" width="1316" height="2900"><defs/><g><g transform="translate(-278,2) scale(1,1)"><path fill="none" stroke="#000000" d="M 288 8 L 1584 8 L 1584 2888 L 288 2888 L 288 8" stroke-miterlimit="10"/></g><g transform="translate(-278,2) scale(1,1)"><path fill="#ffffff" stroke="none" d="M 288 8 L 288 30 L 370.47900390625 30 L 381.47900390625 19 L 381.47900390625 8 L 288 8"/></g><g transform="translate(-278,2) scale(1,1)"><path fill="none" stroke="#000000" d="M 288 8 L 288 30 L 370.47900390625 30 L 381.47900390625 19 L 381.47900390625 8 L 288 8 L 288 8" stroke-miterlimit="10"/></g><g transform="translate(-278,2) scale(1,1)"><g><path fill="none" stroke="none"/><text fill="#000000" stroke="none" font-family="Arial" font-size="13px" font-style="normal" font-weight="normal" text-decoration="none" x="312.72998046875" y="24">Category</text></g></g><g transform="translate(-278,2) scale(1,1)"><g><path fill="none" stroke="none"/><text fill="#000000" stroke="none" font-family="Arial" font-size="13px" font-style="normal" font-weight="bold" text-decoration="none" x="292.279541015625" y="24">sd</text></g></g><g transform="translate(-278,2) scale(1,1)"><path fill="#c77575" stroke="none" d="M 349.3831649502841 47.3 C 349.3831649502841 43.82060576 352.2615666724659 41 355.812255859375 41 C 359.3629450462841 41 362.241346768466 43.82060576 362.241346768466 47.3 C 362.241346768466 50.779394239999995 359.3629450462841 53.6 355.812255859375 53.6 C 352.2615666724659 53.6 349.3831649502841 50.779394239999995 349.3831649502841 47.3 Z"/></g><g transform="translate(-278,2) scale(1,1)"><path fill="none" stroke="#000000" d="M 349.3831649502841 47.3 C 349.3831649502841 43.82060576 352.2615666724659 41 355.812255859375 41 C 359.3629450462841 41 362.241346768466 43.82060576 362.241346768466 47.3 C 362.241346768466 50.779394239999995 359.3629450462841 53.6 355.812255859375 53.6 C 352.2615666724659 53.6 349.3831649502841 50.779394239999995 349.3831649502841 47.3 Z" stroke-miterlimit="10"/></g><g transform="translate(-278,2) scale(1,1)"><path fill="none" stroke="#000000" d="M 355.812255859375 53.6 L 355.812255859375 66.4" stroke-miterlimit="10"/></g><g transform="translate(-278,2) scale(1,1)"><path fill="none" stroke="#000000" d="M 349.00498313210227 58.4 L 362.6195285866478 58.4" stroke-miterlimit="10"/></g><g transform="translate(-278,2) scale(1,1)"><path fill="none" stroke="#000000" d="M 355.812255859375 66.4 L 346.35771040482956 79" stroke-miterlimit="10"/></g><g transform="translate(-278,2) scale(1,1)"><path fill="none" stroke="#000000" d="M 355.812255859375 66.4 L 365.2668013139205 79" stroke-miterlimit="10"/></g><g transform="translate(-278,2) scale(1,1)"><g><path fill="none" stroke="none"/><text fill="#000000" stroke="none" font-family="Arial" font-size="13px" font-style="normal" font-weight="bold" text-decoration="none" x="314.647705078125" y="98">Admin: Actor</text></g></g><g transform="translate(-278,2) scale(1,1)"><path fill="none" stroke="#000000" d="M 356.5 105 L 356.5 2768" stroke-miterlimit="10" stroke-dasharray="3"/></g><g transform="translate(-278,2) scale(1,1)"><rect fill="#C0C0C0" stroke="none" x="423" y="47" width="96.29541015625" height="39" opacity="0.2"/></g><g transform="translate(-278,2) scale(1,1)"><rect fill="#fff1aa" stroke="none" x="416" y="40" width="96.29541015625" height="39"/></g><g transform="translate(-278,2) scale(1,1)"><path fill="none" stroke="#000000" d="M 416 40 L 512.29541015625 40 L 512.29541015625 79 L 416 79 L 416 40 Z Z" stroke-miterlimit="10"/></g><g transform="translate(-278,2) scale(1,1)"><g><path fill="none" stroke="none"/><text fill="#000000" stroke="none" font-family="Arial" font-size="13px" font-style="normal" font-weight="bold" text-decoration="none" x="425.5" y="58">frmCategory</text></g></g><g transform="translate(-278,2) scale(1,1)"><path fill="none" stroke="#000000" d="M 465.5 80 L 465.5 2834" stroke-miterlimit="10" stroke-dasharray="3"/></g><g transform="translate(-278,2) scale(1,1)"><rect fill="#C0C0C0" stroke="none" x="687" y="47" width="71.736328125" height="39" opacity="0.2"/></g><g transform="translate(-278,2) scale(1,1)"><rect fill="#fff1aa" stroke="none" x="680" y="40" width="71.736328125" height="39"/></g><g transform="translate(-278,2) scale(1,1)"><path fill="none" stroke="#000000" d="M 680 40 L 751.736328125 40 L 751.736328125 79 L 680 79 L 680 40 Z Z" stroke-miterlimit="10"/></g><g transform="translate(-278,2) scale(1,1)"><g><path fill="none" stroke="none"/><text fill="#000000" stroke="none" font-family="Arial" font-size="13px" font-style="normal" font-weight="bold" text-decoration="none" x="698.17724609375" y="58">thunk</text></g></g><g transform="translate(-278,2) scale(1,1)"><path fill="none" stroke="#000000" d="M 716.5 80 L 716.5 2794" stroke-miterlimit="10" stroke-dasharray="3"/></g><g transform="translate(-278,2) scale(1,1)"><rect fill="#C0C0C0" stroke="none" x="791" y="47" width="151.9453125" height="39" opacity="0.2"/></g><g transform="translate(-278,2) scale(1,1)"><rect fill="#fff1aa" stroke="none" x="784" y="40" width="151.9453125" height="39"/></g><g transform="translate(-278,2) scale(1,1)"><path fill="none" stroke="#000000" d="M 784 40 L 935.9453125 40 L 935.9453125 79 L 784 79 L 784 40 Z Z" stroke-miterlimit="10"/></g><g transform="translate(-278,2) scale(1,1)"><g><path fill="none" stroke="none"/><text fill="#000000" stroke="none" font-family="Arial" font-size="13px" font-style="normal" font-weight="bold" text-decoration="none" x="793.5" y="58">fakebanckend_helper</text></g></g><g transform="translate(-278,2) scale(1,1)"><path fill="none" stroke="#000000" d="M 860.5 80 L 860.5 2744" stroke-miterlimit="10" stroke-dasharray="3"/></g><g transform="translate(-278,2) scale(1,1)"><rect fill="#C0C0C0" stroke="none" x="983" y="47" width="84.025390625" height="39" opacity="0.2"/></g><g transform="translate(-278,2) scale(1,1)"><rect fill="#fff1aa" stroke="none" x="976" y="40" width="84.025390625" height="39"/></g><g transform="translate(-278,2) scale(1,1)"><path fill="none" stroke="#000000" d="M 976 40 L 1060.025390625 40 L 1060.025390625 79 L 976 79 L 976 40 Z Z" stroke-miterlimit="10"/></g><g transform="translate(-278,2) scale(1,1)"><g><path fill="none" stroke="none"/><text fill="#000000" stroke="none" font-family="Arial" font-size="13px" font-style="normal" font-weight="bold" text-decoration="none" x="985.5" y="58">api_helper</text></g></g><g transform="translate(-278,2) scale(1,1)"><path fill="none" stroke="#000000" d="M 1019.5 80 L 1019.5 2736" stroke-miterlimit="10" stroke-dasharray="3"/></g><g transform="translate(-278,2) scale(1,1)"><rect fill="#C0C0C0" stroke="none" x="1087" y="47" width="71.736328125" height="39" opacity="0.2"/></g><g transform="translate(-278,2) scale(1,1)"><rect fill="#7acff5" stroke="none" x="1080" y="40" width="71.736328125" height="39"/></g><g transform="translate(-278,2) scale(1,1)"><path fill="none" stroke="#000000" d="M 1080 40 L 1151.736328125 40 L 1151.736328125 79 L 1080 79 L 1080 40 Z Z" stroke-miterlimit="10"/></g><g transform="translate(-278,2) scale(1,1)"><g><path fill="none" stroke="none"/><text fill="#000000" stroke="none" font-family="Arial" font-size="13px" font-style="normal" font-weight="bold" text-decoration="none" x="1099.6181640625" y="57.5">route</text></g></g><g transform="translate(-278,2) scale(1,1)"><path fill="none" stroke="#000000" d="M 1116.5 80 L 1116.5 2744" stroke-miterlimit="10" stroke-dasharray="3"/></g><g transform="translate(-278,2) scale(1,1)"><rect fill="#C0C0C0" stroke="none" x="1271" y="47" width="78.95361328125" height="39" opacity="0.2"/></g><g transform="translate(-278,2) scale(1,1)"><rect fill="#7acff5" stroke="none" x="1264" y="40" width="78.95361328125" height="39"/></g><g transform="translate(-278,2) scale(1,1)"><path fill="none" stroke="#000000" d="M 1264 40 L 1342.95361328125 40 L 1342.95361328125 79 L 1264 79 L 1264 40 Z Z" stroke-miterlimit="10"/></g><g transform="translate(-278,2) scale(1,1)"><g><path fill="none" stroke="none"/><text fill="#000000" stroke="none" font-family="Arial" font-size="13px" font-style="normal" font-weight="bold" text-decoration="none" x="1273.5" y="58">controller</text></g></g><g transform="translate(-278,2) scale(1,1)"><path fill="none" stroke="#000000" d="M 1304.5 80 L 1304.5 2762" stroke-miterlimit="10" stroke-dasharray="3"/></g><g transform="translate(-278,2) scale(1,1)"><rect fill="#C0C0C0" stroke="none" x="1359" y="47" width="71.736328125" height="39" opacity="0.2"/></g><g transform="translate(-278,2) scale(1,1)"><rect fill="#7acff5" stroke="none" x="1352" y="40" width="71.736328125" height="39"/></g><g transform="translate(-278,2) scale(1,1)"><path fill="none" stroke="#000000" d="M 1352 40 L 1423.736328125 40 L 1423.736328125 79 L 1352 79 L 1352 40 Z Z" stroke-miterlimit="10"/></g><g transform="translate(-278,2) scale(1,1)"><g><path fill="none" stroke="none"/><text fill="#000000" stroke="none" font-family="Arial" font-size="13px" font-style="normal" font-weight="bold" text-decoration="none" x="1368.726806640625" y="58">model</text></g></g><g transform="translate(-278,2) scale(1,1)"><path fill="none" stroke="#000000" d="M 1388.5 80 L 1388.5 2760" stroke-miterlimit="10" stroke-dasharray="3"/></g><g transform="translate(-278,2) scale(1,1)"><rect fill="#C0C0C0" stroke="none" x="1447" y="47" width="81.09912109375" height="39" opacity="0.2"/></g><g transform="translate(-278,2) scale(1,1)"><rect fill="#8cc86e" stroke="none" x="1440" y="40" width="81.09912109375" height="39"/></g><g transform="translate(-278,2) scale(1,1)"><path fill="none" stroke="#000000" d="M 1440 40 L 1521.09912109375 40 L 1521.09912109375 79 L 1440 79 L 1440 40 Z Z" stroke-miterlimit="10"/></g><g transform="translate(-278,2) scale(1,1)"><g><path fill="none" stroke="none"/><text fill="#000000" stroke="none" font-family="Arial" font-size="13px" font-style="normal" font-weight="bold" text-decoration="none" x="1449.5" y="58">mongoDB</text></g></g><g transform="translate(-278,2) scale(1,1)"><path fill="none" stroke="#000000" d="M 1481.5 80 L 1481.5 2744" stroke-miterlimit="10" stroke-dasharray="3"/></g><g transform="translate(-278,2) scale(1,1)"><rect fill="#C0C0C0" stroke="none" x="551" y="47" width="71.736328125" height="39" opacity="0.2"/></g><g transform="translate(-278,2) scale(1,1)"><rect fill="#fff1aa" stroke="none" x="544" y="40" width="71.736328125" height="39"/></g><g transform="translate(-278,2) scale(1,1)"><path fill="none" stroke="#000000" d="M 544 40 L 615.736328125 40 L 615.736328125 79 L 544 79 L 544 40 Z Z" stroke-miterlimit="10"/></g><g transform="translate(-278,2) scale(1,1)"><g><path fill="none" stroke="none"/><text fill="#000000" stroke="none" font-family="Arial" font-size="13px" font-style="normal" font-weight="bold" text-decoration="none" x="556.023193359375" y="58">reducer</text></g></g><g transform="translate(-278,2) scale(1,1)"><path fill="none" stroke="#000000" d="M 580.5 80 L 580.5 2834" stroke-miterlimit="10" stroke-dasharray="3"/></g><g transform="translate(-278,2) scale(1,1)"><path fill="none" stroke="#000000" d="M 368 32 L 1064 32" stroke-miterlimit="10"/></g><g transform="translate(-278,2) scale(1,1)"><path fill="none" stroke="#000000" d="M 1053.837325142376 36.20951775601599 L 1064 32 L 1053.837325142376 27.790482243984012" stroke-miterlimit="10"/></g><g transform="translate(-278,2) scale(1,1)"><path fill="none" stroke="#000000" d="M 378.16267485762415 27.790482243984012 L 368 32 L 378.16267485762415 36.209517756015984" stroke-miterlimit="10"/></g><g transform="translate(-278,2) scale(1,1)"><g><path fill="none" stroke="none"/><text fill="#000000" stroke="none" font-family="Arial" font-size="13px" font-style="normal" font-weight="normal" text-decoration="none" x="661" y="23">Front-end</text></g></g><g transform="translate(-278,2) scale(1,1)"><path fill="none" stroke="#000000" d="M 1080 32 L 1432 32" stroke-miterlimit="10"/></g><g transform="translate(-278,2) scale(1,1)"><path fill="none" stroke="#000000" d="M 1421.837325142376 36.20951775601599 L 1432 32 L 1421.837325142376 27.790482243984012" stroke-miterlimit="10"/></g><g transform="translate(-278,2) scale(1,1)"><path fill="none" stroke="#000000" d="M 1090.162674857624 27.790482243984012 L 1080 32 L 1090.162674857624 36.209517756015984" stroke-miterlimit="10"/></g><g transform="translate(-278,2) scale(1,1)"><g><path fill="none" stroke="none"/><text fill="#000000" stroke="none" font-family="Arial" font-size="13px" font-style="normal" font-weight="normal" text-decoration="none" x="1237" y="23">back-end</text></g></g><g transform="translate(-278,2) scale(1,1)"><path fill="none" stroke="#000000" d="M 1440 32 L 1528 32" stroke-miterlimit="10"/></g><g transform="translate(-278,2) scale(1,1)"><path fill="none" stroke="#000000" d="M 1517.837325142376 36.20951775601599 L 1528 32 L 1517.837325142376 27.790482243984012" stroke-miterlimit="10"/></g><g transform="translate(-278,2) scale(1,1)"><path fill="none" stroke="#000000" d="M 1450.162674857624 27.790482243984012 L 1440 32 L 1450.162674857624 36.209517756015984" stroke-miterlimit="10"/></g><g transform="translate(-278,2) scale(1,1)"><g><path fill="none" stroke="none"/><text fill="#000000" stroke="none" font-family="Arial" font-size="13px" font-style="normal" font-weight="normal" text-decoration="none" x="1453" y="23">database</text></g></g><g transform="translate(-278,2) scale(1,1)"><rect fill="#C0C0C0" stroke="none" x="1167" y="47" width="90.525390625" height="39" opacity="0.2"/></g><g transform="translate(-278,2) scale(1,1)"><rect fill="#7acff5" stroke="none" x="1160" y="40" width="90.525390625" height="39"/></g><g transform="translate(-278,2) scale(1,1)"><path fill="none" stroke="#000000" d="M 1160 40 L 1250.525390625 40 L 1250.525390625 79 L 1160 79 L 1160 40 Z Z" stroke-miterlimit="10"/></g><g transform="translate(-278,2) scale(1,1)"><g><path fill="none" stroke="none"/><text fill="#000000" stroke="none" font-family="Arial" font-size="13px" font-style="normal" font-weight="bold" text-decoration="none" x="1169.5" y="58">middleware</text></g></g><g transform="translate(-278,2) scale(1,1)"><path fill="none" stroke="#000000" d="M 1206.5 80 L 1206.5 2752" stroke-miterlimit="10" stroke-dasharray="3"/></g><g transform="translate(-278,2) scale(1,1)"><rect fill="#ffffff" stroke="none" x="1128" y="608" width="169.5888671875" height="22"/></g><g transform="translate(-278,2) scale(1,1)"><path fill="none" stroke="#000000" d="M 1128 608 L 1297.5888671875 608 L 1297.5888671875 630 L 1128 630 L 1128 608 Z Z" stroke-miterlimit="10"/></g><g transform="translate(-278,2) scale(1,1)"><path fill="none" stroke="#000000" d="M 1160.39453125 608 L 1160.39453125 630" stroke-miterlimit="10"/></g><g transform="translate(-278,2) scale(1,1)"><g><path fill="none" stroke="none"/><text fill="#000000" stroke="none" font-family="Arial" font-size="13px" font-style="normal" font-weight="normal" text-decoration="none" x="1164.89453125" y="624">AuthenticateAuthorize</text></g></g><g transform="translate(-278,2) scale(1,1)"><g><path fill="none" stroke="none"/><text fill="#000000" stroke="none" font-family="Arial" font-size="13px" font-style="normal" font-weight="bold" text-decoration="none" x="1133" y="624">link</text></g></g><g transform="translate(-278,2) scale(1,1)"><rect fill="#ffffff" stroke="none" x="1024" y="1896" width="169.5888671875" height="22"/></g><g transform="translate(-278,2) scale(1,1)"><path fill="none" stroke="#000000" d="M 1024 1896 L 1193.5888671875 1896 L 1193.5888671875 1918 L 1024 1918 L 1024 1896 Z Z" stroke-miterlimit="10"/></g><g transform="translate(-278,2) scale(1,1)"><path fill="none" stroke="#000000" d="M 1056.39453125 1896 L 1056.39453125 1918" stroke-miterlimit="10"/></g><g transform="translate(-278,2) scale(1,1)"><g><path fill="none" stroke="none"/><text fill="#000000" stroke="none" font-family="Arial" font-size="13px" font-style="normal" font-weight="normal" text-decoration="none" x="1060.89453125" y="1912">AuthenticateAuthorize</text></g></g><g transform="translate(-278,2) scale(1,1)"><g><path fill="none" stroke="none"/><text fill="#000000" stroke="none" font-family="Arial" font-size="13px" font-style="normal" font-weight="bold" text-decoration="none" x="1029" y="1912">link</text></g></g><g transform="translate(-278,2) scale(1,1)"><rect fill="#ffffff" stroke="none" x="1000" y="2488" width="169.5888671875" height="22"/></g><g transform="translate(-278,2) scale(1,1)"><path fill="none" stroke="#000000" d="M 1000 2488 L 1169.5888671875 2488 L 1169.5888671875 2510 L 1000 2510 L 1000 2488 Z Z" stroke-miterlimit="10"/></g><g transform="translate(-278,2) scale(1,1)"><path fill="none" stroke="#000000" d="M 1032.39453125 2488 L 1032.39453125 2510" stroke-miterlimit="10"/></g><g transform="translate(-278,2) scale(1,1)"><g><path fill="none" stroke="none"/><text fill="#000000" stroke="none" font-family="Arial" font-size="13px" font-style="normal" font-weight="normal" text-decoration="none" x="1036.89453125" y="2504">AuthenticateAuthorize</text></g></g><g transform="translate(-278,2) scale(1,1)"><g><path fill="none" stroke="none"/><text fill="#000000" stroke="none" font-family="Arial" font-size="13px" font-style="normal" font-weight="bold" text-decoration="none" x="1005" y="2504">link</text></g></g><g transform="translate(-278,2) scale(1,1)"><path fill="none" stroke="#000000" d="M 356 128 L 458 128" stroke-miterlimit="10"/></g><g transform="translate(-278,2) scale(1,1)"><path fill="#000000" stroke="none" d="M 447.83732514237585 132.209517756016 L 458 128 L 447.83732514237585 123.79048224398402"/></g><g transform="translate(-278,2) scale(1,1)"><path fill="none" stroke="#000000" d="M 447.83732514237585 132.209517756016 L 458 128 L 447.83732514237585 123.79048224398402 L 447.83732514237585 132.209517756016" stroke-miterlimit="10"/></g><g transform="translate(-278,2) scale(1,1)"><g><path fill="none" stroke="none"/><text fill="#000000" stroke="none" font-family="Arial" font-size="13px" font-style="normal" font-weight="normal" text-decoration="none" x="300.9033203125" y="122">1 : click Management</text></g></g><g transform="translate(-278,2) scale(1,1)"><rect fill="#fff1aa" stroke="none" x="458" y="128" width="13" height="28"/></g><g transform="translate(-278,2) scale(1,1)"><path fill="none" stroke="#000000" d="M 458 128 L 471 128 L 471 156 L 458 156 L 458 128 Z Z" stroke-miterlimit="10"/></g><g transform="translate(-278,2) scale(1,1)"><path fill="none" stroke="#000000" d="M 465 176 L 362 176" stroke-miterlimit="10"/></g><g transform="translate(-278,2) scale(1,1)"><path fill="#000000" stroke="none" d="M 372.16267485762415 171.790482243984 L 362 176 L 372.16267485762415 180.209517756016"/></g><g transform="translate(-278,2) scale(1,1)"><path fill="none" stroke="#000000" d="M 372.16267485762415 171.790482243984 L 362 176 L 372.16267485762415 180.209517756016 L 372.16267485762415 171.790482243984" stroke-miterlimit="10"/></g><g transform="translate(-278,2) scale(1,1)"><g><path fill="none" stroke="none"/><text fill="#000000" stroke="none" font-family="Arial" font-size="13px" font-style="normal" font-weight="normal" text-decoration="none" x="387.3154296875" y="191">2 : show</text></g></g><g transform="translate(-278,2) scale(1,1)"><rect fill="#fff1aa" stroke="none" x="349" y="176" width="13" height="28"/></g><g transform="translate(-278,2) scale(1,1)"><path fill="none" stroke="#000000" d="M 349 176 L 362 176 L 362 204 L 349 204 L 349 176 Z Z" stroke-miterlimit="10"/></g><g transform="translate(-278,2) scale(1,1)"><path fill="none" stroke="#000000" d="M 356 312 L 458 312" stroke-miterlimit="10"/></g><g transform="translate(-278,2) scale(1,1)"><path fill="#000000" stroke="none" d="M 447.83732514237585 316.209517756016 L 458 312 L 447.83732514237585 307.790482243984"/></g><g transform="translate(-278,2) scale(1,1)"><path fill="none" stroke="#000000" d="M 447.83732514237585 316.209517756016 L 458 312 L 447.83732514237585 307.790482243984 L 447.83732514237585 316.209517756016" stroke-miterlimit="10"/></g><g transform="translate(-278,2) scale(1,1)"><g><path fill="none" stroke="none"/><text fill="#000000" stroke="none" font-family="Arial" font-size="13px" font-style="normal" font-weight="normal" text-decoration="none" x="366.358642578125" y="306">3 : type info</text></g></g><g transform="translate(-278,2) scale(1,1)"><rect fill="#fff1aa" stroke="none" x="458" y="312" width="13" height="28"/></g><g transform="translate(-278,2) scale(1,1)"><path fill="none" stroke="#000000" d="M 458 312 L 471 312 L 471 340 L 458 340 L 458 312 Z Z" stroke-miterlimit="10"/></g><g transform="translate(-278,2) scale(1,1)"><path fill="none" stroke="#000000" d="M 356 354 L 458 354" stroke-miterlimit="10"/></g><g transform="translate(-278,2) scale(1,1)"><path fill="#000000" stroke="none" d="M 447.83732514237585 358.209517756016 L 458 354 L 447.83732514237585 349.790482243984"/></g><g transform="translate(-278,2) scale(1,1)"><path fill="none" stroke="#000000" d="M 447.83732514237585 358.209517756016 L 458 354 L 447.83732514237585 349.790482243984 L 447.83732514237585 358.209517756016" stroke-miterlimit="10"/></g><g transform="translate(-278,2) scale(1,1)"><g><path fill="none" stroke="none"/><text fill="#000000" stroke="none" font-family="Arial" font-size="13px" font-style="normal" font-weight="normal" text-decoration="none" x="371.549560546875" y="349">4 : click Add</text></g></g><g transform="translate(-278,2) scale(1,1)"><rect fill="#fff1aa" stroke="none" x="458" y="354" width="13" height="28"/></g><g transform="translate(-278,2) scale(1,1)"><path fill="none" stroke="#000000" d="M 458 354 L 471 354 L 471 382 L 458 382 L 458 354 Z Z" stroke-miterlimit="10"/></g><g transform="translate(-278,2) scale(1,1)"><path fill="none" stroke="#000000" d="M 465 408 L 495 408 L 495 428 L 471 428" stroke-miterlimit="10"/></g><g transform="translate(-278,2) scale(1,1)"><path fill="none" stroke="#000000" d="M 481.16267485762415 423.790482243984 L 471 428 L 481.16267485762415 432.209517756016" stroke-miterlimit="10"/></g><g transform="translate(-278,2) scale(1,1)"><g><path fill="none" stroke="none"/><text fill="#000000" stroke="none" font-family="Arial" font-size="13px" font-style="normal" font-weight="normal" text-decoration="none" x="457.944091796875" y="403">5 : addFunction</text></g></g><g transform="translate(-278,2) scale(1,1)"><rect fill="#fff1aa" stroke="none" x="458" y="428" width="13" height="28"/></g><g transform="translate(-278,2) scale(1,1)"><path fill="none" stroke="#000000" d="M 458 428 L 471 428 L 471 456 L 458 456 L 458 428 Z Z" stroke-miterlimit="10"/></g><g transform="translate(-278,2) scale(1,1)"><path fill="none" stroke="#000000" d="M 465 473 L 709 473" stroke-miterlimit="10"/></g><g transform="translate(-278,2) scale(1,1)"><path fill="#000000" stroke="none" d="M 698.8373251423759 477.209517756016 L 709 473 L 698.8373251423758 468.790482243984"/></g><g transform="translate(-278,2) scale(1,1)"><path fill="none" stroke="#000000" d="M 698.8373251423759 477.209517756016 L 709 473 L 698.8373251423758 468.790482243984 L 698.8373251423759 477.209517756016" stroke-miterlimit="10"/></g><g transform="translate(-278,2) scale(1,1)"><g><path fill="none" stroke="none"/><text fill="#000000" stroke="none" font-family="Arial" font-size="13px" font-style="normal" font-weight="normal" text-decoration="none" x="499.5" y="468">6 : dispatch(onAddNewModal)</text></g></g><g transform="translate(-278,2) scale(1,1)"><rect fill="#fff1aa" stroke="none" x="709" y="473" width="13" height="28"/></g><g transform="translate(-278,2) scale(1,1)"><path fill="none" stroke="#000000" d="M 709 473 L 722 473 L 722 501 L 709 501 L 709 473 Z Z" stroke-miterlimit="10"/></g><g transform="translate(-278,2) scale(1,1)"><path fill="none" stroke="#000000" d="M 716 520 L 853 520" stroke-miterlimit="10"/></g><g transform="translate(-278,2) scale(1,1)"><path fill="#000000" stroke="none" d="M 842.8373251423759 524.209517756016 L 853 520 L 842.8373251423758 515.790482243984"/></g><g transform="translate(-278,2) scale(1,1)"><path fill="none" stroke="#000000" d="M 842.8373251423759 524.209517756016 L 853 520 L 842.8373251423758 515.790482243984 L 842.8373251423759 524.209517756016" stroke-miterlimit="10"/></g><g transform="translate(-278,2) scale(1,1)"><g><path fill="none" stroke="none"/><text fill="#000000" stroke="none" font-family="Arial" font-size="13px" font-style="normal" font-weight="normal" text-decoration="none" x="724.5" y="515">7 : addNewModalApi</text></g></g><g transform="translate(-278,2) scale(1,1)"><rect fill="#fff1aa" stroke="none" x="853" y="520" width="13" height="28"/></g><g transform="translate(-278,2) scale(1,1)"><path fill="none" stroke="#000000" d="M 853 520 L 866 520 L 866 548 L 853 548 L 853 520 Z Z" stroke-miterlimit="10"/></g><g transform="translate(-278,2) scale(1,1)"><path fill="none" stroke="#000000" d="M 860 552 L 1012 552" stroke-miterlimit="10"/></g><g transform="translate(-278,2) scale(1,1)"><path fill="none" stroke="#000000" d="M 1001.8373251423759 556.209517756016 L 1012 552 L 1001.8373251423758 547.790482243984" stroke-miterlimit="10"/></g><g transform="translate(-278,2) scale(1,1)"><g><path fill="none" stroke="none"/><text fill="#000000" stroke="none" font-family="Arial" font-size="13px" font-style="normal" font-weight="normal" text-decoration="none" x="872.5" y="547">8 : api.create(url,data)</text></g></g><g transform="translate(-278,2) scale(1,1)"><rect fill="#fff1aa" stroke="none" x="1012" y="552" width="13" height="28"/></g><g transform="translate(-278,2) scale(1,1)"><path fill="none" stroke="#000000" d="M 1012 552 L 1025 552 L 1025 580 L 1012 580 L 1012 552 Z Z" stroke-miterlimit="10"/></g><g transform="translate(-278,2) scale(1,1)"><path fill="none" stroke="#000000" d="M 1019 584 L 1109 584" stroke-miterlimit="10"/></g><g transform="translate(-278,2) scale(1,1)"><path fill="#000000" stroke="none" d="M 1098.837325142376 588.209517756016 L 1109 584 L 1098.837325142376 579.790482243984"/></g><g transform="translate(-278,2) scale(1,1)"><path fill="none" stroke="#000000" d="M 1098.837325142376 588.209517756016 L 1109 584 L 1098.837325142376 579.790482243984 L 1098.837325142376 588.209517756016" stroke-miterlimit="10"/></g><g transform="translate(-278,2) scale(1,1)"><g><path fill="none" stroke="none"/><text fill="#000000" stroke="none" font-family="Arial" font-size="13px" font-style="normal" font-weight="normal" text-decoration="none" x="1027.114990234375" y="571">9 : axios.post(url,data)</text></g></g><g transform="translate(-278,2) scale(1,1)"><rect fill="#7acff5" stroke="none" x="1109" y="584" width="13" height="28"/></g><g transform="translate(-278,2) scale(1,1)"><path fill="none" stroke="#000000" d="M 1109 584 L 1122 584 L 1122 612 L 1109 612 L 1109 584 Z Z" stroke-miterlimit="10"/></g><g transform="translate(-278,2) scale(1,1)"><path fill="none" stroke="#000000" d="M 1116 648 L 1199 648" stroke-miterlimit="10"/></g><g transform="translate(-278,2) scale(1,1)"><path fill="#000000" stroke="none" d="M 1188.837325142376 652.209517756016 L 1199 648 L 1188.837325142376 643.790482243984"/></g><g transform="translate(-278,2) scale(1,1)"><path fill="none" stroke="#000000" d="M 1188.837325142376 652.209517756016 L 1199 648 L 1188.837325142376 643.790482243984 L 1188.837325142376 652.209517756016" stroke-miterlimit="10"/></g><g transform="translate(-278,2) scale(1,1)"><g><path fill="none" stroke="none"/><text fill="#000000" stroke="none" font-family="Arial" font-size="13px" font-style="normal" font-weight="normal" text-decoration="none" x="1135.3583984375" y="643">10 : checkRole</text></g></g><g transform="translate(-278,2) scale(1,1)"><rect fill="#7acff5" stroke="none" x="1199" y="648" width="13" height="28"/></g><g transform="translate(-278,2) scale(1,1)"><path fill="none" stroke="#000000" d="M 1199 648 L 1212 648 L 1212 676 L 1199 676 L 1199 648 Z Z" stroke-miterlimit="10"/></g><g transform="translate(-278,2) scale(1,1)"><path fill="none" stroke="#000000" d="M 1206 696 L 1297 696" stroke-miterlimit="10"/></g><g transform="translate(-278,2) scale(1,1)"><path fill="#000000" stroke="none" d="M 1286.837325142376 700.209517756016 L 1297 696 L 1286.837325142376 691.790482243984"/></g><g transform="translate(-278,2) scale(1,1)"><path fill="none" stroke="#000000" d="M 1286.837325142376 700.209517756016 L 1297 696 L 1286.837325142376 691.790482243984 L 1286.837325142376 700.209517756016" stroke-miterlimit="10"/></g><g transform="translate(-278,2) scale(1,1)"><g><path fill="none" stroke="none"/><text fill="#000000" stroke="none" font-family="Arial" font-size="13px" font-style="normal" font-weight="normal" text-decoration="none" x="1189.982421875" y="691">11 : post(createModal)</text></g></g><g transform="translate(-278,2) scale(1,1)"><rect fill="#7acff5" stroke="none" x="1297" y="696" width="13" height="28"/></g><g transform="translate(-278,2) scale(1,1)"><path fill="none" stroke="#000000" d="M 1297 696 L 1310 696 L 1310 724 L 1297 724 L 1297 696 Z Z" stroke-miterlimit="10"/></g><g transform="translate(-278,2) scale(1,1)"><path fill="none" stroke="#000000" d="M 1304 728 L 1381 728" stroke-miterlimit="10"/></g><g transform="translate(-278,2) scale(1,1)"><path fill="#000000" stroke="none" d="M 1370.837325142376 732.209517756016 L 1381 728 L 1370.837325142376 723.790482243984"/></g><g transform="translate(-278,2) scale(1,1)"><path fill="none" stroke="#000000" d="M 1370.837325142376 732.209517756016 L 1381 728 L 1370.837325142376 723.790482243984 L 1370.837325142376 732.209517756016" stroke-miterlimit="10"/></g><g transform="translate(-278,2) scale(1,1)"><g><path fill="none" stroke="none"/><text fill="#000000" stroke="none" font-family="Arial" font-size="13px" font-style="normal" font-weight="normal" text-decoration="none" x="1327.5" y="715">12 : checkValidation</text></g></g><g transform="translate(-278,2) scale(1,1)"><rect fill="#7acff5" stroke="none" x="1381" y="728" width="13" height="28"/></g><g transform="translate(-278,2) scale(1,1)"><path fill="none" stroke="#000000" d="M 1381 728 L 1394 728 L 1394 756 L 1381 756 L 1381 728 Z Z" stroke-miterlimit="10"/></g><g transform="translate(-278,2) scale(1,1)"><path fill="none" stroke="#000000" d="M 1304 768 L 722 768" stroke-miterlimit="10"/></g><g transform="translate(-278,2) scale(1,1)"><path fill="#000000" stroke="none" d="M 732.1626748576241 763.790482243984 L 722 768 L 732.1626748576241 772.209517756016"/></g><g transform="translate(-278,2) scale(1,1)"><path fill="none" stroke="#000000" d="M 732.1626748576241 763.790482243984 L 722 768 L 732.1626748576241 772.209517756016 L 732.1626748576241 763.790482243984" stroke-miterlimit="10"/></g><g transform="translate(-278,2) scale(1,1)"><g><path fill="none" stroke="none"/><text fill="#000000" stroke="none" font-family="Arial" font-size="13px" font-style="normal" font-weight="normal" text-decoration="none" x="926.5" y="783">13 : return json(success,data)</text></g></g><g transform="translate(-278,2) scale(1,1)"><rect fill="#38ff38" stroke="none" x="709" y="768" width="13" height="50"/></g><g transform="translate(-278,2) scale(1,1)"><path fill="none" stroke="#000000" d="M 709 768 L 722 768 L 722 818 L 709 818 L 709 768 Z Z" stroke-miterlimit="10"/></g><g transform="translate(-278,2) scale(1,1)"><path fill="none" stroke="#000000" d="M 1388 784 L 1474 784" stroke-miterlimit="10"/></g><g transform="translate(-278,2) scale(1,1)"><path fill="#000000" stroke="none" d="M 1463.837325142376 788.209517756016 L 1474 784 L 1463.837325142376 779.790482243984"/></g><g transform="translate(-278,2) scale(1,1)"><path fill="none" stroke="#000000" d="M 1463.837325142376 788.209517756016 L 1474 784 L 1463.837325142376 779.790482243984 L 1463.837325142376 788.209517756016" stroke-miterlimit="10"/></g><g transform="translate(-278,2) scale(1,1)"><g><path fill="none" stroke="none"/><text fill="#000000" stroke="none" font-family="Arial" font-size="13px" font-style="normal" font-weight="normal" text-decoration="none" x="1383.5" y="770">14 : modal.save</text></g></g><g transform="translate(-278,2) scale(1,1)"><rect fill="#38ff38" stroke="none" x="1474" y="784" width="13" height="28"/></g><g transform="translate(-278,2) scale(1,1)"><path fill="none" stroke="#000000" d="M 1474 784 L 1487 784 L 1487 812 L 1474 812 L 1474 784 Z Z" stroke-miterlimit="10"/></g><g transform="translate(-278,2) scale(1,1)"><path fill="none" stroke="#000000" d="M 709 800 L 586 800" stroke-miterlimit="10"/></g><g transform="translate(-278,2) scale(1,1)"><path fill="#000000" stroke="none" d="M 596.1626748576241 795.790482243984 L 586 800 L 596.1626748576241 804.209517756016"/></g><g transform="translate(-278,2) scale(1,1)"><path fill="none" stroke="#000000" d="M 596.1626748576241 795.790482243984 L 586 800 L 596.1626748576241 804.209517756016 L 596.1626748576241 795.790482243984" stroke-miterlimit="10"/></g><g transform="translate(-278,2) scale(1,1)"><g><path fill="none" stroke="none"/><text fill="#000000" stroke="none" font-family="Arial" font-size="13px" font-style="normal" font-weight="normal" text-decoration="none" x="620.53271484375" y="815">15 : data</text></g></g><g transform="translate(-278,2) scale(1,1)"><rect fill="#38ff38" stroke="none" x="573" y="800" width="13" height="47"/></g><g transform="translate(-278,2) scale(1,1)"><path fill="none" stroke="#000000" d="M 573 800 L 586 800 L 586 847 L 573 847 L 573 800 Z Z" stroke-miterlimit="10"/></g><g transform="translate(-278,2) scale(1,1)"><path fill="none" stroke="#000000" d="M 573 832 L 471 832" stroke-miterlimit="10"/></g><g transform="translate(-278,2) scale(1,1)"><path fill="#000000" stroke="none" d="M 481.16267485762415 827.790482243984 L 471 832 L 481.16267485762415 836.209517756016"/></g><g transform="translate(-278,2) scale(1,1)"><path fill="none" stroke="#000000" d="M 481.16267485762415 827.790482243984 L 471 832 L 481.16267485762415 836.209517756016 L 481.16267485762415 827.790482243984" stroke-miterlimit="10"/></g><g transform="translate(-278,2) scale(1,1)"><g><path fill="none" stroke="none"/><text fill="#000000" stroke="none" font-family="Arial" font-size="13px" font-style="normal" font-weight="normal" text-decoration="none" x="478.864990234375" y="847">16 : show alert</text></g></g><g transform="translate(-278,2) scale(1,1)"><rect fill="#38ff38" stroke="none" x="458" y="832" width="13" height="47"/></g><g transform="translate(-278,2) scale(1,1)"><path fill="none" stroke="#000000" d="M 458 832 L 471 832 L 471 879 L 458 879 L 458 832 Z Z" stroke-miterlimit="10"/></g><g transform="translate(-278,2) scale(1,1)"><path fill="none" stroke="#000000" d="M 1304 904 L 722 904" stroke-miterlimit="10"/></g><g transform="translate(-278,2) scale(1,1)"><path fill="#000000" stroke="none" d="M 732.1626748576241 899.790482243984 L 722 904 L 732.1626748576241 908.209517756016"/></g><g transform="translate(-278,2) scale(1,1)"><path fill="none" stroke="#000000" d="M 732.1626748576241 899.790482243984 L 722 904 L 732.1626748576241 908.209517756016 L 732.1626748576241 899.790482243984" stroke-miterlimit="10"/></g><g transform="translate(-278,2) scale(1,1)"><g><path fill="none" stroke="none"/><text fill="#000000" stroke="none" font-family="Arial" font-size="13px" font-style="normal" font-weight="normal" text-decoration="none" x="931.5" y="919">17 : return message("error")</text></g></g><g transform="translate(-278,2) scale(1,1)"><rect fill="#df3c3c" stroke="none" x="709" y="904" width="13" height="77"/></g><g transform="translate(-278,2) scale(1,1)"><path fill="none" stroke="#000000" d="M 709 904 L 722 904 L 722 981 L 709 981 L 709 904 Z Z" stroke-miterlimit="10"/></g><g transform="translate(-278,2) scale(1,1)"><path fill="none" stroke="#000000" d="M 709 944 L 586 944" stroke-miterlimit="10"/></g><g transform="translate(-278,2) scale(1,1)"><path fill="#000000" stroke="none" d="M 596.1626748576241 939.790482243984 L 586 944 L 596.1626748576241 948.209517756016"/></g><g transform="translate(-278,2) scale(1,1)"><path fill="none" stroke="#000000" d="M 596.1626748576241 939.790482243984 L 586 944 L 596.1626748576241 948.209517756016 L 596.1626748576241 939.790482243984" stroke-miterlimit="10"/></g><g transform="translate(-278,2) scale(1,1)"><g><path fill="none" stroke="none"/><text fill="#000000" stroke="none" font-family="Arial" font-size="13px" font-style="normal" font-weight="normal" text-decoration="none" x="601.5" y="959">18 : throw error</text></g></g><g transform="translate(-278,2) scale(1,1)"><rect fill="#df3c3c" stroke="none" x="573" y="944" width="13" height="28"/></g><g transform="translate(-278,2) scale(1,1)"><path fill="none" stroke="#000000" d="M 573 944 L 586 944 L 586 972 L 573 972 L 573 944 Z Z" stroke-miterlimit="10"/></g><g transform="translate(-278,2) scale(1,1)"><path fill="none" stroke="#000000" d="M 573 960 L 471 960" stroke-miterlimit="10"/></g><g transform="translate(-278,2) scale(1,1)"><path fill="#000000" stroke="none" d="M 481.16267485762415 955.790482243984 L 471 960 L 481.16267485762415 964.209517756016"/></g><g transform="translate(-278,2) scale(1,1)"><path fill="none" stroke="#000000" d="M 481.16267485762415 955.790482243984 L 471 960 L 481.16267485762415 964.209517756016 L 481.16267485762415 955.790482243984" stroke-miterlimit="10"/></g><g transform="translate(-278,2) scale(1,1)"><g><path fill="none" stroke="none"/><text fill="#000000" stroke="none" font-family="Arial" font-size="13px" font-style="normal" font-weight="normal" text-decoration="none" x="478.864990234375" y="975">19 : show alert</text></g></g><g transform="translate(-278,2) scale(1,1)"><rect fill="#df3c3c" stroke="none" x="458" y="960" width="13" height="28"/></g><g transform="translate(-278,2) scale(1,1)"><path fill="none" stroke="#000000" d="M 458 960 L 471 960 L 471 988 L 458 988 L 458 960 Z Z" stroke-miterlimit="10"/></g><g transform="translate(-278,2) scale(1,1)"><path fill="none" stroke="#000000" d="M 465 1120 L 709 1120" stroke-miterlimit="10"/></g><g transform="translate(-278,2) scale(1,1)"><path fill="#000000" stroke="none" d="M 698.8373251423759 1124.2095177560159 L 709 1120 L 698.8373251423758 1115.7904822439841"/></g><g transform="translate(-278,2) scale(1,1)"><path fill="none" stroke="#000000" d="M 698.8373251423759 1124.2095177560159 L 709 1120 L 698.8373251423758 1115.7904822439841 L 698.8373251423759 1124.2095177560159" stroke-miterlimit="10"/></g><g transform="translate(-278,2) scale(1,1)"><g><path fill="none" stroke="none"/><text fill="#000000" stroke="none" font-family="Arial" font-size="13px" font-style="normal" font-weight="normal" text-decoration="none" x="510.5" y="1115">20 : dispatch(onGetModal)</text></g></g><g transform="translate(-278,2) scale(1,1)"><rect fill="#fff1aa" stroke="none" x="709" y="1120" width="13" height="28"/></g><g transform="translate(-278,2) scale(1,1)"><path fill="none" stroke="#000000" d="M 709 1120 L 722 1120 L 722 1148 L 709 1148 L 709 1120 Z Z" stroke-miterlimit="10"/></g><g transform="translate(-278,2) scale(1,1)"><path fill="none" stroke="#000000" d="M 716 1160 L 853 1160" stroke-miterlimit="10"/></g><g transform="translate(-278,2) scale(1,1)"><path fill="#000000" stroke="none" d="M 842.8373251423759 1164.2095177560159 L 853 1160 L 842.8373251423758 1155.7904822439841"/></g><g transform="translate(-278,2) scale(1,1)"><path fill="none" stroke="#000000" d="M 842.8373251423759 1164.2095177560159 L 853 1160 L 842.8373251423758 1155.7904822439841 L 842.8373251423759 1164.2095177560159" stroke-miterlimit="10"/></g><g transform="translate(-278,2) scale(1,1)"><g><path fill="none" stroke="none"/><text fill="#000000" stroke="none" font-family="Arial" font-size="13px" font-style="normal" font-weight="normal" text-decoration="none" x="735.5" y="1155">21 : getModalApi</text></g></g><g transform="translate(-278,2) scale(1,1)"><rect fill="#fff1aa" stroke="none" x="853" y="1160" width="13" height="28"/></g><g transform="translate(-278,2) scale(1,1)"><path fill="none" stroke="#000000" d="M 853 1160 L 866 1160 L 866 1188 L 853 1188 L 853 1160 Z Z" stroke-miterlimit="10"/></g><g transform="translate(-278,2) scale(1,1)"><path fill="none" stroke="#000000" d="M 860 1194 L 1012 1194" stroke-miterlimit="10"/></g><g transform="translate(-278,2) scale(1,1)"><path fill="#000000" stroke="none" d="M 1001.8373251423759 1198.2095177560159 L 1012 1194 L 1001.8373251423758 1189.7904822439841"/></g><g transform="translate(-278,2) scale(1,1)"><path fill="none" stroke="#000000" d="M 1001.8373251423759 1198.2095177560159 L 1012 1194 L 1001.8373251423758 1189.7904822439841 L 1001.8373251423759 1198.2095177560159" stroke-miterlimit="10"/></g><g transform="translate(-278,2) scale(1,1)"><g><path fill="none" stroke="none"/><text fill="#000000" stroke="none" font-family="Arial" font-size="13px" font-style="normal" font-weight="normal" text-decoration="none" x="892.5" y="1189">22 : api.get(url)</text></g></g><g transform="translate(-278,2) scale(1,1)"><rect fill="#fff1aa" stroke="none" x="1012" y="1194" width="13" height="28"/></g><g transform="translate(-278,2) scale(1,1)"><path fill="none" stroke="#000000" d="M 1012 1194 L 1025 1194 L 1025 1222 L 1012 1222 L 1012 1194 Z Z" stroke-miterlimit="10"/></g><g transform="translate(-278,2) scale(1,1)"><path fill="none" stroke="#000000" d="M 1019 1224 L 1109 1224" stroke-miterlimit="10"/></g><g transform="translate(-278,2) scale(1,1)"><path fill="#000000" stroke="none" d="M 1098.837325142376 1228.2095177560159 L 1109 1224 L 1098.837325142376 1219.7904822439841"/></g><g transform="translate(-278,2) scale(1,1)"><path fill="none" stroke="#000000" d="M 1098.837325142376 1228.2095177560159 L 1109 1224 L 1098.837325142376 1219.7904822439841 L 1098.837325142376 1228.2095177560159" stroke-miterlimit="10"/></g><g transform="translate(-278,2) scale(1,1)"><g><path fill="none" stroke="none"/><text fill="#000000" stroke="none" font-family="Arial" font-size="13px" font-style="normal" font-weight="normal" text-decoration="none" x="1030.5" y="1219">23 : axios.get(url)</text></g></g><g transform="translate(-278,2) scale(1,1)"><rect fill="#7acff5" stroke="none" x="1109" y="1224" width="13" height="28"/></g><g transform="translate(-278,2) scale(1,1)"><path fill="none" stroke="#000000" d="M 1109 1224 L 1122 1224 L 1122 1252 L 1109 1252 L 1109 1224 Z Z" stroke-miterlimit="10"/></g><g transform="translate(-278,2) scale(1,1)"><path fill="none" stroke="#000000" d="M 1116 1267 L 1297 1267" stroke-miterlimit="10"/></g><g transform="translate(-278,2) scale(1,1)"><path fill="#000000" stroke="none" d="M 1286.837325142376 1271.2095177560159 L 1297 1267 L 1286.837325142376 1262.7904822439841"/></g><g transform="translate(-278,2) scale(1,1)"><path fill="none" stroke="#000000" d="M 1286.837325142376 1271.2095177560159 L 1297 1267 L 1286.837325142376 1262.7904822439841 L 1286.837325142376 1271.2095177560159" stroke-miterlimit="10"/></g><g transform="translate(-278,2) scale(1,1)"><g><path fill="none" stroke="none"/><text fill="#000000" stroke="none" font-family="Arial" font-size="13px" font-style="normal" font-weight="normal" text-decoration="none" x="1146.22998046875" y="1262">24 : get(getAllModal)</text></g></g><g transform="translate(-278,2) scale(1,1)"><rect fill="#7acff5" stroke="none" x="1297" y="1267" width="13" height="28"/></g><g transform="translate(-278,2) scale(1,1)"><path fill="none" stroke="#000000" d="M 1297 1267 L 1310 1267 L 1310 1295 L 1297 1295 L 1297 1267 Z Z" stroke-miterlimit="10"/></g><g transform="translate(-278,2) scale(1,1)"><path fill="none" stroke="#000000" d="M 1304 1300 L 1381 1300" stroke-miterlimit="10"/></g><g transform="translate(-278,2) scale(1,1)"><path fill="#000000" stroke="none" d="M 1370.837325142376 1304.2095177560159 L 1381 1300 L 1370.837325142376 1295.7904822439841"/></g><g transform="translate(-278,2) scale(1,1)"><path fill="none" stroke="#000000" d="M 1370.837325142376 1304.2095177560159 L 1381 1300 L 1370.837325142376 1295.7904822439841 L 1370.837325142376 1304.2095177560159" stroke-miterlimit="10"/></g><g transform="translate(-278,2) scale(1,1)"><g><path fill="none" stroke="none"/><text fill="#000000" stroke="none" font-family="Arial" font-size="13px" font-style="normal" font-weight="normal" text-decoration="none" x="1294.5" y="1283">25 : initialize modal</text></g></g><g transform="translate(-278,2) scale(1,1)"><rect fill="#7acff5" stroke="none" x="1381" y="1300" width="13" height="28"/></g><g transform="translate(-278,2) scale(1,1)"><path fill="none" stroke="#000000" d="M 1381 1300 L 1394 1300 L 1394 1328 L 1381 1328 L 1381 1300 Z Z" stroke-miterlimit="10"/></g><g transform="translate(-278,2) scale(1,1)"><path fill="none" stroke="#000000" d="M 1388 1328 L 1474 1328" stroke-miterlimit="10"/></g><g transform="translate(-278,2) scale(1,1)"><path fill="#000000" stroke="none" d="M 1463.837325142376 1332.2095177560159 L 1474 1328 L 1463.837325142376 1323.7904822439841"/></g><g transform="translate(-278,2) scale(1,1)"><path fill="none" stroke="#000000" d="M 1463.837325142376 1332.2095177560159 L 1474 1328 L 1463.837325142376 1323.7904822439841 L 1463.837325142376 1332.2095177560159" stroke-miterlimit="10"/></g><g transform="translate(-278,2) scale(1,1)"><g><path fill="none" stroke="none"/><text fill="#000000" stroke="none" font-family="Arial" font-size="13px" font-style="normal" font-weight="normal" text-decoration="none" x="1399.5" y="1323">26 : modal.find</text></g></g><g transform="translate(-278,2) scale(1,1)"><rect fill="#38ff38" stroke="none" x="1474" y="1328" width="13" height="28"/></g><g transform="translate(-278,2) scale(1,1)"><path fill="none" stroke="#000000" d="M 1474 1328 L 1487 1328 L 1487 1356 L 1474 1356 L 1474 1328 Z Z" stroke-miterlimit="10"/></g><g transform="translate(-278,2) scale(1,1)"><path fill="none" stroke="#000000" d="M 1304 1360 L 722 1360" stroke-miterlimit="10"/></g><g transform="translate(-278,2) scale(1,1)"><path fill="#000000" stroke="none" d="M 732.1626748576241 1355.7904822439841 L 722 1360 L 732.1626748576241 1364.2095177560159"/></g><g transform="translate(-278,2) scale(1,1)"><path fill="none" stroke="#000000" d="M 732.1626748576241 1355.7904822439841 L 722 1360 L 732.1626748576241 1364.2095177560159 L 732.1626748576241 1355.7904822439841" stroke-miterlimit="10"/></g><g transform="translate(-278,2) scale(1,1)"><g><path fill="none" stroke="none"/><text fill="#000000" stroke="none" font-family="Arial" font-size="13px" font-style="normal" font-weight="normal" text-decoration="none" x="929.5" y="1375">27 : return json(sucess,data)</text></g></g><g transform="translate(-278,2) scale(1,1)"><rect fill="#38ff38" stroke="none" x="709" y="1360" width="13" height="28"/></g><g transform="translate(-278,2) scale(1,1)"><path fill="none" stroke="#000000" d="M 709 1360 L 722 1360 L 722 1388 L 709 1388 L 709 1360 Z Z" stroke-miterlimit="10"/></g><g transform="translate(-278,2) scale(1,1)"><path fill="none" stroke="#000000" d="M 716 1400 L 586 1400" stroke-miterlimit="10"/></g><g transform="translate(-278,2) scale(1,1)"><path fill="#000000" stroke="none" d="M 596.1626748576241 1395.7904822439841 L 586 1400 L 596.1626748576241 1404.2095177560159"/></g><g transform="translate(-278,2) scale(1,1)"><path fill="none" stroke="#000000" d="M 596.1626748576241 1395.7904822439841 L 586 1400 L 596.1626748576241 1404.2095177560159 L 596.1626748576241 1395.7904822439841" stroke-miterlimit="10"/></g><g transform="translate(-278,2) scale(1,1)"><g><path fill="none" stroke="none"/><text fill="#000000" stroke="none" font-family="Arial" font-size="13px" font-style="normal" font-weight="normal" text-decoration="none" x="624.838623046875" y="1415">28 : data</text></g></g><g transform="translate(-278,2) scale(1,1)"><rect fill="#38ff38" stroke="none" x="573" y="1400" width="13" height="28"/></g><g transform="translate(-278,2) scale(1,1)"><path fill="none" stroke="#000000" d="M 573 1400 L 586 1400 L 586 1428 L 573 1428 L 573 1400 Z Z" stroke-miterlimit="10"/></g><g transform="translate(-278,2) scale(1,1)"><path fill="none" stroke="#000000" d="M 1304 1456 L 722 1456" stroke-miterlimit="10"/></g><g transform="translate(-278,2) scale(1,1)"><path fill="#000000" stroke="none" d="M 732.1626748576241 1451.7904822439841 L 722 1456 L 732.1626748576241 1460.2095177560159"/></g><g transform="translate(-278,2) scale(1,1)"><path fill="none" stroke="#000000" d="M 732.1626748576241 1451.7904822439841 L 722 1456 L 732.1626748576241 1460.2095177560159 L 732.1626748576241 1451.7904822439841" stroke-miterlimit="10"/></g><g transform="translate(-278,2) scale(1,1)"><g><path fill="none" stroke="none"/><text fill="#000000" stroke="none" font-family="Arial" font-size="13px" font-style="normal" font-weight="normal" text-decoration="none" x="931.5" y="1471">29 : return message("error")</text></g></g><g transform="translate(-278,2) scale(1,1)"><rect fill="#38ff38" stroke="none" x="709" y="1456" width="13" height="28"/></g><g transform="translate(-278,2) scale(1,1)"><path fill="none" stroke="#000000" d="M 709 1456 L 722 1456 L 722 1484 L 709 1484 L 709 1456 Z Z" stroke-miterlimit="10"/></g><g transform="translate(-278,2) scale(1,1)"><path fill="none" stroke="#000000" d="M 716 1496 L 586 1496" stroke-miterlimit="10"/></g><g transform="translate(-278,2) scale(1,1)"><path fill="#000000" stroke="none" d="M 596.1626748576241 1491.7904822439841 L 586 1496 L 596.1626748576241 1500.2095177560159"/></g><g transform="translate(-278,2) scale(1,1)"><path fill="none" stroke="#000000" d="M 596.1626748576241 1491.7904822439841 L 586 1496 L 596.1626748576241 1500.2095177560159 L 596.1626748576241 1491.7904822439841" stroke-miterlimit="10"/></g><g transform="translate(-278,2) scale(1,1)"><g><path fill="none" stroke="none"/><text fill="#000000" stroke="none" font-family="Arial" font-size="13px" font-style="normal" font-weight="normal" text-decoration="none" x="623.765869140625" y="1511">30 : error</text></g></g><g transform="translate(-278,2) scale(1,1)"><rect fill="#38ff38" stroke="none" x="573" y="1496" width="13" height="28"/></g><g transform="translate(-278,2) scale(1,1)"><path fill="none" stroke="#000000" d="M 573 1496 L 586 1496 L 586 1524 L 573 1524 L 573 1496 Z Z" stroke-miterlimit="10"/></g><g transform="translate(-278,2) scale(1,1)"><path fill="none" stroke="#000000" d="M 356 1624 L 458 1624" stroke-miterlimit="10"/></g><g transform="translate(-278,2) scale(1,1)"><path fill="#000000" stroke="none" d="M 447.83732514237585 1628.2095177560159 L 458 1624 L 447.83732514237585 1619.7904822439841"/></g><g transform="translate(-278,2) scale(1,1)"><path fill="none" stroke="#000000" d="M 447.83732514237585 1628.2095177560159 L 458 1624 L 447.83732514237585 1619.7904822439841 L 447.83732514237585 1628.2095177560159" stroke-miterlimit="10"/></g><g transform="translate(-278,2) scale(1,1)"><g><path fill="none" stroke="none"/><text fill="#000000" stroke="none" font-family="Arial" font-size="13px" font-style="normal" font-weight="normal" text-decoration="none" x="358.5" y="1619">31 : click Update</text></g></g><g transform="translate(-278,2) scale(1,1)"><rect fill="#fff1aa" stroke="none" x="458" y="1624" width="13" height="28"/></g><g transform="translate(-278,2) scale(1,1)"><path fill="none" stroke="#000000" d="M 458 1624 L 471 1624 L 471 1652 L 458 1652 L 458 1624 Z Z" stroke-miterlimit="10"/></g><g transform="translate(-278,2) scale(1,1)"><path fill="none" stroke="#000000" d="M 356 1666 L 458 1666" stroke-miterlimit="10"/></g><g transform="translate(-278,2) scale(1,1)"><path fill="#000000" stroke="none" d="M 447.83732514237585 1670.2095177560159 L 458 1666 L 447.83732514237585 1661.7904822439841"/></g><g transform="translate(-278,2) scale(1,1)"><path fill="none" stroke="#000000" d="M 447.83732514237585 1670.2095177560159 L 458 1666 L 447.83732514237585 1661.7904822439841 L 447.83732514237585 1670.2095177560159" stroke-miterlimit="10"/></g><g transform="translate(-278,2) scale(1,1)"><g><path fill="none" stroke="none"/><text fill="#000000" stroke="none" font-family="Arial" font-size="13px" font-style="normal" font-weight="normal" text-decoration="none" x="362.5" y="1661">32 : modify info</text></g></g><g transform="translate(-278,2) scale(1,1)"><rect fill="#fff1aa" stroke="none" x="458" y="1666" width="13" height="28"/></g><g transform="translate(-278,2) scale(1,1)"><path fill="none" stroke="#000000" d="M 458 1666 L 471 1666 L 471 1694 L 458 1694 L 458 1666 Z Z" stroke-miterlimit="10"/></g><g transform="translate(-278,2) scale(1,1)"><path fill="none" stroke="#000000" d="M 356 1707 L 458 1707" stroke-miterlimit="10"/></g><g transform="translate(-278,2) scale(1,1)"><path fill="#000000" stroke="none" d="M 447.83732514237585 1711.2095177560159 L 458 1707 L 447.83732514237585 1702.7904822439841"/></g><g transform="translate(-278,2) scale(1,1)"><path fill="none" stroke="#000000" d="M 447.83732514237585 1711.2095177560159 L 458 1707 L 447.83732514237585 1702.7904822439841 L 447.83732514237585 1711.2095177560159" stroke-miterlimit="10"/></g><g transform="translate(-278,2) scale(1,1)"><g><path fill="none" stroke="none"/><text fill="#000000" stroke="none" font-family="Arial" font-size="13px" font-style="normal" font-weight="normal" text-decoration="none" x="375.344970703125" y="1702">33 : submit</text></g></g><g transform="translate(-278,2) scale(1,1)"><rect fill="#fff1aa" stroke="none" x="458" y="1707" width="13" height="28"/></g><g transform="translate(-278,2) scale(1,1)"><path fill="none" stroke="#000000" d="M 458 1707 L 471 1707 L 471 1735 L 458 1735 L 458 1707 Z Z" stroke-miterlimit="10"/></g><g transform="translate(-278,2) scale(1,1)"><path fill="none" stroke="#000000" d="M 465 1752 L 709 1752" stroke-miterlimit="10"/></g><g transform="translate(-278,2) scale(1,1)"><path fill="#000000" stroke="none" d="M 698.8373251423759 1756.2095177560159 L 709 1752 L 698.8373251423758 1747.7904822439841"/></g><g transform="translate(-278,2) scale(1,1)"><path fill="none" stroke="#000000" d="M 698.8373251423759 1756.2095177560159 L 709 1752 L 698.8373251423758 1747.7904822439841 L 698.8373251423759 1756.2095177560159" stroke-miterlimit="10"/></g><g transform="translate(-278,2) scale(1,1)"><g><path fill="none" stroke="none"/><text fill="#000000" stroke="none" font-family="Arial" font-size="13px" font-style="normal" font-weight="normal" text-decoration="none" x="499.5" y="1747">34 : dispatch(onUpdateModal)</text></g></g><g transform="translate(-278,2) scale(1,1)"><rect fill="#fff1aa" stroke="none" x="709" y="1752" width="13" height="28"/></g><g transform="translate(-278,2) scale(1,1)"><path fill="none" stroke="#000000" d="M 709 1752 L 722 1752 L 722 1780 L 709 1780 L 709 1752 Z Z" stroke-miterlimit="10"/></g><g transform="translate(-278,2) scale(1,1)"><path fill="none" stroke="#000000" d="M 716 1784 L 853 1784" stroke-miterlimit="10"/></g><g transform="translate(-278,2) scale(1,1)"><path fill="#000000" stroke="none" d="M 842.8373251423759 1788.2095177560159 L 853 1784 L 842.8373251423758 1779.7904822439841"/></g><g transform="translate(-278,2) scale(1,1)"><path fill="none" stroke="#000000" d="M 842.8373251423759 1788.2095177560159 L 853 1784 L 842.8373251423758 1779.7904822439841 L 842.8373251423759 1788.2095177560159" stroke-miterlimit="10"/></g><g transform="translate(-278,2) scale(1,1)"><g><path fill="none" stroke="none"/><text fill="#000000" stroke="none" font-family="Arial" font-size="13px" font-style="normal" font-weight="normal" text-decoration="none" x="735.1708984375" y="1771">35 : updateModalApi</text></g></g><g transform="translate(-278,2) scale(1,1)"><rect fill="#fff1aa" stroke="none" x="853" y="1784" width="13" height="28"/></g><g transform="translate(-278,2) scale(1,1)"><path fill="none" stroke="#000000" d="M 853 1784 L 866 1784 L 866 1812 L 853 1812 L 853 1784 Z Z" stroke-miterlimit="10"/></g><g transform="translate(-278,2) scale(1,1)"><path fill="none" stroke="#000000" d="M 860 1817 L 1012 1817" stroke-miterlimit="10"/></g><g transform="translate(-278,2) scale(1,1)"><path fill="#000000" stroke="none" d="M 1001.8373251423759 1821.2095177560159 L 1012 1817 L 1001.8373251423758 1812.7904822439841"/></g><g transform="translate(-278,2) scale(1,1)"><path fill="none" stroke="#000000" d="M 1001.8373251423759 1821.2095177560159 L 1012 1817 L 1001.8373251423758 1812.7904822439841 L 1001.8373251423759 1821.2095177560159" stroke-miterlimit="10"/></g><g transform="translate(-278,2) scale(1,1)"><g><path fill="none" stroke="none"/><text fill="#000000" stroke="none" font-family="Arial" font-size="13px" font-style="normal" font-weight="normal" text-decoration="none" x="871.5" y="1803">36 : api.patch(urlId,modal)</text></g></g><g transform="translate(-278,2) scale(1,1)"><rect fill="#fff1aa" stroke="none" x="1012" y="1817" width="13" height="28"/></g><g transform="translate(-278,2) scale(1,1)"><path fill="none" stroke="#000000" d="M 1012 1817 L 1025 1817 L 1025 1845 L 1012 1845 L 1012 1817 Z Z" stroke-miterlimit="10"/></g><g transform="translate(-278,2) scale(1,1)"><path fill="none" stroke="#000000" d="M 1019 1856 L 1109 1856" stroke-miterlimit="10"/></g><g transform="translate(-278,2) scale(1,1)"><path fill="#000000" stroke="none" d="M 1098.837325142376 1860.2095177560159 L 1109 1856 L 1098.837325142376 1851.7904822439841"/></g><g transform="translate(-278,2) scale(1,1)"><path fill="none" stroke="#000000" d="M 1098.837325142376 1860.2095177560159 L 1109 1856 L 1098.837325142376 1851.7904822439841 L 1098.837325142376 1860.2095177560159" stroke-miterlimit="10"/></g><g transform="translate(-278,2) scale(1,1)"><g><path fill="none" stroke="none"/><text fill="#000000" stroke="none" font-family="Arial" font-size="13px" font-style="normal" font-weight="normal" text-decoration="none" x="1007.5" y="1851">37 : aixos.patch(url,data)</text></g></g><g transform="translate(-278,2) scale(1,1)"><rect fill="#7acff5" stroke="none" x="1109" y="1856" width="13" height="28"/></g><g transform="translate(-278,2) scale(1,1)"><path fill="none" stroke="#000000" d="M 1109 1856 L 1122 1856 L 1122 1884 L 1109 1884 L 1109 1856 Z Z" stroke-miterlimit="10"/></g><g transform="translate(-278,2) scale(1,1)"><path fill="none" stroke="#000000" d="M 1116 1888 L 1199 1888" stroke-miterlimit="10"/></g><g transform="translate(-278,2) scale(1,1)"><path fill="#000000" stroke="none" d="M 1188.837325142376 1892.2095177560159 L 1199 1888 L 1188.837325142376 1883.7904822439841"/></g><g transform="translate(-278,2) scale(1,1)"><path fill="none" stroke="#000000" d="M 1188.837325142376 1892.2095177560159 L 1199 1888 L 1188.837325142376 1883.7904822439841 L 1188.837325142376 1892.2095177560159" stroke-miterlimit="10"/></g><g transform="translate(-278,2) scale(1,1)"><g><path fill="none" stroke="none"/><text fill="#000000" stroke="none" font-family="Arial" font-size="13px" font-style="normal" font-weight="normal" text-decoration="none" x="1114.5" y="1883">38 : checkRole</text></g></g><g transform="translate(-278,2) scale(1,1)"><rect fill="#7acff5" stroke="none" x="1199" y="1888" width="13" height="28"/></g><g transform="translate(-278,2) scale(1,1)"><path fill="none" stroke="#000000" d="M 1199 1888 L 1212 1888 L 1212 1916 L 1199 1916 L 1199 1888 Z Z" stroke-miterlimit="10"/></g><g transform="translate(-278,2) scale(1,1)"><path fill="none" stroke="#000000" d="M 1206 1920 L 1297 1920" stroke-miterlimit="10"/></g><g transform="translate(-278,2) scale(1,1)"><path fill="#000000" stroke="none" d="M 1286.837325142376 1924.2095177560159 L 1297 1920 L 1286.837325142376 1915.7904822439841"/></g><g transform="translate(-278,2) scale(1,1)"><path fill="none" stroke="#000000" d="M 1286.837325142376 1924.2095177560159 L 1297 1920 L 1286.837325142376 1915.7904822439841 L 1286.837325142376 1924.2095177560159" stroke-miterlimit="10"/></g><g transform="translate(-278,2) scale(1,1)"><g><path fill="none" stroke="none"/><text fill="#000000" stroke="none" font-family="Arial" font-size="13px" font-style="normal" font-weight="normal" text-decoration="none" x="1150.5" y="1939">39 : patch(updateModal)</text></g></g><g transform="translate(-278,2) scale(1,1)"><rect fill="#7acff5" stroke="none" x="1297" y="1920" width="13" height="28"/></g><g transform="translate(-278,2) scale(1,1)"><path fill="none" stroke="#000000" d="M 1297 1920 L 1310 1920 L 1310 1948 L 1297 1948 L 1297 1920 Z Z" stroke-miterlimit="10"/></g><g transform="translate(-278,2) scale(1,1)"><path fill="none" stroke="#000000" d="M 1304 1952 L 1381 1952" stroke-miterlimit="10"/></g><g transform="translate(-278,2) scale(1,1)"><path fill="#000000" stroke="none" d="M 1370.837325142376 1956.2095177560159 L 1381 1952 L 1370.837325142376 1947.7904822439841"/></g><g transform="translate(-278,2) scale(1,1)"><path fill="none" stroke="#000000" d="M 1370.837325142376 1956.2095177560159 L 1381 1952 L 1370.837325142376 1947.7904822439841 L 1370.837325142376 1956.2095177560159" stroke-miterlimit="10"/></g><g transform="translate(-278,2) scale(1,1)"><g><path fill="none" stroke="none"/><text fill="#000000" stroke="none" font-family="Arial" font-size="13px" font-style="normal" font-weight="normal" text-decoration="none" x="1255.5" y="1971">40 : checkValidation</text></g></g><g transform="translate(-278,2) scale(1,1)"><rect fill="#7acff5" stroke="none" x="1381" y="1952" width="13" height="28"/></g><g transform="translate(-278,2) scale(1,1)"><path fill="none" stroke="#000000" d="M 1381 1952 L 1394 1952 L 1394 1980 L 1381 1980 L 1381 1952 Z Z" stroke-miterlimit="10"/></g><g transform="translate(-278,2) scale(1,1)"><path fill="none" stroke="#000000" d="M 1304 1992 L 722 1992" stroke-miterlimit="10"/></g><g transform="translate(-278,2) scale(1,1)"><path fill="#000000" stroke="none" d="M 732.1626748576241 1987.7904822439841 L 722 1992 L 732.1626748576241 1996.2095177560159"/></g><g transform="translate(-278,2) scale(1,1)"><path fill="none" stroke="#000000" d="M 732.1626748576241 1987.7904822439841 L 722 1992 L 732.1626748576241 1996.2095177560159 L 732.1626748576241 1987.7904822439841" stroke-miterlimit="10"/></g><g transform="translate(-278,2) scale(1,1)"><g><path fill="none" stroke="none"/><text fill="#000000" stroke="none" font-family="Arial" font-size="13px" font-style="normal" font-weight="normal" text-decoration="none" x="926.5" y="2007">41 : return json(success,data)</text></g></g><g transform="translate(-278,2) scale(1,1)"><rect fill="#38ff38" stroke="none" x="709" y="1992" width="13" height="28"/></g><g transform="translate(-278,2) scale(1,1)"><path fill="none" stroke="#000000" d="M 709 1992 L 722 1992 L 722 2020 L 709 2020 L 709 1992 Z Z" stroke-miterlimit="10"/></g><g transform="translate(-278,2) scale(1,1)"><path fill="none" stroke="#000000" d="M 1388 2016 L 1474 2016" stroke-miterlimit="10"/></g><g transform="translate(-278,2) scale(1,1)"><path fill="#000000" stroke="none" d="M 1463.837325142376 2020.2095177560159 L 1474 2016 L 1463.837325142376 2011.7904822439841"/></g><g transform="translate(-278,2) scale(1,1)"><path fill="none" stroke="#000000" d="M 1463.837325142376 2020.2095177560159 L 1474 2016 L 1463.837325142376 2011.7904822439841 L 1463.837325142376 2020.2095177560159" stroke-miterlimit="10"/></g><g transform="translate(-278,2) scale(1,1)"><g><path fill="none" stroke="none"/><text fill="#000000" stroke="none" font-family="Arial" font-size="13px" font-style="normal" font-weight="normal" text-decoration="none" x="1375.5" y="2035">42 : modal.save</text></g></g><g transform="translate(-278,2) scale(1,1)"><rect fill="#38ff38" stroke="none" x="1474" y="2016" width="13" height="28"/></g><g transform="translate(-278,2) scale(1,1)"><path fill="none" stroke="#000000" d="M 1474 2016 L 1487 2016 L 1487 2044 L 1474 2044 L 1474 2016 Z Z" stroke-miterlimit="10"/></g><g transform="translate(-278,2) scale(1,1)"><path fill="none" stroke="#000000" d="M 716 2032 L 586 2032" stroke-miterlimit="10"/></g><g transform="translate(-278,2) scale(1,1)"><path fill="#000000" stroke="none" d="M 596.1626748576241 2027.7904822439841 L 586 2032 L 596.1626748576241 2036.2095177560159"/></g><g transform="translate(-278,2) scale(1,1)"><path fill="none" stroke="#000000" d="M 596.1626748576241 2027.7904822439841 L 586 2032 L 596.1626748576241 2036.2095177560159 L 596.1626748576241 2027.7904822439841" stroke-miterlimit="10"/></g><g transform="translate(-278,2) scale(1,1)"><g><path fill="none" stroke="none"/><text fill="#000000" stroke="none" font-family="Arial" font-size="13px" font-style="normal" font-weight="normal" text-decoration="none" x="624.838623046875" y="2043">43 : data</text></g></g><g transform="translate(-278,2) scale(1,1)"><rect fill="#38ff38" stroke="none" x="573" y="2032" width="13" height="53"/></g><g transform="translate(-278,2) scale(1,1)"><path fill="none" stroke="#000000" d="M 573 2032 L 586 2032 L 586 2085 L 573 2085 L 573 2032 Z Z" stroke-miterlimit="10"/></g><g transform="translate(-278,2) scale(1,1)"><path fill="none" stroke="#000000" d="M 573 2080 L 471 2080" stroke-miterlimit="10"/></g><g transform="translate(-278,2) scale(1,1)"><path fill="#000000" stroke="none" d="M 481.16267485762415 2075.790482243984 L 471 2080 L 481.16267485762415 2084.209517756016"/></g><g transform="translate(-278,2) scale(1,1)"><path fill="none" stroke="#000000" d="M 481.16267485762415 2075.790482243984 L 471 2080 L 481.16267485762415 2084.209517756016 L 481.16267485762415 2075.790482243984" stroke-miterlimit="10"/></g><g transform="translate(-278,2) scale(1,1)"><g><path fill="none" stroke="none"/><text fill="#000000" stroke="none" font-family="Arial" font-size="13px" font-style="normal" font-weight="normal" text-decoration="none" x="478.864990234375" y="2095">44 : show alert</text></g></g><g transform="translate(-278,2) scale(1,1)"><rect fill="#38ff38" stroke="none" x="458" y="2080" width="13" height="39"/></g><g transform="translate(-278,2) scale(1,1)"><path fill="none" stroke="#000000" d="M 458 2080 L 471 2080 L 471 2119 L 458 2119 L 458 2080 Z Z" stroke-miterlimit="10"/></g><g transform="translate(-278,2) scale(1,1)"><path fill="none" stroke="#000000" d="M 1304 2176 L 722 2176" stroke-miterlimit="10"/></g><g transform="translate(-278,2) scale(1,1)"><path fill="#000000" stroke="none" d="M 732.1626748576241 2171.790482243984 L 722 2176 L 732.1626748576241 2180.209517756016"/></g><g transform="translate(-278,2) scale(1,1)"><path fill="none" stroke="#000000" d="M 732.1626748576241 2171.790482243984 L 722 2176 L 732.1626748576241 2180.209517756016 L 732.1626748576241 2171.790482243984" stroke-miterlimit="10"/></g><g transform="translate(-278,2) scale(1,1)"><g><path fill="none" stroke="none"/><text fill="#000000" stroke="none" font-family="Arial" font-size="13px" font-style="normal" font-weight="normal" text-decoration="none" x="931.5" y="2191">45 : return message("error")</text></g></g><g transform="translate(-278,2) scale(1,1)"><rect fill="#df3c3c" stroke="none" x="709" y="2176" width="13" height="28"/></g><g transform="translate(-278,2) scale(1,1)"><path fill="none" stroke="#000000" d="M 709 2176 L 722 2176 L 722 2204 L 709 2204 L 709 2176 Z Z" stroke-miterlimit="10"/></g><g transform="translate(-278,2) scale(1,1)"><path fill="none" stroke="#000000" d="M 716 2208 L 586 2208" stroke-miterlimit="10"/></g><g transform="translate(-278,2) scale(1,1)"><path fill="#000000" stroke="none" d="M 596.1626748576241 2203.790482243984 L 586 2208 L 596.1626748576241 2212.209517756016"/></g><g transform="translate(-278,2) scale(1,1)"><path fill="none" stroke="#000000" d="M 596.1626748576241 2203.790482243984 L 586 2208 L 596.1626748576241 2212.209517756016 L 596.1626748576241 2203.790482243984" stroke-miterlimit="10"/></g><g transform="translate(-278,2) scale(1,1)"><g><path fill="none" stroke="none"/><text fill="#000000" stroke="none" font-family="Arial" font-size="13px" font-style="normal" font-weight="normal" text-decoration="none" x="605.5" y="2223">46 : throw error</text></g></g><g transform="translate(-278,2) scale(1,1)"><rect fill="#df3c3c" stroke="none" x="573" y="2208" width="13" height="28"/></g><g transform="translate(-278,2) scale(1,1)"><path fill="none" stroke="#000000" d="M 573 2208 L 586 2208 L 586 2236 L 573 2236 L 573 2208 Z Z" stroke-miterlimit="10"/></g><g transform="translate(-278,2) scale(1,1)"><path fill="none" stroke="#000000" d="M 573 2216 L 471 2216" stroke-miterlimit="10"/></g><g transform="translate(-278,2) scale(1,1)"><path fill="#000000" stroke="none" d="M 481.16267485762415 2211.790482243984 L 471 2216 L 481.16267485762415 2220.209517756016"/></g><g transform="translate(-278,2) scale(1,1)"><path fill="none" stroke="#000000" d="M 481.16267485762415 2211.790482243984 L 471 2216 L 481.16267485762415 2220.209517756016 L 481.16267485762415 2211.790482243984" stroke-miterlimit="10"/></g><g transform="translate(-278,2) scale(1,1)"><g><path fill="none" stroke="none"/><text fill="#000000" stroke="none" font-family="Arial" font-size="13px" font-style="normal" font-weight="normal" text-decoration="none" x="478.864990234375" y="2231">47 : show alert</text></g></g><g transform="translate(-278,2) scale(1,1)"><rect fill="#df3c3c" stroke="none" x="458" y="2216" width="13" height="28"/></g><g transform="translate(-278,2) scale(1,1)"><path fill="none" stroke="#000000" d="M 458 2216 L 471 2216 L 471 2244 L 458 2244 L 458 2216 Z Z" stroke-miterlimit="10"/></g><g transform="translate(-278,2) scale(1,1)"><path fill="none" stroke="#000000" d="M 356 2336 L 458 2336" stroke-miterlimit="10"/></g><g transform="translate(-278,2) scale(1,1)"><path fill="#000000" stroke="none" d="M 447.83732514237585 2340.209517756016 L 458 2336 L 447.83732514237585 2331.790482243984"/></g><g transform="translate(-278,2) scale(1,1)"><path fill="none" stroke="#000000" d="M 447.83732514237585 2340.209517756016 L 458 2336 L 447.83732514237585 2331.790482243984 L 447.83732514237585 2340.209517756016" stroke-miterlimit="10"/></g><g transform="translate(-278,2) scale(1,1)"><g><path fill="none" stroke="none"/><text fill="#000000" stroke="none" font-family="Arial" font-size="13px" font-style="normal" font-weight="normal" text-decoration="none" x="361.5" y="2331">48 : click Delete</text></g></g><g transform="translate(-278,2) scale(1,1)"><rect fill="#fff1aa" stroke="none" x="458" y="2336" width="13" height="28"/></g><g transform="translate(-278,2) scale(1,1)"><path fill="none" stroke="#000000" d="M 458 2336 L 471 2336 L 471 2364 L 458 2364 L 458 2336 Z Z" stroke-miterlimit="10"/></g><g transform="translate(-278,2) scale(1,1)"><path fill="none" stroke="#000000" d="M 465 2376 L 709 2376" stroke-miterlimit="10"/></g><g transform="translate(-278,2) scale(1,1)"><path fill="#000000" stroke="none" d="M 698.8373251423759 2380.209517756016 L 709 2376 L 698.8373251423758 2371.790482243984"/></g><g transform="translate(-278,2) scale(1,1)"><path fill="none" stroke="#000000" d="M 698.8373251423759 2380.209517756016 L 709 2376 L 698.8373251423758 2371.790482243984 L 698.8373251423759 2380.209517756016" stroke-miterlimit="10"/></g><g transform="translate(-278,2) scale(1,1)"><g><path fill="none" stroke="none"/><text fill="#000000" stroke="none" font-family="Arial" font-size="13px" font-style="normal" font-weight="normal" text-decoration="none" x="502.5" y="2371">49 : dispatch(onDeleteModal)</text></g></g><g transform="translate(-278,2) scale(1,1)"><rect fill="#fff1aa" stroke="none" x="709" y="2376" width="13" height="28"/></g><g transform="translate(-278,2) scale(1,1)"><path fill="none" stroke="#000000" d="M 709 2376 L 722 2376 L 722 2404 L 709 2404 L 709 2376 Z Z" stroke-miterlimit="10"/></g><g transform="translate(-278,2) scale(1,1)"><path fill="none" stroke="#000000" d="M 722 2400 L 853 2400" stroke-miterlimit="10"/></g><g transform="translate(-278,2) scale(1,1)"><path fill="#000000" stroke="none" d="M 842.8373251423759 2404.209517756016 L 853 2400 L 842.8373251423758 2395.790482243984"/></g><g transform="translate(-278,2) scale(1,1)"><path fill="none" stroke="#000000" d="M 842.8373251423759 2404.209517756016 L 853 2400 L 842.8373251423758 2395.790482243984 L 842.8373251423759 2404.209517756016" stroke-miterlimit="10"/></g><g transform="translate(-278,2) scale(1,1)"><g><path fill="none" stroke="none"/><text fill="#000000" stroke="none" font-family="Arial" font-size="13px" font-style="normal" font-weight="normal" text-decoration="none" x="729.5" y="2395">50 : deleteModalApi</text></g></g><g transform="translate(-278,2) scale(1,1)"><rect fill="#fff1aa" stroke="none" x="853" y="2400" width="13" height="28"/></g><g transform="translate(-278,2) scale(1,1)"><path fill="none" stroke="#000000" d="M 853 2400 L 866 2400 L 866 2428 L 853 2428 L 853 2400 Z Z" stroke-miterlimit="10"/></g><g transform="translate(-278,2) scale(1,1)"><path fill="none" stroke="#000000" d="M 860 2432 L 1012 2432" stroke-miterlimit="10"/></g><g transform="translate(-278,2) scale(1,1)"><path fill="#000000" stroke="none" d="M 1001.8373251423759 2436.209517756016 L 1012 2432 L 1001.8373251423758 2427.790482243984"/></g><g transform="translate(-278,2) scale(1,1)"><path fill="none" stroke="#000000" d="M 1001.8373251423759 2436.209517756016 L 1012 2432 L 1001.8373251423758 2427.790482243984 L 1001.8373251423759 2436.209517756016" stroke-miterlimit="10"/></g><g transform="translate(-278,2) scale(1,1)"><g><path fill="none" stroke="none"/><text fill="#000000" stroke="none" font-family="Arial" font-size="13px" font-style="normal" font-weight="normal" text-decoration="none" x="878.5" y="2427">51 : api.delete(urlId)</text></g></g><g transform="translate(-278,2) scale(1,1)"><rect fill="#fff1aa" stroke="none" x="1012" y="2432" width="13" height="28"/></g><g transform="translate(-278,2) scale(1,1)"><path fill="none" stroke="#000000" d="M 1012 2432 L 1025 2432 L 1025 2460 L 1012 2460 L 1012 2432 Z Z" stroke-miterlimit="10"/></g><g transform="translate(-278,2) scale(1,1)"><path fill="none" stroke="#000000" d="M 1025 2456 L 1109 2456" stroke-miterlimit="10"/></g><g transform="translate(-278,2) scale(1,1)"><path fill="#000000" stroke="none" d="M 1098.837325142376 2460.209517756016 L 1109 2456 L 1098.837325142376 2451.790482243984"/></g><g transform="translate(-278,2) scale(1,1)"><path fill="none" stroke="#000000" d="M 1098.837325142376 2460.209517756016 L 1109 2456 L 1098.837325142376 2451.790482243984 L 1098.837325142376 2460.209517756016" stroke-miterlimit="10"/></g><g transform="translate(-278,2) scale(1,1)"><g><path fill="none" stroke="none"/><text fill="#000000" stroke="none" font-family="Arial" font-size="13px" font-style="normal" font-weight="normal" text-decoration="none" x="1038.5" y="2443">52 : axios.delete(urlId)</text></g></g><g transform="translate(-278,2) scale(1,1)"><rect fill="#7acff5" stroke="none" x="1109" y="2456" width="13" height="28"/></g><g transform="translate(-278,2) scale(1,1)"><path fill="none" stroke="#000000" d="M 1109 2456 L 1122 2456 L 1122 2484 L 1109 2484 L 1109 2456 Z Z" stroke-miterlimit="10"/></g><g transform="translate(-278,2) scale(1,1)"><path fill="none" stroke="#000000" d="M 1122 2480 L 1199 2480" stroke-miterlimit="10"/></g><g transform="translate(-278,2) scale(1,1)"><path fill="#000000" stroke="none" d="M 1188.837325142376 2484.209517756016 L 1199 2480 L 1188.837325142376 2475.790482243984"/></g><g transform="translate(-278,2) scale(1,1)"><path fill="none" stroke="#000000" d="M 1188.837325142376 2484.209517756016 L 1199 2480 L 1188.837325142376 2475.790482243984 L 1188.837325142376 2484.209517756016" stroke-miterlimit="10"/></g><g transform="translate(-278,2) scale(1,1)"><g><path fill="none" stroke="none"/><text fill="#000000" stroke="none" font-family="Arial" font-size="13px" font-style="normal" font-weight="normal" text-decoration="none" x="1117.5" y="2475">53 : checkRole</text></g></g><g transform="translate(-278,2) scale(1,1)"><rect fill="#7acff5" stroke="none" x="1199" y="2480" width="13" height="28"/></g><g transform="translate(-278,2) scale(1,1)"><path fill="none" stroke="#000000" d="M 1199 2480 L 1212 2480 L 1212 2508 L 1199 2508 L 1199 2480 Z Z" stroke-miterlimit="10"/></g><g transform="translate(-278,2) scale(1,1)"><path fill="none" stroke="#000000" d="M 1206 2512 L 1297 2512" stroke-miterlimit="10"/></g><g transform="translate(-278,2) scale(1,1)"><path fill="#000000" stroke="none" d="M 1286.837325142376 2516.209517756016 L 1297 2512 L 1286.837325142376 2507.790482243984"/></g><g transform="translate(-278,2) scale(1,1)"><path fill="none" stroke="#000000" d="M 1286.837325142376 2516.209517756016 L 1297 2512 L 1286.837325142376 2507.790482243984 L 1286.837325142376 2516.209517756016" stroke-miterlimit="10"/></g><g transform="translate(-278,2) scale(1,1)"><g><path fill="none" stroke="none"/><text fill="#000000" stroke="none" font-family="Arial" font-size="13px" font-style="normal" font-weight="normal" text-decoration="none" x="1180.5" y="2507">54 : delete(deleteModal)</text></g></g><g transform="translate(-278,2) scale(1,1)"><rect fill="#7acff5" stroke="none" x="1297" y="2512" width="13" height="28"/></g><g transform="translate(-278,2) scale(1,1)"><path fill="none" stroke="#000000" d="M 1297 2512 L 1310 2512 L 1310 2540 L 1297 2540 L 1297 2512 Z Z" stroke-miterlimit="10"/></g><g transform="translate(-278,2) scale(1,1)"><path fill="none" stroke="#000000" d="M 1304 2544 L 1381 2544" stroke-miterlimit="10"/></g><g transform="translate(-278,2) scale(1,1)"><path fill="#000000" stroke="none" d="M 1370.837325142376 2548.209517756016 L 1381 2544 L 1370.837325142376 2539.790482243984"/></g><g transform="translate(-278,2) scale(1,1)"><path fill="none" stroke="#000000" d="M 1370.837325142376 2548.209517756016 L 1381 2544 L 1370.837325142376 2539.790482243984 L 1370.837325142376 2548.209517756016" stroke-miterlimit="10"/></g><g transform="translate(-278,2) scale(1,1)"><g><path fill="none" stroke="none"/><text fill="#000000" stroke="none" font-family="Arial" font-size="13px" font-style="normal" font-weight="normal" text-decoration="none" x="1284.5" y="2539">55 : checkValidation</text></g></g><g transform="translate(-278,2) scale(1,1)"><rect fill="#7acff5" stroke="none" x="1381" y="2544" width="13" height="28"/></g><g transform="translate(-278,2) scale(1,1)"><path fill="none" stroke="#000000" d="M 1381 2544 L 1394 2544 L 1394 2572 L 1381 2572 L 1381 2544 Z Z" stroke-miterlimit="10"/></g><g transform="translate(-278,2) scale(1,1)"><path fill="none" stroke="#000000" d="M 1304 2601 L 722 2601" stroke-miterlimit="10"/></g><g transform="translate(-278,2) scale(1,1)"><path fill="#000000" stroke="none" d="M 732.1626748576241 2596.790482243984 L 722 2601 L 732.1626748576241 2605.209517756016"/></g><g transform="translate(-278,2) scale(1,1)"><path fill="none" stroke="#000000" d="M 732.1626748576241 2596.790482243984 L 722 2601 L 732.1626748576241 2605.209517756016 L 732.1626748576241 2596.790482243984" stroke-miterlimit="10"/></g><g transform="translate(-278,2) scale(1,1)"><g><path fill="none" stroke="none"/><text fill="#000000" stroke="none" font-family="Arial" font-size="13px" font-style="normal" font-weight="normal" text-decoration="none" x="926.5" y="2616">56 : return json(success,data)</text></g></g><g transform="translate(-278,2) scale(1,1)"><rect fill="#38ff38" stroke="none" x="709" y="2601" width="13" height="28"/></g><g transform="translate(-278,2) scale(1,1)"><path fill="none" stroke="#000000" d="M 709 2601 L 722 2601 L 722 2629 L 709 2629 L 709 2601 Z Z" stroke-miterlimit="10"/></g><g transform="translate(-278,2) scale(1,1)"><path fill="none" stroke="#000000" d="M 1388 2613 L 1474 2613" stroke-miterlimit="10"/></g><g transform="translate(-278,2) scale(1,1)"><path fill="#000000" stroke="none" d="M 1463.837325142376 2617.209517756016 L 1474 2613 L 1463.837325142376 2608.790482243984"/></g><g transform="translate(-278,2) scale(1,1)"><path fill="none" stroke="#000000" d="M 1463.837325142376 2617.209517756016 L 1474 2613 L 1463.837325142376 2608.790482243984 L 1463.837325142376 2617.209517756016" stroke-miterlimit="10"/></g><g transform="translate(-278,2) scale(1,1)"><g><path fill="none" stroke="none"/><text fill="#000000" stroke="none" font-family="Arial" font-size="13px" font-style="normal" font-weight="normal" text-decoration="none" x="1385.5" y="2608">57 : modal.save</text></g></g><g transform="translate(-278,2) scale(1,1)"><rect fill="#38ff38" stroke="none" x="1474" y="2613" width="13" height="28"/></g><g transform="translate(-278,2) scale(1,1)"><path fill="none" stroke="#000000" d="M 1474 2613 L 1487 2613 L 1487 2641 L 1474 2641 L 1474 2613 Z Z" stroke-miterlimit="10"/></g><g transform="translate(-278,2) scale(1,1)"><path fill="none" stroke="#000000" d="M 716 2633 L 586 2633" stroke-miterlimit="10"/></g><g transform="translate(-278,2) scale(1,1)"><path fill="#000000" stroke="none" d="M 596.1626748576241 2628.790482243984 L 586 2633 L 596.1626748576241 2637.209517756016"/></g><g transform="translate(-278,2) scale(1,1)"><path fill="none" stroke="#000000" d="M 596.1626748576241 2628.790482243984 L 586 2633 L 596.1626748576241 2637.209517756016 L 596.1626748576241 2628.790482243984" stroke-miterlimit="10"/></g><g transform="translate(-278,2) scale(1,1)"><g><path fill="none" stroke="none"/><text fill="#000000" stroke="none" font-family="Arial" font-size="13px" font-style="normal" font-weight="normal" text-decoration="none" x="624.838623046875" y="2648">58 : data</text></g></g><g transform="translate(-278,2) scale(1,1)"><rect fill="#38ff38" stroke="none" x="573" y="2633" width="13" height="28"/></g><g transform="translate(-278,2) scale(1,1)"><path fill="none" stroke="#000000" d="M 573 2633 L 586 2633 L 586 2661 L 573 2661 L 573 2633 Z Z" stroke-miterlimit="10"/></g><g transform="translate(-278,2) scale(1,1)"><path fill="none" stroke="#000000" d="M 580 2664 L 471 2664" stroke-miterlimit="10"/></g><g transform="translate(-278,2) scale(1,1)"><path fill="#000000" stroke="none" d="M 481.16267485762415 2659.790482243984 L 471 2664 L 481.16267485762415 2668.209517756016"/></g><g transform="translate(-278,2) scale(1,1)"><path fill="none" stroke="#000000" d="M 481.16267485762415 2659.790482243984 L 471 2664 L 481.16267485762415 2668.209517756016 L 481.16267485762415 2659.790482243984" stroke-miterlimit="10"/></g><g transform="translate(-278,2) scale(1,1)"><g><path fill="none" stroke="none"/><text fill="#000000" stroke="none" font-family="Arial" font-size="13px" font-style="normal" font-weight="normal" text-decoration="none" x="481.864990234375" y="2679">59 : show alert</text></g></g><g transform="translate(-278,2) scale(1,1)"><rect fill="#38ff38" stroke="none" x="458" y="2664" width="13" height="28"/></g><g transform="translate(-278,2) scale(1,1)"><path fill="none" stroke="#000000" d="M 458 2664 L 471 2664 L 471 2692 L 458 2692 L 458 2664 Z Z" stroke-miterlimit="10"/></g><g transform="translate(-278,2) scale(1,1)"><path fill="none" stroke="#000000" d="M 1304 2720 L 722 2720" stroke-miterlimit="10"/></g><g transform="translate(-278,2) scale(1,1)"><path fill="#000000" stroke="none" d="M 732.1626748576241 2715.790482243984 L 722 2720 L 732.1626748576241 2724.209517756016"/></g><g transform="translate(-278,2) scale(1,1)"><path fill="none" stroke="#000000" d="M 732.1626748576241 2715.790482243984 L 722 2720 L 732.1626748576241 2724.209517756016 L 732.1626748576241 2715.790482243984" stroke-miterlimit="10"/></g><g transform="translate(-278,2) scale(1,1)"><g><path fill="none" stroke="none"/><text fill="#000000" stroke="none" font-family="Arial" font-size="13px" font-style="normal" font-weight="normal" text-decoration="none" x="931.5" y="2735">60 : return message("error")</text></g></g><g transform="translate(-278,2) scale(1,1)"><rect fill="#df3c3c" stroke="none" x="709" y="2720" width="13" height="28"/></g><g transform="translate(-278,2) scale(1,1)"><path fill="none" stroke="#000000" d="M 709 2720 L 722 2720 L 722 2748 L 709 2748 L 709 2720 Z Z" stroke-miterlimit="10"/></g><g transform="translate(-278,2) scale(1,1)"><path fill="none" stroke="#000000" d="M 716 2752 L 586 2752" stroke-miterlimit="10"/></g><g transform="translate(-278,2) scale(1,1)"><path fill="#000000" stroke="none" d="M 596.1626748576241 2747.790482243984 L 586 2752 L 596.1626748576241 2756.209517756016"/></g><g transform="translate(-278,2) scale(1,1)"><path fill="none" stroke="#000000" d="M 596.1626748576241 2747.790482243984 L 586 2752 L 596.1626748576241 2756.209517756016 L 596.1626748576241 2747.790482243984" stroke-miterlimit="10"/></g><g transform="translate(-278,2) scale(1,1)"><g><path fill="none" stroke="none"/><text fill="#000000" stroke="none" font-family="Arial" font-size="13px" font-style="normal" font-weight="normal" text-decoration="none" x="605.5" y="2767">61 : throw error</text></g></g><g transform="translate(-278,2) scale(1,1)"><rect fill="#df3c3c" stroke="none" x="573" y="2752" width="13" height="28"/></g><g transform="translate(-278,2) scale(1,1)"><path fill="none" stroke="#000000" d="M 573 2752 L 586 2752 L 586 2780 L 573 2780 L 573 2752 Z Z" stroke-miterlimit="10"/></g><g transform="translate(-278,2) scale(1,1)"><path fill="none" stroke="#000000" d="M 580 2792 L 471 2792" stroke-miterlimit="10"/></g><g transform="translate(-278,2) scale(1,1)"><path fill="#000000" stroke="none" d="M 481.16267485762415 2787.790482243984 L 471 2792 L 481.16267485762415 2796.209517756016"/></g><g transform="translate(-278,2) scale(1,1)"><path fill="none" stroke="#000000" d="M 481.16267485762415 2787.790482243984 L 471 2792 L 481.16267485762415 2796.209517756016 L 481.16267485762415 2787.790482243984" stroke-miterlimit="10"/></g><g transform="translate(-278,2) scale(1,1)"><g><path fill="none" stroke="none"/><text fill="#000000" stroke="none" font-family="Arial" font-size="13px" font-style="normal" font-weight="normal" text-decoration="none" x="481.864990234375" y="2807">62 : show alert</text></g></g><g transform="translate(-278,2) scale(1,1)"><rect fill="#df3c3c" stroke="none" x="458" y="2792" width="13" height="28"/></g><g transform="translate(-278,2) scale(1,1)"><path fill="none" stroke="#000000" d="M 458 2792 L 471 2792 L 471 2820 L 458 2820 L 458 2792 Z Z" stroke-miterlimit="10"/></g><g transform="translate(-278,2) scale(1,1)"><path fill="none" stroke="#000000" d="M 344 224 L 1536 224 L 1536 2872 L 344 2872 L 344 224" stroke-miterlimit="10"/></g><g transform="translate(-278,2) scale(1,1)"><path fill="#ffffff" stroke="none" d="M 344 224 L 344 246 L 453.95166015625 246 L 464.95166015625 235 L 464.95166015625 224 L 344 224"/></g><g transform="translate(-278,2) scale(1,1)"><path fill="none" stroke="#000000" d="M 344 224 L 344 246 L 453.95166015625 246 L 464.95166015625 235 L 464.95166015625 224 L 344 224 L 344 224" stroke-miterlimit="10"/></g><g transform="translate(-278,2) scale(1,1)"><g><path fill="none" stroke="none"/><text fill="#000000" stroke="none" font-family="Arial" font-size="13px" font-style="normal" font-weight="normal" text-decoration="none" x="373.07177734375" y="240">Management</text></g></g><g transform="translate(-278,2) scale(1,1)"><g><path fill="none" stroke="none"/><text fill="#000000" stroke="none" font-family="Arial" font-size="13px" font-style="normal" font-weight="bold" text-decoration="none" x="347.930419921875" y="239.5">opt</text></g></g><g transform="translate(-278,2) scale(1,1)"><g><path fill="none" stroke="none"/><text fill="#000000" stroke="none" font-family="Arial" font-size="13px" font-style="normal" font-weight="normal" text-decoration="none" x="363.5" y="273">[Create]</text></g></g><g transform="translate(-278,2) scale(1,1)"><path fill="none" stroke="#000000" d="M 344 1017 L 1536 1017" stroke-miterlimit="10" stroke-dasharray="10,3"/></g><g transform="translate(-278,2) scale(1,1)"><g><path fill="none" stroke="none"/><text fill="#000000" stroke="none" font-family="Arial" font-size="13px" font-style="normal" font-weight="normal" text-decoration="none" x="363.5" y="1043">[Read]</text></g></g><g transform="translate(-278,2) scale(1,1)"><path fill="none" stroke="#000000" d="M 344 1553 L 1536 1553" stroke-miterlimit="10" stroke-dasharray="10,3"/></g><g transform="translate(-278,2) scale(1,1)"><g><path fill="none" stroke="none"/><text fill="#000000" stroke="none" font-family="Arial" font-size="13px" font-style="normal" font-weight="normal" text-decoration="none" x="363.5" y="1579">[Update]</text></g></g><g transform="translate(-278,2) scale(1,1)"><path fill="none" stroke="#000000" d="M 344 2281 L 1536 2281" stroke-miterlimit="10" stroke-dasharray="10,3"/></g><g transform="translate(-278,2) scale(1,1)"><g><path fill="none" stroke="none"/><text fill="#000000" stroke="none" font-family="Arial" font-size="13px" font-style="normal" font-weight="normal" text-decoration="none" x="363.5" y="2307">[Delete]</text></g></g><g transform="translate(-278,2) scale(1,1)"><path fill="none" stroke="#000000" d="M 360 752 L 1528 752 L 1528 1000 L 360 1000 L 360 752" stroke-miterlimit="10"/></g><g transform="translate(-278,2) scale(1,1)"><path fill="#ffffff" stroke="none" d="M 360 752 L 360 774 L 479.822265625 774 L 490.822265625 763 L 490.822265625 752 L 360 752"/></g><g transform="translate(-278,2) scale(1,1)"><path fill="none" stroke="#000000" d="M 360 752 L 360 774 L 479.822265625 774 L 490.822265625 763 L 490.822265625 752 L 360 752 L 360 752" stroke-miterlimit="10"/></g><g transform="translate(-278,2) scale(1,1)"><g><path fill="none" stroke="none"/><text fill="#000000" stroke="none" font-family="Arial" font-size="13px" font-style="normal" font-weight="normal" text-decoration="none" x="384.72998046875" y="768">checkValidation</text></g></g><g transform="translate(-278,2) scale(1,1)"><g><path fill="none" stroke="none"/><text fill="#000000" stroke="none" font-family="Arial" font-size="13px" font-style="normal" font-weight="bold" text-decoration="none" x="364.279541015625" y="768">alt</text></g></g><g transform="translate(-278,2) scale(1,1)"><g><path fill="none" stroke="none"/><text fill="#000000" stroke="none" font-family="Arial" font-size="13px" font-style="normal" font-weight="normal" text-decoration="none" x="379.5" y="801">[try]</text></g></g><g transform="translate(-278,2) scale(1,1)"><path fill="none" stroke="#000000" d="M 360 881 L 1528 881" stroke-miterlimit="10" stroke-dasharray="10,3"/></g><g transform="translate(-278,2) scale(1,1)"><g><path fill="none" stroke="none"/><text fill="#000000" stroke="none" font-family="Arial" font-size="13px" font-style="normal" font-weight="normal" text-decoration="none" x="379.5" y="907">[catch]</text></g></g><g transform="translate(-278,2) scale(1,1)"><path fill="none" stroke="#000000" d="M 360 1336 L 1520 1336 L 1520 1536 L 360 1536 L 360 1336" stroke-miterlimit="10"/></g><g transform="translate(-278,2) scale(1,1)"><path fill="#ffffff" stroke="none" d="M 360 1336 L 360 1358 L 452.578125 1358 L 463.578125 1347 L 463.578125 1336 L 360 1336"/></g><g transform="translate(-278,2) scale(1,1)"><path fill="none" stroke="#000000" d="M 360 1336 L 360 1358 L 452.578125 1358 L 463.578125 1347 L 463.578125 1336 L 360 1336 L 360 1336" stroke-miterlimit="10"/></g><g transform="translate(-278,2) scale(1,1)"><g><path fill="none" stroke="none"/><text fill="#000000" stroke="none" font-family="Arial" font-size="13px" font-style="normal" font-weight="normal" text-decoration="none" x="384.72998046875" y="1352">checkError</text></g></g><g transform="translate(-278,2) scale(1,1)"><g><path fill="none" stroke="none"/><text fill="#000000" stroke="none" font-family="Arial" font-size="13px" font-style="normal" font-weight="bold" text-decoration="none" x="364.279541015625" y="1352">alt</text></g></g><g transform="translate(-278,2) scale(1,1)"><g><path fill="none" stroke="none"/><text fill="#000000" stroke="none" font-family="Arial" font-size="13px" font-style="normal" font-weight="normal" text-decoration="none" x="379.5" y="1385">[try]</text></g></g><g transform="translate(-278,2) scale(1,1)"><path fill="none" stroke="#000000" d="M 360 1441 L 1520 1441" stroke-miterlimit="10" stroke-dasharray="10,3"/></g><g transform="translate(-278,2) scale(1,1)"><g><path fill="none" stroke="none"/><text fill="#000000" stroke="none" font-family="Arial" font-size="13px" font-style="normal" font-weight="normal" text-decoration="none" x="379.5" y="1467">[catch]</text></g></g><g transform="translate(-278,2) scale(1,1)"><path fill="none" stroke="#000000" d="M 352 1984 L 1528 1984 L 1528 2256 L 352 2256 L 352 1984" stroke-miterlimit="10"/></g><g transform="translate(-278,2) scale(1,1)"><path fill="#ffffff" stroke="none" d="M 352 1984 L 352 2006 L 471.822265625 2006 L 482.822265625 1995 L 482.822265625 1984 L 352 1984"/></g><g transform="translate(-278,2) scale(1,1)"><path fill="none" stroke="#000000" d="M 352 1984 L 352 2006 L 471.822265625 2006 L 482.822265625 1995 L 482.822265625 1984 L 352 1984 L 352 1984" stroke-miterlimit="10"/></g><g transform="translate(-278,2) scale(1,1)"><g><path fill="none" stroke="none"/><text fill="#000000" stroke="none" font-family="Arial" font-size="13px" font-style="normal" font-weight="normal" text-decoration="none" x="376.72998046875" y="2000">checkValidation</text></g></g><g transform="translate(-278,2) scale(1,1)"><g><path fill="none" stroke="none"/><text fill="#000000" stroke="none" font-family="Arial" font-size="13px" font-style="normal" font-weight="bold" text-decoration="none" x="356.279541015625" y="2000">alt</text></g></g><g transform="translate(-278,2) scale(1,1)"><g><path fill="none" stroke="none"/><text fill="#000000" stroke="none" font-family="Arial" font-size="13px" font-style="normal" font-weight="normal" text-decoration="none" x="371.5" y="2033">[try]</text></g></g><g transform="translate(-278,2) scale(1,1)"><path fill="none" stroke="#000000" d="M 352 2145 L 1528 2145" stroke-miterlimit="10" stroke-dasharray="10,3"/></g><g transform="translate(-278,2) scale(1,1)"><g><path fill="none" stroke="none"/><text fill="#000000" stroke="none" font-family="Arial" font-size="13px" font-style="normal" font-weight="normal" text-decoration="none" x="371.5" y="2171">[catch]</text></g></g><g transform="translate(-278,2) scale(1,1)"><path fill="none" stroke="#000000" d="M 352 2576 L 1528 2576 L 1528 2840 L 352 2840 L 352 2576" stroke-miterlimit="10"/></g><g transform="translate(-278,2) scale(1,1)"><path fill="#ffffff" stroke="none" d="M 352 2576 L 352 2598 L 471.822265625 2598 L 482.822265625 2587 L 482.822265625 2576 L 352 2576"/></g><g transform="translate(-278,2) scale(1,1)"><path fill="none" stroke="#000000" d="M 352 2576 L 352 2598 L 471.822265625 2598 L 482.822265625 2587 L 482.822265625 2576 L 352 2576 L 352 2576" stroke-miterlimit="10"/></g><g transform="translate(-278,2) scale(1,1)"><g><path fill="none" stroke="none"/><text fill="#000000" stroke="none" font-family="Arial" font-size="13px" font-style="normal" font-weight="normal" text-decoration="none" x="376.72998046875" y="2592">checkValidation</text></g></g><g transform="translate(-278,2) scale(1,1)"><g><path fill="none" stroke="none"/><text fill="#000000" stroke="none" font-family="Arial" font-size="13px" font-style="normal" font-weight="bold" text-decoration="none" x="356.279541015625" y="2592">alt</text></g></g><g transform="translate(-278,2) scale(1,1)"><g><path fill="none" stroke="none"/><text fill="#000000" stroke="none" font-family="Arial" font-size="13px" font-style="normal" font-weight="normal" text-decoration="none" x="371.5" y="2625">[try]</text></g></g><g transform="translate(-278,2) scale(1,1)"><path fill="none" stroke="#000000" d="M 352 2697 L 1528 2697" stroke-miterlimit="10" stroke-dasharray="10,3"/></g><g transform="translate(-278,2) scale(1,1)"><g><path fill="none" stroke="none"/><text fill="#000000" stroke="none" font-family="Arial" font-size="13px" font-style="normal" font-weight="normal" text-decoration="none" x="371.5" y="2723">[catch]</text></g></g></g></svg>