<svg version="1.1" xmlns="http://www.w3.org/2000/svg" xmlns:xlink="http://www.w3.org/1999/xlink" width="1356" height="1044"><defs/><g><g transform="translate(-278,10) scale(1,1)"><path fill="none" stroke="#000000" d="M 288 0 L 1624 0 L 1624 1024 L 288 1024 L 288 0" stroke-miterlimit="10"/></g><g transform="translate(-278,10) scale(1,1)"><path fill="#ffffff" stroke="none" d="M 288 0 L 288 22 L 349.5380859375 22 L 360.5380859375 11 L 360.5380859375 0 L 288 0"/></g><g transform="translate(-278,10) scale(1,1)"><path fill="none" stroke="#000000" d="M 288 0 L 288 22 L 349.5380859375 22 L 360.5380859375 11 L 360.5380859375 0 L 288 0 L 288 0" stroke-miterlimit="10"/></g><g transform="translate(-278,10) scale(1,1)"><g><path fill="none" stroke="none"/><text fill="#000000" stroke="none" font-family="Arial" font-size="13px" font-style="normal" font-weight="normal" text-decoration="none" x="312.72998046875" y="16">Login</text></g></g><g transform="translate(-278,10) scale(1,1)"><g><path fill="none" stroke="none"/><text fill="#000000" stroke="none" font-family="Arial" font-size="13px" font-style="normal" font-weight="bold" text-decoration="none" x="292.279541015625" y="16">sd</text></g></g><g transform="translate(-278,10) scale(1,1)"><path fill="#c77575" stroke="none" d="M 349.3831649502841 47.3 C 349.3831649502841 43.82060576 352.2615666724659 41 355.812255859375 41 C 359.3629450462841 41 362.241346768466 43.82060576 362.241346768466 47.3 C 362.241346768466 50.779394239999995 359.3629450462841 53.6 355.812255859375 53.6 C 352.2615666724659 53.6 349.3831649502841 50.779394239999995 349.3831649502841 47.3 Z"/></g><g transform="translate(-278,10) scale(1,1)"><path fill="none" stroke="#000000" d="M 349.3831649502841 47.3 C 349.3831649502841 43.82060576 352.2615666724659 41 355.812255859375 41 C 359.3629450462841 41 362.241346768466 43.82060576 362.241346768466 47.3 C 362.241346768466 50.779394239999995 359.3629450462841 53.6 355.812255859375 53.6 C 352.2615666724659 53.6 349.3831649502841 50.779394239999995 349.3831649502841 47.3 Z" stroke-miterlimit="10"/></g><g transform="translate(-278,10) scale(1,1)"><path fill="none" stroke="#000000" d="M 355.812255859375 53.6 L 355.812255859375 66.4" stroke-miterlimit="10"/></g><g transform="translate(-278,10) scale(1,1)"><path fill="none" stroke="#000000" d="M 349.00498313210227 58.4 L 362.6195285866478 58.4" stroke-miterlimit="10"/></g><g transform="translate(-278,10) scale(1,1)"><path fill="none" stroke="#000000" d="M 355.812255859375 66.4 L 346.35771040482956 79" stroke-miterlimit="10"/></g><g transform="translate(-278,10) scale(1,1)"><path fill="none" stroke="#000000" d="M 355.812255859375 66.4 L 365.2668013139205 79" stroke-miterlimit="10"/></g><g transform="translate(-278,10) scale(1,1)"><g><path fill="none" stroke="none"/><text fill="#000000" stroke="none" font-family="Arial" font-size="13px" font-style="normal" font-weight="bold" text-decoration="none" x="308.5" y="98">Lifeline1: Actor</text></g></g><g transform="translate(-278,10) scale(1,1)"><path fill="none" stroke="#000000" d="M 356.5 105 L 356.5 245" stroke-miterlimit="10" stroke-dasharray="3"/></g><g transform="translate(-278,10) scale(1,1)"><rect fill="#C0C0C0" stroke="none" x="423" y="47" width="81.1181640625" height="39" opacity="0.2"/></g><g transform="translate(-278,10) scale(1,1)"><rect fill="#fff1aa" stroke="none" x="416" y="40" width="81.1181640625" height="39"/></g><g transform="translate(-278,10) scale(1,1)"><path fill="none" stroke="#000000" d="M 416 40 L 497.1181640625 40 L 497.1181640625 79 L 416 79 L 416 40 Z Z" stroke-miterlimit="10"/></g><g transform="translate(-278,10) scale(1,1)"><g><path fill="none" stroke="none"/><text fill="#000000" stroke="none" font-family="Arial" font-size="13px" font-style="normal" font-weight="bold" text-decoration="none" x="425.5" y="58">loginPage</text></g></g><g transform="translate(-278,10) scale(1,1)"><path fill="none" stroke="#000000" d="M 457.5 80 L 457.5 994" stroke-miterlimit="10" stroke-dasharray="3"/></g><g transform="translate(-278,10) scale(1,1)"><rect fill="#C0C0C0" stroke="none" x="687" y="47" width="71.736328125" height="39" opacity="0.2"/></g><g transform="translate(-278,10) scale(1,1)"><rect fill="#fff1aa" stroke="none" x="680" y="40" width="71.736328125" height="39"/></g><g transform="translate(-278,10) scale(1,1)"><path fill="none" stroke="#000000" d="M 680 40 L 751.736328125 40 L 751.736328125 79 L 680 79 L 680 40 Z Z" stroke-miterlimit="10"/></g><g transform="translate(-278,10) scale(1,1)"><g><path fill="none" stroke="none"/><text fill="#000000" stroke="none" font-family="Arial" font-size="13px" font-style="normal" font-weight="bold" text-decoration="none" x="698.17724609375" y="58">thunk</text></g></g><g transform="translate(-278,10) scale(1,1)"><path fill="none" stroke="#000000" d="M 716.5 80 L 716.5 976" stroke-miterlimit="10" stroke-dasharray="3"/></g><g transform="translate(-278,10) scale(1,1)"><rect fill="#C0C0C0" stroke="none" x="791" y="47" width="151.9453125" height="39" opacity="0.2"/></g><g transform="translate(-278,10) scale(1,1)"><rect fill="#fff1aa" stroke="none" x="784" y="40" width="151.9453125" height="39"/></g><g transform="translate(-278,10) scale(1,1)"><path fill="none" stroke="#000000" d="M 784 40 L 935.9453125 40 L 935.9453125 79 L 784 79 L 784 40 Z Z" stroke-miterlimit="10"/></g><g transform="translate(-278,10) scale(1,1)"><g><path fill="none" stroke="none"/><text fill="#000000" stroke="none" font-family="Arial" font-size="13px" font-style="normal" font-weight="bold" text-decoration="none" x="793.5" y="58">fakebanckend_helper</text></g></g><g transform="translate(-278,10) scale(1,1)"><path fill="none" stroke="#000000" d="M 860.5 80 L 860.5 298" stroke-miterlimit="10" stroke-dasharray="3"/></g><g transform="translate(-278,10) scale(1,1)"><rect fill="#C0C0C0" stroke="none" x="983" y="47" width="84.025390625" height="39" opacity="0.2"/></g><g transform="translate(-278,10) scale(1,1)"><rect fill="#fff1aa" stroke="none" x="976" y="40" width="84.025390625" height="39"/></g><g transform="translate(-278,10) scale(1,1)"><path fill="none" stroke="#000000" d="M 976 40 L 1060.025390625 40 L 1060.025390625 79 L 976 79 L 976 40 Z Z" stroke-miterlimit="10"/></g><g transform="translate(-278,10) scale(1,1)"><g><path fill="none" stroke="none"/><text fill="#000000" stroke="none" font-family="Arial" font-size="13px" font-style="normal" font-weight="bold" text-decoration="none" x="985.5" y="58">api_helper</text></g></g><g transform="translate(-278,10) scale(1,1)"><path fill="none" stroke="#000000" d="M 1019.5 80 L 1019.5 330" stroke-miterlimit="10" stroke-dasharray="3"/></g><g transform="translate(-278,10) scale(1,1)"><rect fill="#C0C0C0" stroke="none" x="1111" y="47" width="71.736328125" height="39" opacity="0.2"/></g><g transform="translate(-278,10) scale(1,1)"><rect fill="#7acff5" stroke="none" x="1104" y="40" width="71.736328125" height="39"/></g><g transform="translate(-278,10) scale(1,1)"><path fill="none" stroke="#000000" d="M 1104 40 L 1175.736328125 40 L 1175.736328125 79 L 1104 79 L 1104 40 Z Z" stroke-miterlimit="10"/></g><g transform="translate(-278,10) scale(1,1)"><g><path fill="none" stroke="none"/><text fill="#000000" stroke="none" font-family="Arial" font-size="13px" font-style="normal" font-weight="bold" text-decoration="none" x="1123.6181640625" y="57.5">route</text></g></g><g transform="translate(-278,10) scale(1,1)"><path fill="none" stroke="#000000" d="M 1140.5 80 L 1140.5 362" stroke-miterlimit="10" stroke-dasharray="3"/></g><g transform="translate(-278,10) scale(1,1)"><rect fill="#C0C0C0" stroke="none" x="1231" y="47" width="78.95361328125" height="39" opacity="0.2"/></g><g transform="translate(-278,10) scale(1,1)"><rect fill="#7acff5" stroke="none" x="1224" y="40" width="78.95361328125" height="39"/></g><g transform="translate(-278,10) scale(1,1)"><path fill="none" stroke="#000000" d="M 1224 40 L 1302.95361328125 40 L 1302.95361328125 79 L 1224 79 L 1224 40 Z Z" stroke-miterlimit="10"/></g><g transform="translate(-278,10) scale(1,1)"><g><path fill="none" stroke="none"/><text fill="#000000" stroke="none" font-family="Arial" font-size="13px" font-style="normal" font-weight="bold" text-decoration="none" x="1233.5" y="58">controller</text></g></g><g transform="translate(-278,10) scale(1,1)"><path fill="none" stroke="#000000" d="M 1264.5 80 L 1264.5 778" stroke-miterlimit="10" stroke-dasharray="3"/></g><g transform="translate(-278,10) scale(1,1)"><rect fill="#C0C0C0" stroke="none" x="1335" y="47" width="71.736328125" height="39" opacity="0.2"/></g><g transform="translate(-278,10) scale(1,1)"><rect fill="#7acff5" stroke="none" x="1328" y="40" width="71.736328125" height="39"/></g><g transform="translate(-278,10) scale(1,1)"><path fill="none" stroke="#000000" d="M 1328 40 L 1399.736328125 40 L 1399.736328125 79 L 1328 79 L 1328 40 Z Z" stroke-miterlimit="10"/></g><g transform="translate(-278,10) scale(1,1)"><g><path fill="none" stroke="none"/><text fill="#000000" stroke="none" font-family="Arial" font-size="13px" font-style="normal" font-weight="bold" text-decoration="none" x="1344.726806640625" y="58">model</text></g></g><g transform="translate(-278,10) scale(1,1)"><path fill="none" stroke="#000000" d="M 1364.5 80 L 1364.5 469" stroke-miterlimit="10" stroke-dasharray="3"/></g><g transform="translate(-278,10) scale(1,1)"><rect fill="#C0C0C0" stroke="none" x="1527" y="47" width="81.09912109375" height="39" opacity="0.2"/></g><g transform="translate(-278,10) scale(1,1)"><rect fill="#8cc86e" stroke="none" x="1520" y="40" width="81.09912109375" height="39"/></g><g transform="translate(-278,10) scale(1,1)"><path fill="none" stroke="#000000" d="M 1520 40 L 1601.09912109375 40 L 1601.09912109375 79 L 1520 79 L 1520 40 Z Z" stroke-miterlimit="10"/></g><g transform="translate(-278,10) scale(1,1)"><g><path fill="none" stroke="none"/><text fill="#000000" stroke="none" font-family="Arial" font-size="13px" font-style="normal" font-weight="bold" text-decoration="none" x="1529.5" y="58">mongoDB</text></g></g><g transform="translate(-278,10) scale(1,1)"><path fill="none" stroke="#000000" d="M 1561.5 80 L 1561.5 498" stroke-miterlimit="10" stroke-dasharray="3"/></g><g transform="translate(-278,10) scale(1,1)"><rect fill="#C0C0C0" stroke="none" x="599" y="47" width="71.736328125" height="39" opacity="0.2"/></g><g transform="translate(-278,10) scale(1,1)"><rect fill="#fff1aa" stroke="none" x="592" y="40" width="71.736328125" height="39"/></g><g transform="translate(-278,10) scale(1,1)"><path fill="none" stroke="#000000" d="M 592 40 L 663.736328125 40 L 663.736328125 79 L 592 79 L 592 40 Z Z" stroke-miterlimit="10"/></g><g transform="translate(-278,10) scale(1,1)"><g><path fill="none" stroke="none"/><text fill="#000000" stroke="none" font-family="Arial" font-size="13px" font-style="normal" font-weight="bold" text-decoration="none" x="604.023193359375" y="58">reducer</text></g></g><g transform="translate(-278,10) scale(1,1)"><path fill="none" stroke="#000000" d="M 628.5 80 L 628.5 994" stroke-miterlimit="10" stroke-dasharray="3"/></g><g transform="translate(-278,10) scale(1,1)"><path fill="none" stroke="#000000" d="M 368 32 L 1064 32" stroke-miterlimit="10"/></g><g transform="translate(-278,10) scale(1,1)"><path fill="none" stroke="#000000" d="M 1053.837325142376 36.20951775601599 L 1064 32 L 1053.837325142376 27.790482243984012" stroke-miterlimit="10"/></g><g transform="translate(-278,10) scale(1,1)"><path fill="none" stroke="#000000" d="M 378.16267485762415 27.790482243984012 L 368 32 L 378.16267485762415 36.209517756015984" stroke-miterlimit="10"/></g><g transform="translate(-278,10) scale(1,1)"><g><path fill="none" stroke="none"/><text fill="#000000" stroke="none" font-family="Arial" font-size="13px" font-style="normal" font-weight="normal" text-decoration="none" x="661" y="23">Front-end</text></g></g><g transform="translate(-278,10) scale(1,1)"><path fill="none" stroke="#000000" d="M 1080 32 L 1512 32" stroke-miterlimit="10"/></g><g transform="translate(-278,10) scale(1,1)"><path fill="none" stroke="#000000" d="M 1501.837325142376 36.20951775601599 L 1512 32 L 1501.837325142376 27.790482243984012" stroke-miterlimit="10"/></g><g transform="translate(-278,10) scale(1,1)"><path fill="none" stroke="#000000" d="M 1090.162674857624 27.790482243984012 L 1080 32 L 1090.162674857624 36.209517756015984" stroke-miterlimit="10"/></g><g transform="translate(-278,10) scale(1,1)"><g><path fill="none" stroke="none"/><text fill="#000000" stroke="none" font-family="Arial" font-size="13px" font-style="normal" font-weight="normal" text-decoration="none" x="1237" y="23">back-end</text></g></g><g transform="translate(-278,10) scale(1,1)"><path fill="none" stroke="#000000" d="M 1520 32 L 1600 32" stroke-miterlimit="10"/></g><g transform="translate(-278,10) scale(1,1)"><path fill="none" stroke="#000000" d="M 1589.837325142376 36.20951775601599 L 1600 32 L 1589.837325142376 27.790482243984012" stroke-miterlimit="10"/></g><g transform="translate(-278,10) scale(1,1)"><path fill="none" stroke="#000000" d="M 1530.162674857624 27.790482243984012 L 1520 32 L 1530.162674857624 36.209517756015984" stroke-miterlimit="10"/></g><g transform="translate(-278,10) scale(1,1)"><g><path fill="none" stroke="none"/><text fill="#000000" stroke="none" font-family="Arial" font-size="13px" font-style="normal" font-weight="normal" text-decoration="none" x="1533" y="15">database</text></g></g><g transform="translate(-278,10) scale(1,1)"><rect fill="#C0C0C0" stroke="none" x="519" y="47" width="71.736328125" height="39" opacity="0.2"/></g><g transform="translate(-278,10) scale(1,1)"><rect fill="#ff952b" stroke="none" x="512" y="40" width="71.736328125" height="39"/></g><g transform="translate(-278,10) scale(1,1)"><path fill="none" stroke="#000000" d="M 512 40 L 583.736328125 40 L 583.736328125 79 L 512 79 L 512 40 Z Z" stroke-miterlimit="10"/></g><g transform="translate(-278,10) scale(1,1)"><g><path fill="none" stroke="none"/><text fill="#000000" stroke="none" font-family="Arial" font-size="13px" font-style="normal" font-weight="bold" text-decoration="none" x="523.661376953125" y="58">session</text></g></g><g transform="translate(-278,10) scale(1,1)"><path fill="none" stroke="#000000" d="M 548.5 80 L 548.5 840" stroke-miterlimit="10" stroke-dasharray="3"/></g><g transform="translate(-278,10) scale(1,1)"><rect fill="#C0C0C0" stroke="none" x="1439" y="47" width="71.736328125" height="39" opacity="0.2"/></g><g transform="translate(-278,10) scale(1,1)"><rect fill="#ff952b" stroke="none" x="1432" y="40" width="71.736328125" height="39"/></g><g transform="translate(-278,10) scale(1,1)"><path fill="none" stroke="#000000" d="M 1432 40 L 1503.736328125 40 L 1503.736328125 79 L 1432 79 L 1432 40 Z Z" stroke-miterlimit="10"/></g><g transform="translate(-278,10) scale(1,1)"><g><path fill="none" stroke="none"/><text fill="#000000" stroke="none" font-family="Arial" font-size="13px" font-style="normal" font-weight="bold" text-decoration="none" x="1447.2763671875" y="58">cookie</text></g></g><g transform="translate(-278,10) scale(1,1)"><path fill="none" stroke="#000000" d="M 1468.5 80 L 1468.5 682" stroke-miterlimit="10" stroke-dasharray="3"/></g><g transform="translate(-278,10) scale(1,1)"><path fill="none" stroke="#000000" d="M 356 128 L 450 128" stroke-miterlimit="10"/></g><g transform="translate(-278,10) scale(1,1)"><path fill="#000000" stroke="none" d="M 439.83732514237585 132.209517756016 L 450 128 L 439.83732514237585 123.79048224398402"/></g><g transform="translate(-278,10) scale(1,1)"><path fill="none" stroke="#000000" d="M 439.83732514237585 132.209517756016 L 450 128 L 439.83732514237585 123.79048224398402 L 439.83732514237585 132.209517756016" stroke-miterlimit="10"/></g><g transform="translate(-278,10) scale(1,1)"><g><path fill="none" stroke="none"/><text fill="#000000" stroke="none" font-family="Arial" font-size="13px" font-style="normal" font-weight="normal" text-decoration="none" x="364.21728515625" y="123">1 : enter data</text></g></g><g transform="translate(-278,10) scale(1,1)"><rect fill="#fff1aa" stroke="none" x="450" y="128" width="13" height="28"/></g><g transform="translate(-278,10) scale(1,1)"><path fill="none" stroke="#000000" d="M 450 128 L 463 128 L 463 156 L 450 156 L 450 128 Z Z" stroke-miterlimit="10"/></g><g transform="translate(-278,10) scale(1,1)"><path fill="none" stroke="#000000" d="M 356 176 L 450 176" stroke-miterlimit="10"/></g><g transform="translate(-278,10) scale(1,1)"><path fill="#000000" stroke="none" d="M 439.83732514237585 180.209517756016 L 450 176 L 439.83732514237585 171.790482243984"/></g><g transform="translate(-278,10) scale(1,1)"><path fill="none" stroke="#000000" d="M 439.83732514237585 180.209517756016 L 450 176 L 439.83732514237585 171.790482243984 L 439.83732514237585 180.209517756016" stroke-miterlimit="10"/></g><g transform="translate(-278,10) scale(1,1)"><g><path fill="none" stroke="none"/><text fill="#000000" stroke="none" font-family="Arial" font-size="13px" font-style="normal" font-weight="normal" text-decoration="none" x="366.029541015625" y="171">2 : onSubmit</text></g></g><g transform="translate(-278,10) scale(1,1)"><rect fill="#fff1aa" stroke="none" x="450" y="176" width="13" height="28"/></g><g transform="translate(-278,10) scale(1,1)"><path fill="none" stroke="#000000" d="M 450 176 L 463 176 L 463 204 L 450 204 L 450 176 Z Z" stroke-miterlimit="10"/></g><g transform="translate(-278,10) scale(1,1)"><path fill="none" stroke="#000000" d="M 457 208 L 709 208" stroke-miterlimit="10"/></g><g transform="translate(-278,10) scale(1,1)"><path fill="#000000" stroke="none" d="M 698.8373251423759 212.209517756016 L 709 208 L 698.8373251423758 203.790482243984"/></g><g transform="translate(-278,10) scale(1,1)"><path fill="none" stroke="#000000" d="M 698.8373251423759 212.209517756016 L 709 208 L 698.8373251423758 203.790482243984 L 698.8373251423759 212.209517756016" stroke-miterlimit="10"/></g><g transform="translate(-278,10) scale(1,1)"><g><path fill="none" stroke="none"/><text fill="#000000" stroke="none" font-family="Arial" font-size="13px" font-style="normal" font-weight="normal" text-decoration="none" x="524.971435546875" y="203">3 : dispatch(loginUser)</text></g></g><g transform="translate(-278,10) scale(1,1)"><rect fill="#fff1aa" stroke="none" x="709" y="208" width="13" height="28"/></g><g transform="translate(-278,10) scale(1,1)"><path fill="none" stroke="#000000" d="M 709 208 L 722 208 L 722 236 L 709 236 L 709 208 Z Z" stroke-miterlimit="10"/></g><g transform="translate(-278,10) scale(1,1)"><path fill="none" stroke="#000000" d="M 722 224 L 853 224" stroke-miterlimit="10"/></g><g transform="translate(-278,10) scale(1,1)"><path fill="#000000" stroke="none" d="M 842.8373251423759 228.209517756016 L 853 224 L 842.8373251423758 219.790482243984"/></g><g transform="translate(-278,10) scale(1,1)"><path fill="none" stroke="#000000" d="M 842.8373251423759 228.209517756016 L 853 224 L 842.8373251423758 219.790482243984 L 842.8373251423759 228.209517756016" stroke-miterlimit="10"/></g><g transform="translate(-278,10) scale(1,1)"><g><path fill="none" stroke="none"/><text fill="#000000" stroke="none" font-family="Arial" font-size="13px" font-style="normal" font-weight="normal" text-decoration="none" x="719.5" y="203">4 : postFakeLogin(data)</text></g></g><g transform="translate(-278,10) scale(1,1)"><rect fill="#fff1aa" stroke="none" x="853" y="224" width="13" height="28"/></g><g transform="translate(-278,10) scale(1,1)"><path fill="none" stroke="#000000" d="M 853 224 L 866 224 L 866 252 L 853 252 L 853 224 Z Z" stroke-miterlimit="10"/></g><g transform="translate(-278,10) scale(1,1)"><path fill="none" stroke="#000000" d="M 860 256 L 1012 256" stroke-miterlimit="10"/></g><g transform="translate(-278,10) scale(1,1)"><path fill="#000000" stroke="none" d="M 1001.8373251423759 260.209517756016 L 1012 256 L 1001.8373251423758 251.790482243984"/></g><g transform="translate(-278,10) scale(1,1)"><path fill="none" stroke="#000000" d="M 1001.8373251423759 260.209517756016 L 1012 256 L 1001.8373251423758 251.790482243984 L 1001.8373251423759 260.209517756016" stroke-miterlimit="10"/></g><g transform="translate(-278,10) scale(1,1)"><g><path fill="none" stroke="none"/><text fill="#000000" stroke="none" font-family="Arial" font-size="13px" font-style="normal" font-weight="normal" text-decoration="none" x="884.147705078125" y="243">5 : api.create(url.POST_FAKE_LOGIN,data)</text></g></g><g transform="translate(-278,10) scale(1,1)"><rect fill="#fff1aa" stroke="none" x="1012" y="256" width="13" height="28"/></g><g transform="translate(-278,10) scale(1,1)"><path fill="none" stroke="#000000" d="M 1012 256 L 1025 256 L 1025 284 L 1012 284 L 1012 256 Z Z" stroke-miterlimit="10"/></g><g transform="translate(-278,10) scale(1,1)"><path fill="none" stroke="#000000" d="M 1019 288 L 1133 288" stroke-miterlimit="10"/></g><g transform="translate(-278,10) scale(1,1)"><path fill="#000000" stroke="none" d="M 1122.837325142376 292.209517756016 L 1133 288 L 1122.837325142376 283.790482243984"/></g><g transform="translate(-278,10) scale(1,1)"><path fill="none" stroke="#000000" d="M 1122.837325142376 292.209517756016 L 1133 288 L 1122.837325142376 283.790482243984 L 1122.837325142376 292.209517756016" stroke-miterlimit="10"/></g><g transform="translate(-278,10) scale(1,1)"><g><path fill="none" stroke="none"/><text fill="#000000" stroke="none" font-family="Arial" font-size="13px" font-style="normal" font-weight="normal" text-decoration="none" x="1030.5" y="275">6 : axios.post(url,data)</text></g></g><g transform="translate(-278,10) scale(1,1)"><rect fill="#7acff5" stroke="none" x="1133" y="288" width="13" height="28"/></g><g transform="translate(-278,10) scale(1,1)"><path fill="none" stroke="#000000" d="M 1133 288 L 1146 288 L 1146 316 L 1133 316 L 1133 288 Z Z" stroke-miterlimit="10"/></g><g transform="translate(-278,10) scale(1,1)"><path fill="none" stroke="#000000" d="M 1140 320 L 1257 320" stroke-miterlimit="10"/></g><g transform="translate(-278,10) scale(1,1)"><path fill="#000000" stroke="none" d="M 1246.837325142376 324.209517756016 L 1257 320 L 1246.837325142376 315.790482243984"/></g><g transform="translate(-278,10) scale(1,1)"><path fill="none" stroke="#000000" d="M 1246.837325142376 324.209517756016 L 1257 320 L 1246.837325142376 315.790482243984 L 1246.837325142376 324.209517756016" stroke-miterlimit="10"/></g><g transform="translate(-278,10) scale(1,1)"><g><path fill="none" stroke="none"/><text fill="#000000" stroke="none" font-family="Arial" font-size="13px" font-style="normal" font-weight="normal" text-decoration="none" x="1168.25634765625" y="315">7 : require</text></g></g><g transform="translate(-278,10) scale(1,1)"><rect fill="#7acff5" stroke="none" x="1257" y="320" width="13" height="28"/></g><g transform="translate(-278,10) scale(1,1)"><path fill="none" stroke="#000000" d="M 1257 320 L 1270 320 L 1270 348 L 1257 348 L 1257 320 Z Z" stroke-miterlimit="10"/></g><g transform="translate(-278,10) scale(1,1)"><path fill="none" stroke="#000000" d="M 1264 352 L 1357 352" stroke-miterlimit="10"/></g><g transform="translate(-278,10) scale(1,1)"><path fill="#000000" stroke="none" d="M 1346.837325142376 356.209517756016 L 1357 352 L 1346.837325142376 347.790482243984"/></g><g transform="translate(-278,10) scale(1,1)"><path fill="none" stroke="#000000" d="M 1346.837325142376 356.209517756016 L 1357 352 L 1346.837325142376 347.790482243984 L 1346.837325142376 356.209517756016" stroke-miterlimit="10"/></g><g transform="translate(-278,10) scale(1,1)"><g><path fill="none" stroke="none"/><text fill="#000000" stroke="none" font-family="Arial" font-size="13px" font-style="normal" font-weight="normal" text-decoration="none" x="1279.114990234375" y="339">8 : initialize user model</text></g></g><g transform="translate(-278,10) scale(1,1)"><rect fill="#7acff5" stroke="none" x="1357" y="352" width="13" height="28"/></g><g transform="translate(-278,10) scale(1,1)"><path fill="none" stroke="#000000" d="M 1357 352 L 1370 352 L 1370 380 L 1357 380 L 1357 352 Z Z" stroke-miterlimit="10"/></g><g transform="translate(-278,10) scale(1,1)"><path fill="none" stroke="#000000" d="M 1364 392 L 1554 392" stroke-miterlimit="10"/></g><g transform="translate(-278,10) scale(1,1)"><path fill="#000000" stroke="none" d="M 1543.837325142376 396.209517756016 L 1554 392 L 1543.837325142376 387.790482243984"/></g><g transform="translate(-278,10) scale(1,1)"><path fill="none" stroke="#000000" d="M 1543.837325142376 396.209517756016 L 1554 392 L 1543.837325142376 387.790482243984 L 1543.837325142376 396.209517756016" stroke-miterlimit="10"/></g><g transform="translate(-278,10) scale(1,1)"><g><path fill="none" stroke="none"/><text fill="#000000" stroke="none" font-family="Arial" font-size="13px" font-style="normal" font-weight="normal" text-decoration="none" x="1427.114990234375" y="387">9 : User.FindOne(email)</text></g></g><g transform="translate(-278,10) scale(1,1)"><rect fill="#8cc86e" stroke="none" x="1554" y="392" width="13" height="28"/></g><g transform="translate(-278,10) scale(1,1)"><path fill="none" stroke="#000000" d="M 1554 392 L 1567 392 L 1567 420 L 1554 420 L 1554 392 Z Z" stroke-miterlimit="10"/></g><g transform="translate(-278,10) scale(1,1)"><path fill="none" stroke="#000000" d="M 1561 456 L 1270 456" stroke-miterlimit="10"/></g><g transform="translate(-278,10) scale(1,1)"><path fill="#000000" stroke="none" d="M 1280.162674857624 451.790482243984 L 1270 456 L 1280.162674857624 460.209517756016"/></g><g transform="translate(-278,10) scale(1,1)"><path fill="none" stroke="#000000" d="M 1280.162674857624 451.790482243984 L 1270 456 L 1280.162674857624 460.209517756016 L 1280.162674857624 451.790482243984" stroke-miterlimit="10"/></g><g transform="translate(-278,10) scale(1,1)"><g><path fill="none" stroke="none"/><text fill="#000000" stroke="none" font-family="Arial" font-size="13px" font-style="normal" font-weight="normal" text-decoration="none" x="1387.275146484375" y="471">10 : Error</text></g></g><g transform="translate(-278,10) scale(1,1)"><rect fill="#ff5656" stroke="none" x="1257" y="456" width="13" height="28"/></g><g transform="translate(-278,10) scale(1,1)"><path fill="none" stroke="#000000" d="M 1257 456 L 1270 456 L 1270 484 L 1257 484 L 1257 456 Z Z" stroke-miterlimit="10"/></g><g transform="translate(-278,10) scale(1,1)"><path fill="none" stroke="#000000" d="M 1264 488 L 722 488" stroke-miterlimit="10"/></g><g transform="translate(-278,10) scale(1,1)"><path fill="#000000" stroke="none" d="M 732.1626748576241 483.790482243984 L 722 488 L 732.1626748576241 492.209517756016"/></g><g transform="translate(-278,10) scale(1,1)"><path fill="none" stroke="#000000" d="M 732.1626748576241 483.790482243984 L 722 488 L 732.1626748576241 492.209517756016 L 732.1626748576241 483.790482243984" stroke-miterlimit="10"/></g><g transform="translate(-278,10) scale(1,1)"><g><path fill="none" stroke="none"/><text fill="#000000" stroke="none" font-family="Arial" font-size="13px" font-style="normal" font-weight="normal" text-decoration="none" x="951.75" y="482">11 : response</text></g></g><g transform="translate(-278,10) scale(1,1)"><rect fill="#ff0000" stroke="none" x="709" y="488" width="13" height="28"/></g><g transform="translate(-278,10) scale(1,1)"><path fill="none" stroke="#000000" d="M 709 488 L 722 488 L 722 516 L 709 516 L 709 488 Z Z" stroke-miterlimit="10"/></g><g transform="translate(-278,10) scale(1,1)"><path fill="none" stroke="#000000" d="M 716 520 L 634 520" stroke-miterlimit="10"/></g><g transform="translate(-278,10) scale(1,1)"><path fill="#000000" stroke="none" d="M 644.1626748576241 515.790482243984 L 634 520 L 644.1626748576241 524.209517756016"/></g><g transform="translate(-278,10) scale(1,1)"><path fill="none" stroke="#000000" d="M 644.1626748576241 515.790482243984 L 634 520 L 644.1626748576241 524.209517756016 L 644.1626748576241 515.790482243984" stroke-miterlimit="10"/></g><g transform="translate(-278,10) scale(1,1)"><g><path fill="none" stroke="none"/><text fill="#000000" stroke="none" font-family="Arial" font-size="13px" font-style="normal" font-weight="normal" text-decoration="none" x="726.5" y="530">12 : apiError(state, action)</text></g></g><g transform="translate(-278,10) scale(1,1)"><rect fill="#d63500" stroke="none" x="621" y="520" width="13" height="28"/></g><g transform="translate(-278,10) scale(1,1)"><path fill="none" stroke="#000000" d="M 621 520 L 634 520 L 634 548 L 621 548 L 621 520 Z Z" stroke-miterlimit="10"/></g><g transform="translate(-278,10) scale(1,1)"><path fill="none" stroke="#000000" d="M 716 536 L 463 536" stroke-miterlimit="10"/></g><g transform="translate(-278,10) scale(1,1)"><path fill="#000000" stroke="none" d="M 473.16267485762415 531.790482243984 L 463 536 L 473.16267485762415 540.209517756016"/></g><g transform="translate(-278,10) scale(1,1)"><path fill="none" stroke="#000000" d="M 473.16267485762415 531.790482243984 L 463 536 L 473.16267485762415 540.209517756016 L 473.16267485762415 531.790482243984" stroke-miterlimit="10"/></g><g transform="translate(-278,10) scale(1,1)"><g><path fill="none" stroke="none"/><text fill="#000000" stroke="none" font-family="Arial" font-size="13px" font-style="normal" font-weight="normal" text-decoration="none" x="519.04541015625" y="530">13 : Error</text></g></g><g transform="translate(-278,10) scale(1,1)"><rect fill="#ff3f00" stroke="none" x="450" y="536" width="13" height="28"/></g><g transform="translate(-278,10) scale(1,1)"><path fill="none" stroke="#000000" d="M 450 536 L 463 536 L 463 564 L 450 564 L 450 536 Z Z" stroke-miterlimit="10"/></g><g transform="translate(-278,10) scale(1,1)"><path fill="none" stroke="#000000" d="M 1264 568 L 1294 568 L 1294 588 L 1270 588" stroke-miterlimit="10"/></g><g transform="translate(-278,10) scale(1,1)"><path fill="#000000" stroke="none" d="M 1280.162674857624 583.790482243984 L 1270 588 L 1280.162674857624 592.209517756016"/></g><g transform="translate(-278,10) scale(1,1)"><path fill="none" stroke="#000000" d="M 1280.162674857624 583.790482243984 L 1270 588 L 1280.162674857624 592.209517756016 L 1280.162674857624 583.790482243984" stroke-miterlimit="10"/></g><g transform="translate(-278,10) scale(1,1)"><g><path fill="none" stroke="none"/><text fill="#000000" stroke="none" font-family="Arial" font-size="13px" font-style="normal" font-weight="normal" text-decoration="none" x="1302.5" y="587">14 : createTokenUser(user)</text></g></g><g transform="translate(-278,10) scale(1,1)"><rect fill="#00ad00" stroke="none" x="1257" y="588" width="13" height="28"/></g><g transform="translate(-278,10) scale(1,1)"><path fill="none" stroke="#000000" d="M 1257 588 L 1270 588 L 1270 616 L 1257 616 L 1257 588 Z Z" stroke-miterlimit="10"/></g><g transform="translate(-278,10) scale(1,1)"><path fill="none" stroke="#000000" d="M 1264 640 L 1461 640" stroke-miterlimit="10"/></g><g transform="translate(-278,10) scale(1,1)"><path fill="#000000" stroke="none" d="M 1450.837325142376 644.209517756016 L 1461 640 L 1450.837325142376 635.790482243984"/></g><g transform="translate(-278,10) scale(1,1)"><path fill="none" stroke="#000000" d="M 1450.837325142376 644.209517756016 L 1461 640 L 1450.837325142376 635.790482243984 L 1450.837325142376 644.209517756016" stroke-miterlimit="10"/></g><g transform="translate(-278,10) scale(1,1)"><g><path fill="none" stroke="none"/><text fill="#000000" stroke="none" font-family="Arial" font-size="13px" font-style="normal" font-weight="normal" text-decoration="none" x="1272.5" y="635">15 : attachCookiesToResponse</text></g></g><g transform="translate(-278,10) scale(1,1)"><rect fill="#ffffff" stroke="none" x="1461" y="640" width="13" height="28"/></g><g transform="translate(-278,10) scale(1,1)"><path fill="none" stroke="#000000" d="M 1461 640 L 1474 640 L 1474 668 L 1461 668 L 1461 640 Z Z" stroke-miterlimit="10"/></g><g transform="translate(-278,10) scale(1,1)"><path fill="none" stroke="#000000" d="M 1264 680 L 1294 680 L 1294 700 L 1270 700" stroke-miterlimit="10"/></g><g transform="translate(-278,10) scale(1,1)"><path fill="#000000" stroke="none" d="M 1280.162674857624 695.790482243984 L 1270 700 L 1280.162674857624 704.209517756016"/></g><g transform="translate(-278,10) scale(1,1)"><path fill="none" stroke="#000000" d="M 1280.162674857624 695.790482243984 L 1270 700 L 1280.162674857624 704.209517756016 L 1280.162674857624 695.790482243984" stroke-miterlimit="10"/></g><g transform="translate(-278,10) scale(1,1)"><g><path fill="none" stroke="none"/><text fill="#000000" stroke="none" font-family="Arial" font-size="13px" font-style="normal" font-weight="normal" text-decoration="none" x="1311.5" y="694">16 : jsonResponse</text></g></g><g transform="translate(-278,10) scale(1,1)"><rect fill="#00ad00" stroke="none" x="1257" y="700" width="13" height="28"/></g><g transform="translate(-278,10) scale(1,1)"><path fill="none" stroke="#000000" d="M 1257 700 L 1270 700 L 1270 728 L 1257 728 L 1257 700 Z Z" stroke-miterlimit="10"/></g><g transform="translate(-278,10) scale(1,1)"><path fill="none" stroke="#000000" d="M 1264 736 L 722 736" stroke-miterlimit="10"/></g><g transform="translate(-278,10) scale(1,1)"><path fill="#000000" stroke="none" d="M 732.1626748576241 731.790482243984 L 722 736 L 732.1626748576241 740.209517756016"/></g><g transform="translate(-278,10) scale(1,1)"><path fill="none" stroke="#000000" d="M 732.1626748576241 731.790482243984 L 722 736 L 732.1626748576241 740.209517756016 L 732.1626748576241 731.790482243984" stroke-miterlimit="10"/></g><g transform="translate(-278,10) scale(1,1)"><g><path fill="none" stroke="none"/><text fill="#000000" stroke="none" font-family="Arial" font-size="13px" font-style="normal" font-weight="normal" text-decoration="none" x="946.75" y="730">17 : response</text></g></g><g transform="translate(-278,10) scale(1,1)"><rect fill="#00ad00" stroke="none" x="709" y="736" width="13" height="28"/></g><g transform="translate(-278,10) scale(1,1)"><path fill="none" stroke="#000000" d="M 709 736 L 722 736 L 722 764 L 709 764 L 709 736 Z Z" stroke-miterlimit="10"/></g><g transform="translate(-278,10) scale(1,1)"><path fill="none" stroke="#000000" d="M 716 768 L 634 768" stroke-miterlimit="10"/></g><g transform="translate(-278,10) scale(1,1)"><path fill="#000000" stroke="none" d="M 644.1626748576241 763.790482243984 L 634 768 L 644.1626748576241 772.209517756016"/></g><g transform="translate(-278,10) scale(1,1)"><path fill="none" stroke="#000000" d="M 644.1626748576241 763.790482243984 L 634 768 L 644.1626748576241 772.209517756016 L 644.1626748576241 763.790482243984" stroke-miterlimit="10"/></g><g transform="translate(-278,10) scale(1,1)"><g><path fill="none" stroke="none"/><text fill="#000000" stroke="none" font-family="Arial" font-size="13px" font-style="normal" font-weight="normal" text-decoration="none" x="742.5" y="771">18 : loginSuccess(state, action)</text></g></g><g transform="translate(-278,10) scale(1,1)"><rect fill="#00ad00" stroke="none" x="621" y="768" width="13" height="28"/></g><g transform="translate(-278,10) scale(1,1)"><path fill="none" stroke="#000000" d="M 621 768 L 634 768 L 634 796 L 621 796 L 621 768 Z Z" stroke-miterlimit="10"/></g><g transform="translate(-278,10) scale(1,1)"><path fill="none" stroke="#000000" d="M 716 792 L 554 792" stroke-miterlimit="10"/></g><g transform="translate(-278,10) scale(1,1)"><path fill="#000000" stroke="none" d="M 564.1626748576241 787.790482243984 L 554 792 L 564.1626748576241 796.209517756016"/></g><g transform="translate(-278,10) scale(1,1)"><path fill="none" stroke="#000000" d="M 564.1626748576241 787.790482243984 L 554 792 L 564.1626748576241 796.209517756016 L 564.1626748576241 787.790482243984" stroke-miterlimit="10"/></g><g transform="translate(-278,10) scale(1,1)"><g><path fill="none" stroke="none"/><text fill="#000000" stroke="none" font-family="Arial" font-size="13px" font-style="normal" font-weight="normal" text-decoration="none" x="735.5" y="795">19 : sessionStorage.setItem</text></g></g><g transform="translate(-278,10) scale(1,1)"><rect fill="#59b200" stroke="none" x="541" y="792" width="13" height="28"/></g><g transform="translate(-278,10) scale(1,1)"><path fill="none" stroke="#000000" d="M 541 792 L 554 792 L 554 820 L 541 820 L 541 792 Z Z" stroke-miterlimit="10"/></g><g transform="translate(-278,10) scale(1,1)"><path fill="none" stroke="#000000" d="M 457 824 L 709 824" stroke-miterlimit="10"/></g><g transform="translate(-278,10) scale(1,1)"><path fill="#000000" stroke="none" d="M 698.8373251423759 828.209517756016 L 709 824 L 698.8373251423758 819.790482243984"/></g><g transform="translate(-278,10) scale(1,1)"><path fill="none" stroke="#000000" d="M 698.8373251423759 828.209517756016 L 709 824 L 698.8373251423758 819.790482243984 L 698.8373251423759 828.209517756016" stroke-miterlimit="10"/></g><g transform="translate(-278,10) scale(1,1)"><g><path fill="none" stroke="none"/><text fill="#000000" stroke="none" font-family="Arial" font-size="13px" font-style="normal" font-weight="normal" text-decoration="none" x="359.5" y="818">20 : dispatch(startSession)</text></g></g><g transform="translate(-278,10) scale(1,1)"><rect fill="#00ad00" stroke="none" x="709" y="824" width="13" height="28"/></g><g transform="translate(-278,10) scale(1,1)"><path fill="none" stroke="#000000" d="M 709 824 L 722 824 L 722 852 L 709 852 L 709 824 Z Z" stroke-miterlimit="10"/></g><g transform="translate(-278,10) scale(1,1)"><path fill="none" stroke="#000000" d="M 716 856 L 746 856 L 746 876 L 722 876" stroke-miterlimit="10"/></g><g transform="translate(-278,10) scale(1,1)"><path fill="#000000" stroke="none" d="M 732.1626748576241 871.790482243984 L 722 876 L 732.1626748576241 880.209517756016"/></g><g transform="translate(-278,10) scale(1,1)"><path fill="none" stroke="#000000" d="M 732.1626748576241 871.790482243984 L 722 876 L 732.1626748576241 880.209517756016 L 732.1626748576241 871.790482243984" stroke-miterlimit="10"/></g><g transform="translate(-278,10) scale(1,1)"><g><path fill="none" stroke="none"/><text fill="#000000" stroke="none" font-family="Arial" font-size="13px" font-style="normal" font-weight="normal" text-decoration="none" x="751.5" y="870">21 : sessionStorage.getItem</text></g></g><g transform="translate(-278,10) scale(1,1)"><rect fill="#00ad00" stroke="none" x="709" y="876" width="13" height="28"/></g><g transform="translate(-278,10) scale(1,1)"><path fill="none" stroke="#000000" d="M 709 876 L 722 876 L 722 904 L 709 904 L 709 876 Z Z" stroke-miterlimit="10"/></g><g transform="translate(-278,10) scale(1,1)"><path fill="none" stroke="#000000" d="M 716 912 L 634 912" stroke-miterlimit="10"/></g><g transform="translate(-278,10) scale(1,1)"><path fill="#000000" stroke="none" d="M 644.1626748576241 907.790482243984 L 634 912 L 644.1626748576241 916.209517756016"/></g><g transform="translate(-278,10) scale(1,1)"><path fill="none" stroke="#000000" d="M 644.1626748576241 907.790482243984 L 634 912 L 644.1626748576241 916.209517756016 L 644.1626748576241 907.790482243984" stroke-miterlimit="10"/></g><g transform="translate(-278,10) scale(1,1)"><g><path fill="none" stroke="none"/><text fill="#000000" stroke="none" font-family="Arial" font-size="13px" font-style="normal" font-weight="normal" text-decoration="none" x="719.5" y="915">22 : dispatch(setDecodeToken)</text></g></g><g transform="translate(-278,10) scale(1,1)"><rect fill="#00ad00" stroke="none" x="621" y="912" width="13" height="28"/></g><g transform="translate(-278,10) scale(1,1)"><path fill="none" stroke="#000000" d="M 621 912 L 634 912 L 634 940 L 621 940 L 621 912 Z Z" stroke-miterlimit="10"/></g><g transform="translate(-278,10) scale(1,1)"><path fill="none" stroke="#000000" d="M 628 952 L 463 952" stroke-miterlimit="10"/></g><g transform="translate(-278,10) scale(1,1)"><path fill="#000000" stroke="none" d="M 473.16267485762415 947.790482243984 L 463 952 L 473.16267485762415 956.209517756016"/></g><g transform="translate(-278,10) scale(1,1)"><path fill="none" stroke="#000000" d="M 473.16267485762415 947.790482243984 L 463 952 L 473.16267485762415 956.209517756016 L 473.16267485762415 947.790482243984" stroke-miterlimit="10"/></g><g transform="translate(-278,10) scale(1,1)"><g><path fill="none" stroke="none"/><text fill="#000000" stroke="none" font-family="Arial" font-size="13px" font-style="normal" font-weight="normal" text-decoration="none" x="356.91455078125" y="954">23 : navigate</text></g></g><g transform="translate(-278,10) scale(1,1)"><rect fill="#00ad00" stroke="none" x="450" y="952" width="13" height="28"/></g><g transform="translate(-278,10) scale(1,1)"><path fill="none" stroke="#000000" d="M 450 952 L 463 952 L 463 980 L 450 980 L 450 952 Z Z" stroke-miterlimit="10"/></g><g transform="translate(-278,10) scale(1,1)"><path fill="none" stroke="#000000" d="M 328 425 L 1608 425 L 1608 992 L 328 992 L 328 425" stroke-miterlimit="10"/></g><g transform="translate(-278,10) scale(1,1)"><path fill="#ffffff" stroke="none" d="M 328 425 L 328 447 L 450.22802734375 447 L 461.22802734375 436 L 461.22802734375 425 L 328 425"/></g><g transform="translate(-278,10) scale(1,1)"><path fill="none" stroke="#000000" d="M 328 425 L 328 447 L 450.22802734375 447 L 461.22802734375 436 L 461.22802734375 425 L 328 425 L 328 425" stroke-miterlimit="10"/></g><g transform="translate(-278,10) scale(1,1)"><g><path fill="none" stroke="none"/><text fill="#000000" stroke="none" font-family="Arial" font-size="13px" font-style="normal" font-weight="normal" text-decoration="none" x="352.72998046875" y="441">check validation</text></g></g><g transform="translate(-278,10) scale(1,1)"><g><path fill="none" stroke="none"/><text fill="#000000" stroke="none" font-family="Arial" font-size="13px" font-style="normal" font-weight="bold" text-decoration="none" x="332.279541015625" y="441">alt</text></g></g><g transform="translate(-278,10) scale(1,1)"><g><path fill="none" stroke="none"/><text fill="#000000" stroke="none" font-family="Arial" font-size="13px" font-style="normal" font-weight="normal" text-decoration="none" x="347.5" y="474">[if (!user||user.status==="banned"||!isPasswordCorrect))]</text></g></g><g transform="translate(-278,10) scale(1,1)"><path fill="none" stroke="#000000" d="M 328 561 L 1608 561" stroke-miterlimit="10" stroke-dasharray="10,3"/></g><g transform="translate(-278,10) scale(1,1)"><g><path fill="none" stroke="none"/><text fill="#000000" stroke="none" font-family="Arial" font-size="13px" font-style="normal" font-weight="normal" text-decoration="none" x="347.5" y="587">[else]</text></g></g></g></svg>