<svg version="1.1" xmlns="http://www.w3.org/2000/svg" xmlns:xlink="http://www.w3.org/1999/xlink" width="631" height="474"><defs/><g><g transform="translate(-326,10) scale(1,1)"><path fill="none" stroke="#000000" d="M 352 0 L 947 0 L 947 448 L 352 448 L 352 0" stroke-miterlimit="10"/></g><g transform="translate(-326,10) scale(1,1)"><path fill="#ffffff" stroke="none" d="M 352 0 L 352 22 L 508.92431640625 22 L 519.92431640625 11 L 519.92431640625 0 L 352 0"/></g><g transform="translate(-326,10) scale(1,1)"><path fill="none" stroke="#000000" d="M 352 0 L 352 22 L 508.92431640625 22 L 519.92431640625 11 L 519.92431640625 0 L 352 0 L 352 0" stroke-miterlimit="10"/></g><g transform="translate(-326,10) scale(1,1)"><g><path fill="none" stroke="none"/><text fill="#000000" stroke="none" font-family="Arial" font-size="13px" font-style="normal" font-weight="normal" text-decoration="none" x="376.72998046875" y="16">AuthenticateAuthorize</text></g></g><g transform="translate(-326,10) scale(1,1)"><g><path fill="none" stroke="none"/><text fill="#000000" stroke="none" font-family="Arial" font-size="13px" font-style="normal" font-weight="bold" text-decoration="none" x="356.279541015625" y="16">sd</text></g></g><g transform="translate(-326,10) scale(1,1)"><rect fill="#C0C0C0" stroke="none" x="487" y="47" width="124.47900390625" height="39" opacity="0.2"/></g><g transform="translate(-326,10) scale(1,1)"><rect fill="#ffffff" stroke="none" x="480" y="40" width="124.47900390625" height="39"/></g><g transform="translate(-326,10) scale(1,1)"><path fill="none" stroke="#000000" d="M 480 40 L 604.47900390625 40 L 604.47900390625 79 L 480 79 L 480 40 Z Z" stroke-miterlimit="10"/></g><g transform="translate(-326,10) scale(1,1)"><g><path fill="none" stroke="none"/><text fill="#000000" stroke="none" font-family="Arial" font-size="13px" font-style="normal" font-weight="bold" text-decoration="none" x="489.5" y="58">authenticateUser</text></g></g><g transform="translate(-326,10) scale(1,1)"><path fill="none" stroke="#000000" d="M 543.5 80 L 543.5 446" stroke-miterlimit="10" stroke-dasharray="3"/></g><g transform="translate(-326,10) scale(1,1)"><rect fill="#C0C0C0" stroke="none" x="767" y="47" width="154.09716796875" height="39" opacity="0.2"/></g><g transform="translate(-326,10) scale(1,1)"><rect fill="#ffffff" stroke="none" x="760" y="40" width="154.09716796875" height="39"/></g><g transform="translate(-326,10) scale(1,1)"><path fill="none" stroke="#000000" d="M 760 40 L 914.09716796875 40 L 914.09716796875 79 L 760 79 L 760 40 Z Z" stroke-miterlimit="10"/></g><g transform="translate(-326,10) scale(1,1)"><g><path fill="none" stroke="none"/><text fill="#000000" stroke="none" font-family="Arial" font-size="13px" font-style="normal" font-weight="bold" text-decoration="none" x="769.5" y="58">authorizePermissions</text></g></g><g transform="translate(-326,10) scale(1,1)"><path fill="none" stroke="#000000" d="M 838.5 80 L 838.5 454" stroke-miterlimit="10" stroke-dasharray="3"/></g><g transform="translate(-326,10) scale(1,1)"><path fill="#ffffff" stroke="none" d="M 381.3831649502841 47.3 C 381.3831649502841 43.82060576 384.2615666724659 41 387.812255859375 41 C 391.3629450462841 41 394.241346768466 43.82060576 394.241346768466 47.3 C 394.241346768466 50.779394239999995 391.3629450462841 53.6 387.812255859375 53.6 C 384.2615666724659 53.6 381.3831649502841 50.779394239999995 381.3831649502841 47.3 Z"/></g><g transform="translate(-326,10) scale(1,1)"><path fill="none" stroke="#000000" d="M 381.3831649502841 47.3 C 381.3831649502841 43.82060576 384.2615666724659 41 387.812255859375 41 C 391.3629450462841 41 394.241346768466 43.82060576 394.241346768466 47.3 C 394.241346768466 50.779394239999995 391.3629450462841 53.6 387.812255859375 53.6 C 384.2615666724659 53.6 381.3831649502841 50.779394239999995 381.3831649502841 47.3 Z" stroke-miterlimit="10"/></g><g transform="translate(-326,10) scale(1,1)"><path fill="none" stroke="#000000" d="M 387.812255859375 53.6 L 387.812255859375 66.4" stroke-miterlimit="10"/></g><g transform="translate(-326,10) scale(1,1)"><path fill="none" stroke="#000000" d="M 381.00498313210227 58.4 L 394.6195285866478 58.4" stroke-miterlimit="10"/></g><g transform="translate(-326,10) scale(1,1)"><path fill="none" stroke="#000000" d="M 387.812255859375 66.4 L 378.35771040482956 79" stroke-miterlimit="10"/></g><g transform="translate(-326,10) scale(1,1)"><path fill="none" stroke="#000000" d="M 387.812255859375 66.4 L 397.2668013139205 79" stroke-miterlimit="10"/></g><g transform="translate(-326,10) scale(1,1)"><g><path fill="none" stroke="none"/><text fill="#000000" stroke="none" font-family="Arial" font-size="13px" font-style="normal" font-weight="bold" text-decoration="none" x="366.8681640625" y="98">: Actor</text></g></g><g transform="translate(-326,10) scale(1,1)"><path fill="none" stroke="#000000" d="M 388.5 105 L 388.5 156" stroke-miterlimit="10" stroke-dasharray="3"/></g><g transform="translate(-326,10) scale(1,1)"><path fill="none" stroke="#000000" d="M 388 130 L 536 130" stroke-miterlimit="10"/></g><g transform="translate(-326,10) scale(1,1)"><path fill="#000000" stroke="none" d="M 525.8373251423759 134.209517756016 L 536 130 L 525.8373251423758 125.79048224398402"/></g><g transform="translate(-326,10) scale(1,1)"><path fill="none" stroke="#000000" d="M 525.8373251423759 134.209517756016 L 536 130 L 525.8373251423758 125.79048224398402 L 525.8373251423759 134.209517756016" stroke-miterlimit="10"/></g><g transform="translate(-326,10) scale(1,1)"><g><path fill="none" stroke="none"/><text fill="#000000" stroke="none" font-family="Arial" font-size="13px" font-style="normal" font-weight="normal" text-decoration="none" x="375.5" y="124">1 : compatible applicaition</text></g></g><g transform="translate(-326,10) scale(1,1)"><rect fill="#ffffff" stroke="none" x="536" y="130" width="13" height="28"/></g><g transform="translate(-326,10) scale(1,1)"><path fill="none" stroke="#000000" d="M 536 130 L 549 130 L 549 158 L 536 158 L 536 130 Z Z" stroke-miterlimit="10"/></g><g transform="translate(-326,10) scale(1,1)"><path fill="none" stroke="#000000" d="M 543 168 L 573 168 L 573 188 L 549 188" stroke-miterlimit="10"/></g><g transform="translate(-326,10) scale(1,1)"><path fill="#000000" stroke="none" d="M 559.1626748576241 183.790482243984 L 549 188 L 559.1626748576241 192.209517756016"/></g><g transform="translate(-326,10) scale(1,1)"><path fill="none" stroke="#000000" d="M 559.1626748576241 183.790482243984 L 549 188 L 559.1626748576241 192.209517756016 L 559.1626748576241 183.790482243984" stroke-miterlimit="10"/></g><g transform="translate(-326,10) scale(1,1)"><g><path fill="none" stroke="none"/><text fill="#000000" stroke="none" font-family="Arial" font-size="13px" font-style="normal" font-weight="normal" text-decoration="none" x="550.5" y="163">2 : authenticateUser</text></g></g><g transform="translate(-326,10) scale(1,1)"><rect fill="#ffffff" stroke="none" x="536" y="188" width="13" height="28"/></g><g transform="translate(-326,10) scale(1,1)"><path fill="none" stroke="#000000" d="M 536 188 L 549 188 L 549 216 L 536 216 L 536 188 Z Z" stroke-miterlimit="10"/></g><g transform="translate(-326,10) scale(1,1)"><path fill="none" stroke="#000000" d="M 543 224 L 573 224 L 573 244 L 549 244" stroke-miterlimit="10"/></g><g transform="translate(-326,10) scale(1,1)"><path fill="#000000" stroke="none" d="M 559.1626748576241 239.790482243984 L 549 244 L 559.1626748576241 248.209517756016"/></g><g transform="translate(-326,10) scale(1,1)"><path fill="none" stroke="#000000" d="M 559.1626748576241 239.790482243984 L 549 244 L 559.1626748576241 248.209517756016 L 559.1626748576241 239.790482243984" stroke-miterlimit="10"/></g><g transform="translate(-326,10) scale(1,1)"><g><path fill="none" stroke="none"/><text fill="#000000" stroke="none" font-family="Arial" font-size="13px" font-style="normal" font-weight="normal" text-decoration="none" x="535.5" y="219">3 : token = req.signedCookies.token</text></g></g><g transform="translate(-326,10) scale(1,1)"><rect fill="#ffffff" stroke="none" x="536" y="244" width="13" height="28"/></g><g transform="translate(-326,10) scale(1,1)"><path fill="none" stroke="#000000" d="M 536 244 L 549 244 L 549 272 L 536 272 L 536 244 Z Z" stroke-miterlimit="10"/></g><g transform="translate(-326,10) scale(1,1)"><path fill="none" stroke="#000000" d="M 543 304 L 573 304 L 573 324 L 549 324" stroke-miterlimit="10"/></g><g transform="translate(-326,10) scale(1,1)"><path fill="#000000" stroke="none" d="M 559.1626748576241 319.790482243984 L 549 324 L 559.1626748576241 328.209517756016"/></g><g transform="translate(-326,10) scale(1,1)"><path fill="none" stroke="#000000" d="M 559.1626748576241 319.790482243984 L 549 324 L 559.1626748576241 328.209517756016 L 559.1626748576241 319.790482243984" stroke-miterlimit="10"/></g><g transform="translate(-326,10) scale(1,1)"><g><path fill="none" stroke="none"/><text fill="#000000" stroke="none" font-family="Arial" font-size="13px" font-style="normal" font-weight="normal" text-decoration="none" x="549.5" y="347">4 : Authentication invalid</text></g></g><g transform="translate(-326,10) scale(1,1)"><rect fill="#ffffff" stroke="none" x="536" y="324" width="13" height="28"/></g><g transform="translate(-326,10) scale(1,1)"><path fill="none" stroke="#000000" d="M 536 324 L 549 324 L 549 352 L 536 352 L 536 324 Z Z" stroke-miterlimit="10"/></g><g transform="translate(-326,10) scale(1,1)"><path fill="none" stroke="#000000" d="M 838 328 L 868 328 L 868 348 L 844 348" stroke-miterlimit="10"/></g><g transform="translate(-326,10) scale(1,1)"><path fill="#000000" stroke="none" d="M 854.1626748576241 343.790482243984 L 844 348 L 854.1626748576241 352.209517756016"/></g><g transform="translate(-326,10) scale(1,1)"><path fill="none" stroke="#000000" d="M 854.1626748576241 343.790482243984 L 844 348 L 854.1626748576241 352.209517756016 L 854.1626748576241 343.790482243984" stroke-miterlimit="10"/></g><g transform="translate(-326,10) scale(1,1)"><g><path fill="none" stroke="none"/><text fill="#000000" stroke="none" font-family="Arial" font-size="13px" font-style="normal" font-weight="normal" text-decoration="none" x="853.04541015625" y="342">5 : Error</text></g></g><g transform="translate(-326,10) scale(1,1)"><rect fill="#ffffff" stroke="none" x="831" y="348" width="13" height="28"/></g><g transform="translate(-326,10) scale(1,1)"><path fill="none" stroke="#000000" d="M 831 348 L 844 348 L 844 376 L 831 376 L 831 348 Z Z" stroke-miterlimit="10"/></g><g transform="translate(-326,10) scale(1,1)"><path fill="none" stroke="#000000" d="M 543 384 L 573 384 L 573 404 L 549 404" stroke-miterlimit="10"/></g><g transform="translate(-326,10) scale(1,1)"><path fill="#000000" stroke="none" d="M 559.1626748576241 399.790482243984 L 549 404 L 559.1626748576241 408.209517756016"/></g><g transform="translate(-326,10) scale(1,1)"><path fill="none" stroke="#000000" d="M 559.1626748576241 399.790482243984 L 549 404 L 559.1626748576241 408.209517756016 L 559.1626748576241 399.790482243984" stroke-miterlimit="10"/></g><g transform="translate(-326,10) scale(1,1)"><g><path fill="none" stroke="none"/><text fill="#000000" stroke="none" font-family="Arial" font-size="13px" font-style="normal" font-weight="normal" text-decoration="none" x="560.20361328125" y="398">6 : next</text></g></g><g transform="translate(-326,10) scale(1,1)"><rect fill="#ffffff" stroke="none" x="536" y="404" width="13" height="28"/></g><g transform="translate(-326,10) scale(1,1)"><path fill="none" stroke="#000000" d="M 536 404 L 549 404 L 549 432 L 536 432 L 536 404 Z Z" stroke-miterlimit="10"/></g><g transform="translate(-326,10) scale(1,1)"><path fill="none" stroke="#000000" d="M 838 392 L 868 392 L 868 412 L 844 412" stroke-miterlimit="10"/></g><g transform="translate(-326,10) scale(1,1)"><path fill="#000000" stroke="none" d="M 854.1626748576241 407.790482243984 L 844 412 L 854.1626748576241 416.209517756016"/></g><g transform="translate(-326,10) scale(1,1)"><path fill="none" stroke="#000000" d="M 854.1626748576241 407.790482243984 L 844 412 L 854.1626748576241 416.209517756016 L 854.1626748576241 407.790482243984" stroke-miterlimit="10"/></g><g transform="translate(-326,10) scale(1,1)"><g><path fill="none" stroke="none"/><text fill="#000000" stroke="none" font-family="Arial" font-size="13px" font-style="normal" font-weight="normal" text-decoration="none" x="855.20361328125" y="406">7 : next</text></g></g><g transform="translate(-326,10) scale(1,1)"><rect fill="#ffffff" stroke="none" x="831" y="412" width="13" height="28"/></g><g transform="translate(-326,10) scale(1,1)"><path fill="none" stroke="#000000" d="M 831 412 L 844 412 L 844 440 L 831 440 L 831 412 Z Z" stroke-miterlimit="10"/></g><g transform="translate(-326,10) scale(1,1)"><path fill="none" stroke="#000000" d="M 384 296 L 696 296 L 696 416 L 384 416 L 384 296" stroke-miterlimit="10"/></g><g transform="translate(-326,10) scale(1,1)"><path fill="#ffffff" stroke="none" d="M 384 296 L 384 318 L 512.0107421875 318 L 523.0107421875 307 L 523.0107421875 296 L 384 296"/></g><g transform="translate(-326,10) scale(1,1)"><path fill="none" stroke="#000000" d="M 384 296 L 384 318 L 512.0107421875 318 L 523.0107421875 307 L 523.0107421875 296 L 384 296 L 384 296" stroke-miterlimit="10"/></g><g transform="translate(-326,10) scale(1,1)"><g><path fill="none" stroke="none"/><text fill="#000000" stroke="none" font-family="Arial" font-size="13px" font-style="normal" font-weight="normal" text-decoration="none" x="408.72998046875" y="312">authenticateUser</text></g></g><g transform="translate(-326,10) scale(1,1)"><g><path fill="none" stroke="none"/><text fill="#000000" stroke="none" font-family="Arial" font-size="13px" font-style="normal" font-weight="bold" text-decoration="none" x="388.279541015625" y="312">alt</text></g></g><g transform="translate(-326,10) scale(1,1)"><g><path fill="none" stroke="none"/><text fill="#000000" stroke="none" font-family="Arial" font-size="13px" font-style="normal" font-weight="normal" text-decoration="none" x="403.5" y="345">[if(!token)]</text></g></g><g transform="translate(-326,10) scale(1,1)"><path fill="none" stroke="#000000" d="M 384 362 L 696 362" stroke-miterlimit="10" stroke-dasharray="10,3"/></g><g transform="translate(-326,10) scale(1,1)"><g><path fill="none" stroke="none"/><text fill="#000000" stroke="none" font-family="Arial" font-size="13px" font-style="normal" font-weight="normal" text-decoration="none" x="403.5" y="388">[else]</text></g></g><g transform="translate(-326,10) scale(1,1)"><path fill="none" stroke="#000000" d="M 712 296 L 936 296 L 936 424 L 712 424 L 712 296" stroke-miterlimit="10"/></g><g transform="translate(-326,10) scale(1,1)"><path fill="#ffffff" stroke="none" d="M 712 296 L 712 318 L 866.00439453125 318 L 877.00439453125 307 L 877.00439453125 296 L 712 296"/></g><g transform="translate(-326,10) scale(1,1)"><path fill="none" stroke="#000000" d="M 712 296 L 712 318 L 866.00439453125 318 L 877.00439453125 307 L 877.00439453125 296 L 712 296 L 712 296" stroke-miterlimit="10"/></g><g transform="translate(-326,10) scale(1,1)"><g><path fill="none" stroke="none"/><text fill="#000000" stroke="none" font-family="Arial" font-size="13px" font-style="normal" font-weight="normal" text-decoration="none" x="736.72998046875" y="312">authorizePermissions</text></g></g><g transform="translate(-326,10) scale(1,1)"><g><path fill="none" stroke="none"/><text fill="#000000" stroke="none" font-family="Arial" font-size="13px" font-style="normal" font-weight="bold" text-decoration="none" x="716.279541015625" y="312">alt</text></g></g><g transform="translate(-326,10) scale(1,1)"><g><path fill="none" stroke="none"/><text fill="#000000" stroke="none" font-family="Arial" font-size="13px" font-style="normal" font-weight="normal" text-decoration="none" x="731.5" y="345">[if(!role)]</text></g></g><g transform="translate(-326,10) scale(1,1)"><path fill="none" stroke="#000000" d="M 712 362 L 936 362" stroke-miterlimit="10" stroke-dasharray="10,3"/></g><g transform="translate(-326,10) scale(1,1)"><g><path fill="none" stroke="none"/><text fill="#000000" stroke="none" font-family="Arial" font-size="13px" font-style="normal" font-weight="normal" text-decoration="none" x="731.5" y="388">[else]</text></g></g></g></svg>